<svg xmlns="http://www.w3.org/2000/svg" width="131" height="131" viewBox="0 0 131 131" fill="none"><circle cx="65.5001" cy="65.5001" r="52.5167" stroke="white" stroke-width="24.3556"></circle><path d="M71.7838 12.2447C71.8167 11.9523 71.8419 11.6974 71.8594 11.4799C71.8772 11.2589 71.8882 11.0685 71.8922 10.9087C71.8966 10.7455 71.8962 10.6096 71.891 10.501C71.8858 10.3924 71.8769 10.3009 71.8644 10.2263L71.8667 10.2057L72.7852 10.3089L72.7829 10.3296C72.7541 10.3995 72.7235 10.4866 72.6908 10.5909C72.6616 10.6956 72.6311 10.8281 72.5991 10.9882C72.571 11.1453 72.5395 11.3333 72.5044 11.5524C72.4731 11.7683 72.4411 12.0225 72.4082 12.3149L72.095 15.1014C72.0397 15.5934 71.922 16.0052 71.7419 16.3368C71.5618 16.6684 71.3336 16.9319 71.0574 17.1272C70.7815 17.3192 70.4625 17.4453 70.1004 17.5056C69.7379 17.5694 69.3485 17.5779 68.9323 17.5311C68.516 17.4843 68.1327 17.3925 67.7823 17.2555C67.4353 17.119 67.1397 16.929 66.8953 16.6856C66.6548 16.4391 66.478 16.137 66.3649 15.7794C66.2522 15.4184 66.2235 14.9919 66.2788 14.5L66.5978 11.6618C66.6307 11.3694 66.6558 11.1145 66.6733 10.897C66.6912 10.676 66.7021 10.4856 66.7061 10.3258C66.7106 10.1626 66.7084 10.0265 66.6998 9.91754C66.6946 9.80897 66.6857 9.7174 66.6732 9.64283L66.6755 9.62219L67.914 9.76139L67.9116 9.78203C67.8829 9.85196 67.8522 9.93908 67.8196 10.0434C67.7904 10.1481 67.7598 10.2805 67.7279 10.4407C67.6963 10.5974 67.6647 10.7854 67.6331 11.0048C67.6019 11.2208 67.5698 11.475 67.537 11.7674L67.2116 14.6623C67.1656 15.0717 67.1877 15.4173 67.2779 15.6992C67.372 15.978 67.5099 16.2077 67.6916 16.3884C67.8738 16.5656 68.0886 16.6995 68.3363 16.79C68.5839 16.8806 68.8401 16.9407 69.105 16.9705C69.3699 17.0003 69.6331 16.9985 69.8946 16.9652C70.1562 16.9319 70.3937 16.8489 70.6072 16.7161C70.8245 16.5803 71.0082 16.3867 71.1584 16.1353C71.3124 15.8809 71.4124 15.549 71.4585 15.1396L71.7838 12.2447Z" fill="#43735E"></path><path d="M81.2416 16.3338C81.3845 15.8998 81.4023 15.5522 81.2951 15.2909C81.188 15.0297 80.9881 14.8509 80.6954 14.7546C80.5902 14.7199 80.4642 14.704 80.3175 14.7067C80.1719 14.7062 80.0176 14.721 79.8546 14.7511C79.6927 14.778 79.5265 14.818 79.3559 14.8712C79.1853 14.9244 79.0208 14.9869 78.8623 15.0586L78.6398 15.7015L78.2468 16.8952C78.1548 17.1747 78.0775 17.4207 78.0148 17.6333C77.9532 17.8427 77.904 18.0251 77.8674 18.1807C77.8308 18.3363 77.8039 18.4678 77.7868 18.5751C77.7697 18.6825 77.7596 18.7739 77.7566 18.8495L77.7501 18.8692L76.6107 18.4941L76.6172 18.4744C76.6597 18.4118 76.7059 18.3323 76.7559 18.2358C76.8092 18.1403 76.8657 18.0186 76.9253 17.8706C76.9883 17.7237 77.0571 17.5477 77.1319 17.3427C77.211 17.1355 77.2966 16.8922 77.3886 16.6127L77.7815 15.419C77.8735 15.1395 77.9487 14.8946 78.007 14.6842C78.0697 14.4715 78.1194 14.2874 78.156 14.1319C78.196 13.9773 78.2228 13.8459 78.2367 13.7375C78.2538 13.6301 78.2638 13.5387 78.2668 13.4631L78.2733 13.4434L79.4127 13.8184L79.4062 13.8382C79.3528 13.9117 79.2968 14.0099 79.2382 14.1327C79.1839 14.2534 79.115 14.4129 79.0314 14.6114C79.203 14.5439 79.3845 14.4798 79.5759 14.4188C79.7705 14.359 79.9658 14.3139 80.1616 14.2836C80.3585 14.25 80.5528 14.2356 80.7444 14.2404C80.9371 14.2419 81.1173 14.2702 81.285 14.3254C81.5414 14.4098 81.7438 14.5257 81.8922 14.6729C82.0438 14.8212 82.1517 14.9861 82.2159 15.1676C82.2834 15.3502 82.3109 15.5433 82.2985 15.7469C82.2905 15.9484 82.2551 16.1445 82.1924 16.3352L81.6403 18.0122C81.5483 18.2917 81.471 18.5378 81.4083 18.7504C81.3467 18.9597 81.2975 19.1422 81.2609 19.2978C81.2242 19.4534 81.1974 19.5848 81.1803 19.6922C81.1631 19.7995 81.1531 19.891 81.1501 19.9665L81.1436 19.9862L80.0042 19.6112L80.0107 19.5915C80.0532 19.5289 80.0994 19.4494 80.1494 19.3528C80.2027 19.2574 80.2591 19.1357 80.3188 18.9877C80.3817 18.8407 80.4506 18.6648 80.5254 18.4598C80.6045 18.2526 80.6901 18.0092 80.7821 17.7297L81.2416 16.3338Z" fill="#43735E"></path><path d="M88.3166 17.14L88.3066 17.1583C88.2922 17.1701 88.2752 17.1904 88.2555 17.2191C88.2358 17.2478 88.2193 17.2743 88.206 17.2985C88.1544 17.3926 88.1107 17.5049 88.0748 17.6352C88.0405 17.7625 88.0117 17.9303 87.9883 18.1385L87.6563 21.326L90.1586 19.3756C90.2657 19.2882 90.3816 19.1919 90.5065 19.0866C90.6313 18.9814 90.7311 18.8604 90.806 18.7238C90.8277 18.6844 90.8421 18.6508 90.8493 18.6232C90.8582 18.5926 90.8622 18.571 90.8611 18.5586L90.8711 18.5404L91.6907 18.9897L91.6807 19.0079C91.5944 19.0356 91.468 19.1005 91.3015 19.2027C91.1397 19.3035 90.951 19.4389 90.7354 19.6089L86.9459 22.5355L86.6773 22.3882L87.1069 17.91C87.1255 17.7465 87.1362 17.5865 87.139 17.4302C87.1465 17.2724 87.1481 17.1292 87.1436 17.0004C87.1422 16.8733 87.1378 16.7662 87.1302 16.6792C87.1243 16.5891 87.1188 16.5308 87.1136 16.5043L87.1236 16.4861L88.3166 17.14Z" fill="#43735E"></path><path d="M94.6663 27.4507C94.3686 27.2078 94.1279 26.9332 93.9444 26.627C93.7608 26.3209 93.6457 25.9991 93.5992 25.6619C93.5549 25.3219 93.5848 24.9732 93.6888 24.6157C93.7977 24.2578 93.9922 23.9071 94.2723 23.5638C94.5196 23.2607 94.7993 23.022 95.1113 22.8476C95.4255 22.6706 95.7502 22.5602 96.0853 22.5164C96.4204 22.4726 96.7511 22.4944 97.0773 22.5819C97.4063 22.6716 97.7102 22.8303 97.9892 23.0579C98.2655 23.2833 98.4822 23.5406 98.6395 23.8297C98.7989 24.1162 98.8901 24.4207 98.9129 24.7431C98.9406 25.0651 98.8947 25.4007 98.7751 25.7499C98.6603 26.0986 98.468 26.4465 98.1981 26.7938C97.8994 26.5411 97.5996 26.2898 97.2987 26.0398C96.9978 25.7898 96.6837 25.5313 96.3565 25.2643C96.1231 25.0739 95.894 24.8892 95.6692 24.7102C95.4471 24.5334 95.2453 24.3755 95.0639 24.2364C94.8524 24.5285 94.6896 24.8157 94.5755 25.0979C94.464 25.3823 94.4044 25.6553 94.3964 25.9169C94.3934 26.178 94.4454 26.4237 94.5524 26.654C94.662 26.8865 94.8295 27.0946 95.0548 27.2784C95.2104 27.4054 95.3708 27.5072 95.5361 27.584C95.7062 27.6602 95.8738 27.7121 96.039 27.7397C96.2042 27.7672 96.366 27.7742 96.5246 27.7606C96.6853 27.7443 96.8381 27.7103 96.983 27.6587L97.0116 27.7223L96.1295 28.1955C95.9234 28.1524 95.6978 28.0756 95.4529 27.9651C95.2102 27.852 94.948 27.6805 94.6663 27.4507ZM96.1337 24.5598C96.402 24.7787 96.6702 24.9975 96.9384 25.2164C97.2115 25.4347 97.4613 25.6296 97.6878 25.801C97.8541 25.548 97.9792 25.3016 98.0631 25.0618C98.1471 24.822 98.1893 24.595 98.1897 24.3809C98.1902 24.1668 98.1478 23.9669 98.0625 23.7812C97.9772 23.5954 97.8488 23.4325 97.6771 23.2925C97.5216 23.1655 97.3496 23.0833 97.1613 23.0458C96.9778 23.0078 96.7853 23.0138 96.5837 23.0638C96.382 23.1137 96.1751 23.2085 95.9629 23.3481C95.7529 23.4851 95.5451 23.6685 95.3396 23.8985C95.456 24.0023 95.5812 24.109 95.7153 24.2184C95.8494 24.3278 95.9889 24.4416 96.1337 24.5598Z" fill="#43735E"></path><path d="M102.255 29.6836C102.473 29.4856 102.659 29.3094 102.813 29.155C102.973 29.0009 103.107 28.8651 103.215 28.7477C103.326 28.6329 103.414 28.5317 103.48 28.4442C103.547 28.3592 103.601 28.2845 103.641 28.2202L103.656 28.2063L104.463 29.0938L104.448 29.1078C104.38 29.1413 104.301 29.1878 104.21 29.2472C104.119 29.3065 104.009 29.3847 103.882 29.4816C103.755 29.5784 103.607 29.6988 103.439 29.8428C103.273 29.9844 103.081 30.1541 102.863 30.3521L101.933 31.1974C101.716 31.3954 101.527 31.5715 101.368 31.7256C101.211 31.8775 101.079 32.0121 100.97 32.1294C100.862 32.2468 100.773 32.348 100.706 32.433C100.638 32.518 100.584 32.5926 100.544 32.6569L100.529 32.6709L99.722 31.7834L99.7373 31.7694C99.8051 31.7359 99.8845 31.6894 99.9755 31.63C100.069 31.5732 100.178 31.495 100.303 31.3956C100.43 31.2987 100.577 31.1795 100.743 31.0379C100.913 30.8965 101.108 30.7269 101.326 30.5289L102.255 29.6836ZM104.848 27.1786C104.905 27.1273 104.967 27.0898 105.034 27.0661C105.106 27.0425 105.176 27.0324 105.245 27.0357C105.316 27.0366 105.384 27.0521 105.448 27.0821C105.518 27.1124 105.58 27.157 105.633 27.2159C105.687 27.2748 105.724 27.3391 105.745 27.4087C105.771 27.4786 105.782 27.5489 105.776 27.6197C105.775 27.6907 105.758 27.7597 105.726 27.8268C105.698 27.8941 105.656 27.9534 105.599 28.0046C105.482 28.1117 105.347 28.1617 105.195 28.1545C105.044 28.1473 104.914 28.0848 104.807 27.9669C104.754 27.908 104.714 27.8436 104.688 27.7738C104.667 27.7042 104.658 27.6351 104.661 27.5666C104.667 27.4959 104.683 27.4268 104.711 27.3595C104.744 27.2924 104.789 27.2321 104.848 27.1786Z" fill="#43735E"></path><path d="M108.037 32.6105C108.275 32.4378 108.479 32.2832 108.65 32.1468C108.825 32.0111 108.973 31.8909 109.094 31.7862C109.217 31.6844 109.315 31.5935 109.39 31.5137C109.467 31.4367 109.529 31.3684 109.575 31.309L109.592 31.2968L110.296 32.2679L110.279 32.2801C110.208 32.3059 110.124 32.3434 110.027 32.3923C109.93 32.4413 109.813 32.5069 109.676 32.5892C109.539 32.6715 109.379 32.7748 109.195 32.8993C109.015 33.0217 108.805 33.1693 108.567 33.342L105.57 35.5153C105.331 35.688 105.125 35.8422 104.949 35.9778C104.777 36.1115 104.63 36.2306 104.509 36.3353C104.389 36.44 104.29 36.5308 104.213 36.6078C104.136 36.6848 104.075 36.7531 104.028 36.8126L104.011 36.8248L103.307 35.8536L103.324 35.8415C103.395 35.8156 103.479 35.7782 103.576 35.7292C103.675 35.683 103.792 35.6174 103.927 35.5323C104.064 35.4501 104.223 35.3477 104.404 35.2253C104.589 35.1037 104.801 34.9565 105.039 34.7838L108.037 32.6105Z" fill="#43735E"></path><path d="M109.349 38.795C109.605 38.6497 109.825 38.5186 110.01 38.4019C110.199 38.2864 110.359 38.1834 110.491 38.0927C110.624 38.005 110.732 37.9256 110.815 37.8546C110.9 37.7865 110.969 37.7255 111.022 37.6715L111.04 37.6613L111.633 38.7043L111.614 38.7146C111.541 38.7324 111.453 38.7603 111.351 38.7983C111.25 38.8362 111.126 38.8885 110.981 38.9551C110.835 39.0217 110.665 39.1067 110.469 39.2101C110.276 39.3118 110.051 39.4353 109.795 39.5806L108.703 40.2013C108.447 40.3466 108.224 40.477 108.035 40.5925C107.849 40.7062 107.69 40.8084 107.558 40.8991C107.427 40.9898 107.318 41.0692 107.234 41.1372C107.149 41.2053 107.08 41.2663 107.027 41.3202L107.009 41.3305L106.417 40.2875L106.435 40.2772C106.508 40.2594 106.596 40.2315 106.698 40.1935C106.801 40.1586 106.925 40.1063 107.068 40.0367C107.214 39.9701 107.383 39.8859 107.576 39.7842C107.774 39.6838 108 39.561 108.256 39.4156L109.349 38.795ZM112.429 36.9203C112.495 36.8827 112.564 36.8597 112.634 36.8513C112.71 36.8442 112.781 36.8497 112.847 36.8679C112.916 36.8844 112.979 36.9144 113.035 36.958C113.097 37.0028 113.147 37.0598 113.186 37.129C113.226 37.1983 113.248 37.2692 113.253 37.3418C113.263 37.4156 113.258 37.4865 113.237 37.5543C113.22 37.6233 113.189 37.687 113.142 37.7453C113.1 37.8049 113.046 37.8535 112.98 37.8911C112.842 37.9697 112.699 37.9889 112.553 37.9486C112.407 37.9083 112.294 37.8189 112.216 37.6804C112.176 37.6112 112.151 37.5396 112.141 37.4658C112.136 37.3932 112.142 37.3238 112.161 37.2578C112.182 37.19 112.213 37.1263 112.255 37.0667C112.302 37.0084 112.36 36.9596 112.429 36.9203Z" fill="#43735E"></path><path d="M113.739 47.2638C114.166 47.1005 114.447 46.8948 114.582 46.6467C114.717 46.3987 114.729 46.1308 114.619 45.843C114.579 45.7395 114.512 45.6318 114.418 45.5198C114.326 45.4066 114.217 45.2963 114.091 45.1889C113.968 45.0804 113.832 44.9767 113.683 44.8781C113.534 44.7794 113.381 44.6913 113.226 44.6137L112.587 44.8471L111.413 45.2962C111.138 45.4014 110.899 45.4968 110.694 45.5825C110.493 45.6669 110.32 45.744 110.177 45.8138C110.033 45.8837 109.914 45.9459 109.82 46.0004C109.726 46.0549 109.649 46.1049 109.588 46.1502L109.569 46.1577L109.14 45.0374L109.159 45.0299C109.235 45.0234 109.326 45.009 109.432 44.9868C109.54 44.9678 109.67 44.9348 109.822 44.8875C109.976 44.8436 110.156 44.7858 110.362 44.7143C110.573 44.6449 110.815 44.5575 111.09 44.4524L112.264 44.0033C112.539 43.8981 112.776 43.8017 112.976 43.714C113.18 43.6284 113.354 43.5506 113.498 43.4808C113.643 43.4142 113.762 43.352 113.855 43.2943C113.949 43.2397 114.026 43.1898 114.087 43.1444L114.106 43.137L114.535 44.2573L114.515 44.2647C114.425 44.2698 114.313 44.2883 114.181 44.3204C114.053 44.3545 113.886 44.4018 113.679 44.4624C113.84 44.5529 114.004 44.6531 114.172 44.7629C114.342 44.8761 114.5 44.999 114.647 45.1317C114.797 45.2632 114.931 45.4047 115.049 45.5563C115.169 45.7066 115.261 45.8642 115.324 46.0291C115.421 46.2813 115.459 46.5114 115.438 46.7194C115.419 46.9306 115.359 47.1184 115.259 47.2828C115.16 47.4504 115.028 47.5937 114.862 47.7127C114.701 47.8337 114.526 47.9301 114.339 48.0019L112.69 48.6329C112.415 48.738 112.175 48.8335 111.971 48.9191C111.77 49.0035 111.597 49.0806 111.453 49.1505C111.31 49.2203 111.191 49.2825 111.097 49.337C111.003 49.3916 110.925 49.4415 110.865 49.4869L110.846 49.4943L110.417 48.374L110.436 48.3666C110.512 48.36 110.602 48.3456 110.709 48.3234C110.816 48.3045 110.947 48.2714 111.099 48.2242C111.253 48.1802 111.433 48.1225 111.639 48.051C111.849 47.9815 112.092 47.8942 112.367 47.789L113.739 47.2638Z" fill="#43735E"></path><path d="M110.35 56.2923C110.398 56.5686 110.469 56.7969 110.564 56.9773C110.655 57.1582 110.764 57.3009 110.891 57.4053C111.019 57.5131 111.163 57.5864 111.325 57.6252C111.483 57.6679 111.654 57.6893 111.837 57.6891C112.02 57.6925 112.212 57.6783 112.414 57.6468C112.617 57.6187 112.825 57.586 113.04 57.5486L113.209 57.5193C113.091 57.3676 112.98 57.1797 112.874 56.9556C112.772 56.7309 112.695 56.4702 112.643 56.1735C112.573 55.7676 112.572 55.3883 112.641 55.0355C112.709 54.6827 112.841 54.3683 113.036 54.092C113.231 53.8192 113.484 53.5907 113.797 53.4065C114.112 53.2216 114.48 53.0928 114.9 53.0199C115.285 52.953 115.654 52.9522 116.006 53.0175C116.359 53.0863 116.676 53.2122 116.957 53.3953C117.239 53.5817 117.475 53.82 117.666 54.1101C117.861 54.403 117.992 54.7405 118.058 55.1225C118.086 55.2862 118.099 55.4387 118.095 55.5798C118.092 55.721 118.076 55.8537 118.048 55.978C118.025 56.105 117.991 56.2251 117.948 56.3381C117.908 56.4539 117.863 56.5671 117.812 56.6779L118.181 56.561L118.202 56.5574L118.398 57.6881L118.378 57.6917C118.302 57.6836 118.21 57.6786 118.101 57.6765C117.992 57.6778 117.858 57.6852 117.699 57.6988C117.54 57.7159 117.351 57.7382 117.131 57.7659C116.915 57.7964 116.662 57.8368 116.372 57.8871L112.893 58.4913C112.579 58.5458 112.266 58.5561 111.955 58.5224C111.641 58.4927 111.35 58.3973 111.083 58.2364C110.817 58.0788 110.585 57.8485 110.389 57.5453C110.192 57.2422 110.051 56.8467 109.966 56.359C109.937 56.1884 109.924 56.0132 109.928 55.8334C109.928 55.6541 109.939 55.4818 109.959 55.3167C109.977 55.1521 110.001 55.0019 110.034 54.8663C110.067 54.7306 110.097 54.6217 110.125 54.5395L111.08 54.2103L111.114 54.2886C110.951 54.4013 110.815 54.5391 110.706 54.702C110.595 54.869 110.509 55.0437 110.45 55.2263C110.387 55.4094 110.348 55.5935 110.335 55.7785C110.318 55.9676 110.324 56.1389 110.35 56.2923ZM113.057 56.3388C113.099 56.5844 113.179 56.799 113.295 56.9826C113.412 57.1696 113.537 57.3219 113.67 57.4394L116.217 56.9969C116.408 56.9637 116.58 56.9321 116.733 56.9021C116.89 56.8714 117.031 56.8451 117.157 56.8232C117.269 56.7194 117.363 56.6047 117.44 56.479C117.52 56.356 117.582 56.2276 117.626 56.0935C117.673 55.9623 117.703 55.8306 117.715 55.6985C117.731 55.5658 117.728 55.438 117.707 55.3153C117.662 55.056 117.573 54.8307 117.442 54.6392C117.31 54.4477 117.141 54.2944 116.935 54.1791C116.733 54.0666 116.495 53.9937 116.222 53.9603C115.953 53.9297 115.655 53.9428 115.328 53.9996C114.96 54.0636 114.624 54.1641 114.321 54.301C114.018 54.438 113.762 54.6053 113.554 54.8031C113.35 55.0037 113.202 55.2332 113.11 55.4916C113.021 55.7495 113.003 56.0319 113.057 56.3388Z" fill="#43735E"></path><path d="M116.875 72.6993L115.348 72.4833C115.057 72.4422 114.801 72.4095 114.581 72.3853C114.364 72.3616 114.175 72.3455 114.016 72.3369C113.856 72.3283 113.722 72.3251 113.613 72.3272C113.504 72.3327 113.412 72.3407 113.337 72.3511L113.317 72.3482L113.491 71.1142L113.512 71.1171C113.581 71.1479 113.667 71.1793 113.771 71.2115C113.874 71.2471 114.004 71.2812 114.16 71.3137C114.316 71.3497 114.502 71.3864 114.716 71.4238C114.934 71.4651 115.189 71.5064 115.48 71.5476L116.905 71.749L120.356 69.8927C120.473 69.8289 120.582 69.7638 120.682 69.6976C120.782 69.6348 120.869 69.5737 120.944 69.5144C121.022 69.4555 121.088 69.4018 121.14 69.3533C121.192 69.3047 121.231 69.2665 121.256 69.2385L121.276 69.2415L121.056 70.7994C120.977 70.7882 120.842 70.8024 120.652 70.8418C120.464 70.8851 120.236 70.977 119.967 71.1174L117.42 72.4774L119.598 74.4689C119.676 74.5393 119.755 74.6099 119.836 74.6808C119.917 74.7516 119.995 74.8169 120.071 74.8765C120.146 74.9361 120.216 74.9845 120.281 75.0216C120.345 75.0621 120.401 75.0858 120.449 75.0926L120.307 76.0952L120.287 76.0923C120.232 76.0077 120.149 75.8927 120.037 75.7475C119.928 75.6027 119.777 75.4416 119.586 75.2642L116.875 72.6993Z" fill="#43735E"></path><path d="M114.92 78.9853C115.289 79.1133 115.607 79.3004 115.874 79.5466C116.144 79.7938 116.353 80.0771 116.503 80.3963C116.651 80.7188 116.734 81.0663 116.752 81.4387C116.769 81.8112 116.713 82.1855 116.583 82.5617C116.455 82.9313 116.272 83.2565 116.036 83.5373C115.802 83.8225 115.53 84.0471 115.22 84.211C114.911 84.3749 114.57 84.4695 114.199 84.4947C113.826 84.5232 113.439 84.4678 113.036 84.3285C112.699 84.2118 112.396 84.0407 112.126 83.8153C111.856 83.59 111.641 83.3214 111.482 83.0097C111.322 82.698 111.228 82.3505 111.2 81.9669C111.174 81.5878 111.235 81.1824 111.385 80.7506C111.512 80.3842 111.692 80.0601 111.925 79.7781C112.158 79.4962 112.429 79.2733 112.739 79.1094C113.049 78.9455 113.388 78.8487 113.757 78.8191C114.13 78.7905 114.517 78.846 114.92 78.9853ZM111.704 80.9875C111.623 81.2197 111.596 81.4482 111.62 81.673C111.644 81.9009 111.718 82.1153 111.843 82.316C111.967 82.5167 112.141 82.6994 112.362 82.864C112.583 83.0286 112.851 83.1653 113.165 83.274C113.518 83.3964 113.859 83.472 114.186 83.501C114.516 83.5311 114.817 83.5089 115.088 83.4343C115.361 83.3642 115.599 83.2378 115.802 83.0551C116.004 82.8724 116.158 82.6306 116.262 82.3297C116.342 82.0974 116.37 81.8689 116.345 81.6442C116.324 81.4206 116.253 81.2074 116.133 81.0046C116.011 80.805 115.84 80.6229 115.619 80.4583C115.4 80.2948 115.134 80.1587 114.82 80.0499C114.467 79.9276 114.125 79.8514 113.795 79.8212C113.463 79.7944 113.159 79.8171 112.881 79.8894C112.606 79.9629 112.367 80.0887 112.162 80.267C111.96 80.4496 111.807 80.6898 111.704 80.9875Z" fill="#43735E"></path><path d="M110.147 88.974C109.752 88.7449 109.416 88.6545 109.14 88.7027C108.862 88.754 108.646 88.9129 108.492 89.1795C108.436 89.2753 108.393 89.3945 108.363 89.5368C108.335 89.681 108.318 89.835 108.311 89.999C108.305 90.1677 108.311 90.341 108.328 90.5189C108.343 90.6997 108.371 90.8736 108.41 91.0404C108.494 91.0967 108.583 91.1526 108.679 91.2082C108.778 91.2654 108.883 91.3261 108.994 91.3903L110.081 92.0201C110.336 92.1676 110.56 92.2915 110.754 92.3918C110.949 92.4969 111.119 92.5833 111.264 92.6511C111.407 92.7219 111.53 92.7752 111.633 92.8111C111.735 92.8499 111.822 92.8785 111.895 92.897L111.913 92.9074L111.312 93.9454L111.294 93.935C111.242 93.8806 111.173 93.819 111.089 93.7502C111.005 93.6814 110.898 93.6012 110.767 93.5094C110.636 93.4176 110.476 93.3132 110.288 93.1961C110.103 93.0809 109.883 92.9495 109.628 92.802L108.541 92.1722C108.286 92.0247 108.061 91.8985 107.866 91.7934C107.674 91.6901 107.505 91.6046 107.361 91.5367C107.216 91.4689 107.093 91.4156 106.991 91.3768C106.89 91.338 106.802 91.3093 106.729 91.2909L106.711 91.2805L107.312 90.2425L107.33 90.2529C107.395 90.3142 107.48 90.3877 107.586 90.4734C107.691 90.562 107.835 90.6654 108.019 90.7837C107.985 90.6002 107.959 90.407 107.94 90.2042C107.92 90.0045 107.914 89.8033 107.924 89.6006C107.931 89.401 107.957 89.2079 108.001 89.0214C108.041 88.8361 108.104 88.6671 108.193 88.5143C108.328 88.2807 108.484 88.1049 108.66 87.987C108.835 87.872 109.018 87.8003 109.211 87.7718C109.402 87.7463 109.595 87.7581 109.79 87.8074C109.984 87.8596 110.17 87.9369 110.346 88.0392L111.874 88.9241C112.129 89.0716 112.352 89.1969 112.544 89.3003C112.74 89.4053 112.909 89.4917 113.054 89.5596C113.199 89.6274 113.322 89.6807 113.424 89.7195C113.525 89.7583 113.613 89.7869 113.686 89.8054L113.704 89.8158L113.103 90.8538L113.085 90.8434C113.032 90.789 112.964 90.7274 112.88 90.6587C112.796 90.5899 112.688 90.5096 112.557 90.4178C112.426 90.326 112.267 90.2216 112.078 90.1046C111.893 89.9893 111.673 89.8579 111.419 89.7104L110.147 88.974Z" fill="#43735E"></path><path d="M106.708 97.2555C106.935 97.4428 107.136 97.6019 107.311 97.7327C107.486 97.8684 107.64 97.9816 107.771 98.0723C107.901 98.1657 108.013 98.2385 108.109 98.2908C108.203 98.3458 108.285 98.3884 108.354 98.4186L108.37 98.4319L107.606 99.3569L107.59 99.3437C107.547 99.2717 107.487 99.1913 107.412 99.1025C107.335 99.0164 107.231 98.9121 107.098 98.7895C107.1 98.9566 107.096 99.1266 107.088 99.2995C107.08 99.4724 107.06 99.6403 107.029 99.8031C106.998 99.9659 106.954 100.12 106.896 100.266C106.837 100.414 106.759 100.547 106.662 100.664C106.602 100.737 106.546 100.796 106.494 100.843C106.445 100.892 106.396 100.932 106.347 100.964C106.301 100.998 106.256 101.025 106.211 101.047C106.169 101.071 106.128 101.093 106.089 101.114L105.486 100.286L105.558 100.231C105.702 100.296 105.845 100.313 105.987 100.283C106.132 100.254 106.267 100.164 106.393 100.011C106.461 99.9287 106.518 99.8298 106.563 99.7148C106.609 99.5998 106.644 99.4736 106.667 99.336C106.694 99.2007 106.711 99.0577 106.719 98.907C106.729 98.7584 106.733 98.6093 106.731 98.4594C106.658 98.3902 106.576 98.3181 106.485 98.2432C106.395 98.1683 106.299 98.0889 106.197 98.0052L105.164 97.1523C104.937 96.965 104.736 96.8035 104.561 96.6678C104.388 96.5343 104.236 96.4222 104.104 96.3315C103.973 96.2408 103.86 96.1679 103.766 96.113C103.672 96.058 103.591 96.0154 103.522 95.9851L103.506 95.9719L104.269 95.0468L104.285 95.0601C104.328 95.1224 104.385 95.1943 104.457 95.276C104.527 95.3604 104.62 95.4572 104.736 95.5666C104.85 95.6786 104.989 95.8068 105.152 95.9509C105.317 96.1 105.512 96.2682 105.739 96.4555L106.708 97.2555Z" fill="#43735E"></path><path d="M96.2944 111.326L96.3893 111.263C96.4566 111.314 96.5441 111.363 96.6518 111.412C96.7566 111.462 96.8748 111.496 97.0064 111.512C97.1371 111.532 97.2777 111.528 97.4284 111.497C97.5761 111.469 97.7291 111.402 97.8872 111.296C98.028 111.201 98.1386 111.096 98.2189 110.979C98.2992 110.863 98.3507 110.741 98.3733 110.613C98.3931 110.487 98.386 110.359 98.352 110.227C98.318 110.096 98.2576 109.965 98.1708 109.836C98.0319 109.629 97.8413 109.469 97.599 109.357C97.3558 109.249 97.0848 109.162 96.7859 109.096C96.4871 109.029 96.174 108.973 95.8464 108.926C95.5189 108.879 95.2009 108.815 94.8924 108.734C94.584 108.653 94.2989 108.542 94.0374 108.401C93.7748 108.265 93.5596 108.071 93.3918 107.821C93.2664 107.634 93.1731 107.424 93.1119 107.19C93.0498 106.96 93.0361 106.726 93.0709 106.486C93.1057 106.245 93.1976 106.007 93.3467 105.769C93.4977 105.534 93.7198 105.319 94.013 105.122C94.1769 105.012 94.3441 104.922 94.5148 104.854C94.6807 104.784 94.8414 104.728 94.9968 104.687C95.1513 104.65 95.2962 104.623 95.4315 104.608C95.564 104.594 95.6763 104.587 95.7684 104.588L96.3087 105.607L96.2009 105.68C96.0787 105.566 95.9401 105.471 95.7853 105.396C95.6324 105.323 95.4724 105.274 95.3053 105.249C95.1372 105.228 94.9663 105.235 94.7926 105.268C94.6208 105.304 94.4545 105.376 94.2935 105.484C94.1469 105.582 94.0306 105.692 93.9445 105.812C93.8575 105.937 93.7984 106.066 93.7671 106.2C93.7378 106.336 93.7382 106.474 93.7684 106.612C93.7957 106.752 93.8527 106.887 93.9395 107.016C94.0611 107.197 94.206 107.342 94.3744 107.449C94.5446 107.56 94.7307 107.648 94.9325 107.713C95.1315 107.779 95.3433 107.831 95.5681 107.868C95.79 107.907 96.0163 107.942 96.2468 107.975C96.4793 108.011 96.7108 108.052 96.9413 108.097C97.169 108.144 97.3896 108.209 97.603 108.291C97.8154 108.378 98.0145 108.488 98.2002 108.622C98.3879 108.758 98.554 108.935 98.6987 109.15C98.8511 109.377 98.9449 109.61 98.9802 109.849C99.0146 110.093 99.0033 110.328 98.9464 110.554C98.8866 110.781 98.7878 110.992 98.6502 111.184C98.5125 111.376 98.3459 111.538 98.1504 111.669C98.0067 111.766 97.8668 111.843 97.7306 111.901C97.5944 111.959 97.4683 112.004 97.3522 112.036C97.2333 112.07 97.1273 112.095 97.0342 112.112C96.9411 112.129 96.8648 112.142 96.8053 112.153L96.2944 111.326Z" fill="#43735E"></path><path d="M89.2865 114.987C89.401 115.258 89.5055 115.492 89.6 115.689C89.6926 115.89 89.7763 116.061 89.851 116.203C89.9226 116.345 89.9888 116.462 90.0497 116.553C90.1074 116.645 90.16 116.72 90.2074 116.779L90.2155 116.798L89.1105 117.265L89.1024 117.246C89.0933 117.171 89.0758 117.081 89.05 116.975C89.0241 116.87 88.9866 116.741 88.9374 116.589C88.8882 116.437 88.8236 116.257 88.7438 116.05C88.6653 115.847 88.5688 115.609 88.4542 115.338L87.4477 112.956L86.4758 115.019C86.3026 115.374 86.2497 115.631 86.317 115.79L85.2073 116.259L85.1992 116.24C85.2714 116.18 85.3369 116.112 85.396 116.039C85.4531 115.969 85.5085 115.891 85.5622 115.805C85.6126 115.72 85.6645 115.625 85.7177 115.519C85.7692 115.419 85.8245 115.305 85.8838 115.179L86.7457 113.309L83.8628 111.85C83.7758 111.804 83.6833 111.758 83.5853 111.713C83.4887 111.671 83.3941 111.634 83.3015 111.602C83.209 111.57 83.1214 111.545 83.0387 111.527C82.9561 111.509 82.885 111.506 82.8254 111.516L82.8173 111.497L84.2044 110.911C84.2395 110.993 84.2982 111.07 84.3805 111.141C84.4597 111.212 84.5841 111.293 84.7536 111.383L87.3406 112.703L87.0132 111.928C86.8987 111.657 86.7951 111.421 86.7025 111.219C86.6113 111.021 86.5283 110.851 86.4535 110.71C86.3788 110.569 86.3126 110.452 86.2548 110.36C86.1971 110.268 86.1446 110.192 86.0971 110.133L86.0891 110.114L87.194 109.647L87.2021 109.666C87.2112 109.742 87.2287 109.832 87.2546 109.937C87.2772 110.044 87.3147 110.173 87.3671 110.324C87.4164 110.476 87.4802 110.654 87.5587 110.857C87.6354 111.066 87.731 111.305 87.8455 111.576L89.2865 114.987Z" fill="#43735E"></path><path d="M79.7165 116.057C79.7903 116.342 79.8595 116.589 79.9243 116.797C79.9865 117.01 80.0443 117.192 80.0976 117.342C80.1476 117.494 80.1961 117.619 80.2431 117.718C80.2868 117.817 80.3277 117.9 80.3661 117.965L80.3713 117.985L79.2101 118.286L79.2049 118.265C79.2067 118.19 79.2026 118.098 79.1925 117.99C79.1823 117.882 79.164 117.749 79.1375 117.591C79.111 117.433 79.0733 117.246 79.0244 117.03C78.9765 116.817 78.9156 116.568 78.8418 116.284L78.5268 115.067C78.4531 114.782 78.385 114.533 78.3228 114.321C78.2614 114.111 78.2041 113.931 78.1508 113.781C78.0974 113.63 78.0489 113.505 78.0053 113.405C77.9616 113.306 77.9206 113.223 77.8823 113.158L77.8771 113.138L79.0383 112.837L79.0435 112.857C79.0416 112.933 79.0458 113.025 79.0559 113.133C79.0627 113.242 79.081 113.375 79.1109 113.532C79.1374 113.69 79.1747 113.875 79.2226 114.088C79.2681 114.305 79.3277 114.556 79.4015 114.841L79.7165 116.057ZM80.7255 119.518C80.7446 119.592 80.749 119.664 80.7387 119.735C80.7258 119.81 80.7021 119.877 80.6673 119.936C80.6334 119.998 80.5881 120.051 80.5313 120.094C80.4721 120.142 80.404 120.176 80.3269 120.196C80.2498 120.216 80.1755 120.219 80.1041 120.205C80.0301 120.196 79.9631 120.172 79.9032 120.134C79.8408 120.1 79.7875 120.053 79.7433 119.993C79.6967 119.937 79.6638 119.872 79.6447 119.798C79.6048 119.644 79.6233 119.502 79.7003 119.371C79.7773 119.24 79.8929 119.155 80.047 119.115C80.1241 119.095 80.1996 119.09 80.2736 119.099C80.3451 119.113 80.4104 119.137 80.4694 119.172C80.5294 119.21 80.5827 119.257 80.6293 119.313C80.6735 119.373 80.7055 119.441 80.7255 119.518Z" fill="#43735E"></path><path d="M70.4221 118.089C70.4691 118.544 70.5948 118.869 70.7994 119.063C71.004 119.258 71.2595 119.339 71.5659 119.308C71.6761 119.296 71.7976 119.259 71.9304 119.197C72.0635 119.138 72.1983 119.061 72.3347 118.967C72.4715 118.877 72.6069 118.772 72.7408 118.654C72.8748 118.536 72.9994 118.411 73.1147 118.281L73.0552 117.603L72.926 116.353C72.8958 116.061 72.8658 115.805 72.8362 115.585C72.8069 115.369 72.7771 115.182 72.747 115.025C72.7169 114.868 72.6877 114.737 72.6594 114.632C72.6312 114.527 72.603 114.44 72.5748 114.369L72.5727 114.349L73.7659 114.225L73.768 114.246C73.7548 114.321 73.7451 114.412 73.7389 114.521C73.7293 114.629 73.7275 114.764 73.7336 114.923C73.7361 115.083 73.7452 115.272 73.7607 115.489C73.7732 115.711 73.7945 115.968 73.8248 116.261L73.9539 117.511C73.9842 117.803 74.0156 118.058 74.0484 118.273C74.078 118.493 74.1079 118.681 74.1381 118.838C74.1648 118.996 74.194 119.127 74.2257 119.231C74.2539 119.336 74.2821 119.424 74.3102 119.494L74.3124 119.515L73.1192 119.638L73.1171 119.617C73.1357 119.528 73.1467 119.416 73.1501 119.28C73.1503 119.147 73.148 118.974 73.1432 118.758C73.0141 118.89 72.8747 119.023 72.7249 119.157C72.5717 119.291 72.412 119.412 72.2456 119.519C72.0796 119.631 71.9082 119.723 71.7314 119.797C71.5549 119.874 71.3789 119.922 71.2032 119.94C70.9346 119.968 70.7026 119.945 70.507 119.871C70.308 119.798 70.1422 119.691 70.0094 119.552C69.8732 119.413 69.7692 119.248 69.6973 119.057C69.6222 118.87 69.5744 118.676 69.5538 118.477L69.3723 116.721C69.3421 116.428 69.3121 116.172 69.2825 115.952C69.2532 115.736 69.2234 115.549 69.1933 115.392C69.1632 115.235 69.134 115.104 69.1057 114.999C69.0775 114.894 69.0493 114.807 69.0212 114.737L69.019 114.716L70.2122 114.593L70.2143 114.613C70.2011 114.688 70.1914 114.779 70.1853 114.888C70.1756 114.997 70.1738 115.131 70.1799 115.29C70.1825 115.45 70.1915 115.639 70.207 115.856C70.2195 116.078 70.2408 116.335 70.2711 116.628L70.4221 118.089Z" fill="#43735E"></path><path d="M63.2815 122.311C63.2966 122.288 63.3122 122.255 63.3282 122.215C63.3408 122.174 63.3563 122.112 63.3746 122.03C63.3927 121.951 63.4139 121.847 63.4382 121.716C63.4624 121.589 63.4937 121.426 63.5321 121.227C63.5669 121.032 63.6091 120.795 63.6587 120.516C63.7083 120.238 63.7675 119.912 63.8361 119.538L64.0695 119.55C64.0974 119.933 64.123 120.264 64.1461 120.543C64.1657 120.825 64.1822 121.065 64.1958 121.263C64.2093 121.465 64.2229 121.63 64.2368 121.759C64.247 121.891 64.2569 121.998 64.2664 122.078C64.2758 122.162 64.2863 122.225 64.2979 122.267C64.306 122.309 64.3146 122.342 64.3237 122.367L64.3231 122.377L63.2809 122.321L63.2815 122.311Z" fill="#43735E"></path><path d="M55.1228 118.265L55.1961 118.269C55.2038 118.352 55.2258 118.443 55.2619 118.542C55.2947 118.641 55.3458 118.736 55.4152 118.828C55.4813 118.92 55.5688 119.001 55.6777 119.073C55.7825 119.148 55.9113 119.201 56.0638 119.232C56.169 119.254 56.2721 119.259 56.3734 119.248C56.4712 119.236 56.562 119.207 56.6457 119.161C56.7254 119.117 56.7946 119.055 56.8534 118.975C56.9122 118.896 56.9538 118.796 56.9782 118.678C57.0123 118.511 56.9942 118.342 56.9238 118.168C56.8494 117.997 56.7495 117.821 56.6241 117.64C56.4981 117.462 56.3605 117.28 56.2115 117.094C56.059 116.907 55.9215 116.716 55.799 116.522C55.6764 116.327 55.5834 116.126 55.52 115.918C55.4525 115.714 55.4407 115.504 55.4846 115.291C55.5201 115.118 55.5855 114.955 55.6806 114.801C55.7751 114.651 55.9 114.524 56.0554 114.422C56.2073 114.319 56.3917 114.247 56.6084 114.207C56.8211 114.169 57.0648 114.179 57.3395 114.235C57.5023 114.269 57.6517 114.315 57.7879 114.375C57.9206 114.434 58.0418 114.498 58.1515 114.566C58.257 114.638 58.3517 114.71 58.4355 114.784C58.5152 114.86 58.5854 114.931 58.6462 114.997L58.3968 115.953L58.3154 115.936C58.3142 115.77 58.2933 115.613 58.2527 115.467C58.212 115.321 58.1523 115.19 58.0735 115.075C57.9905 114.963 57.8902 114.866 57.7725 114.785C57.6541 114.708 57.5186 114.654 57.366 114.622C57.1151 114.571 56.9024 114.6 56.728 114.709C56.5503 114.817 56.4384 114.983 56.3924 115.207C56.3555 115.387 56.3726 115.562 56.4437 115.732C56.5106 115.904 56.6062 116.076 56.7302 116.246C56.8542 116.417 56.9901 116.59 57.1379 116.765C57.2823 116.939 57.4147 117.12 57.5353 117.308C57.6551 117.498 57.7468 117.698 57.8102 117.905C57.8695 118.115 57.8745 118.34 57.825 118.581C57.7846 118.778 57.7121 118.95 57.6074 119.098C57.4987 119.249 57.368 119.369 57.2155 119.458C57.0589 119.549 56.8841 119.609 56.6911 119.636C56.4981 119.664 56.2948 119.656 56.0812 119.612C55.7998 119.554 55.572 119.475 55.3981 119.376C55.22 119.279 55.0874 119.194 55.0002 119.119L55.1228 118.265Z" fill="#43735E"></path><path d="M39.2977 115.71C39.6535 115.911 39.9839 116.075 40.2891 116.204C40.5926 116.335 40.8585 116.441 41.087 116.523C41.3537 116.613 41.5974 116.685 41.8179 116.738L41.2735 117.397C41.239 117.373 41.1864 117.34 41.1158 117.296C41.0451 117.252 40.9669 117.204 40.8812 117.152C40.7924 117.098 40.7006 117.042 40.6058 116.984C40.5063 116.928 40.4137 116.874 40.328 116.822C40.2405 116.772 40.1645 116.728 40.0999 116.687C40.0305 116.648 39.9808 116.62 39.9506 116.603L37.3681 115.146C37.3379 115.129 37.2897 115.102 37.2233 115.065C37.1523 115.029 37.073 114.986 36.9856 114.937C36.8964 114.89 36.8036 114.84 36.7071 114.785C36.6059 114.732 36.5108 114.683 36.4216 114.636C36.3295 114.588 36.2463 114.545 36.1723 114.508C36.0982 114.47 36.0422 114.442 36.0044 114.425L36.2865 113.618C36.4488 113.781 36.6379 113.953 36.8536 114.135C37.0412 114.288 37.2698 114.461 37.5392 114.653C37.8069 114.847 38.1187 115.045 38.4745 115.246L40.9108 110.926C41.0554 110.67 41.1791 110.444 41.2819 110.247C41.38 110.052 41.4637 109.883 41.5329 109.739C41.599 109.594 41.6509 109.47 41.6886 109.368C41.7232 109.264 41.7494 109.176 41.767 109.102L41.7772 109.084L42.8581 109.694L42.8479 109.712C42.7941 109.765 42.7333 109.834 42.6655 109.919C42.5977 110.004 42.5187 110.112 42.4284 110.244C42.3381 110.376 42.2364 110.535 42.1232 110.722C42.0083 110.911 41.8786 111.134 41.734 111.391L39.2977 115.71Z" fill="#43735E"></path><path d="M33.9613 108.038C33.7787 108.269 33.6237 108.473 33.4965 108.65C33.3643 108.828 33.2543 108.984 33.1663 109.117C33.0756 109.249 33.005 109.363 32.9547 109.46C32.9017 109.555 32.8607 109.637 32.8319 109.707L32.819 109.723L31.8786 108.979L31.8915 108.962C31.9529 108.918 32.0237 108.86 32.1039 108.786C32.1841 108.713 32.279 108.618 32.3887 108.502C32.4984 108.385 32.6248 108.243 32.7677 108.073C32.9086 107.907 33.0703 107.708 33.253 107.477L34.0331 106.492C34.2158 106.261 34.3731 106.057 34.5053 105.879C34.6352 105.704 34.7442 105.549 34.8322 105.416C34.9202 105.282 34.9907 105.168 35.0438 105.073C35.0968 104.979 35.1378 104.896 35.1666 104.826L35.1795 104.81L36.1199 105.555L36.107 105.571C36.0456 105.615 35.9748 105.674 35.8946 105.747C35.8117 105.818 35.7168 105.913 35.6098 106.032C35.5 106.148 35.3748 106.289 35.234 106.456C35.0883 106.623 34.9241 106.822 34.7414 107.053L33.9613 108.038ZM31.8097 110.931C31.7624 110.991 31.7075 111.038 31.6449 111.072C31.5775 111.107 31.5098 111.129 31.4417 111.136C31.3715 111.147 31.302 111.143 31.2332 111.124C31.1596 111.105 31.0916 111.071 31.0291 111.022C30.9667 110.972 30.9194 110.915 30.8872 110.85C30.8501 110.785 30.8287 110.717 30.8229 110.646C30.8123 110.576 30.8176 110.505 30.8389 110.434C30.8553 110.363 30.8871 110.298 30.9344 110.238C31.0332 110.113 31.1581 110.042 31.3088 110.024C31.4596 110.007 31.5974 110.048 31.7222 110.146C31.7846 110.196 31.8344 110.253 31.8715 110.318C31.9037 110.383 31.9238 110.45 31.9317 110.518C31.9374 110.588 31.9321 110.659 31.9157 110.73C31.8944 110.802 31.8591 110.869 31.8097 110.931Z" fill="#43735E"></path><path d="M26.6613 101.825C26.4895 101.976 26.3571 102.124 26.264 102.27C26.1687 102.413 26.1104 102.554 26.089 102.692C26.0627 102.831 26.0712 102.964 26.1142 103.092C26.1547 103.222 26.2252 103.344 26.3256 103.459C26.394 103.537 26.4861 103.61 26.6018 103.679C26.7174 103.748 26.8482 103.811 26.9942 103.867C27.1352 103.923 27.2865 103.972 27.4481 104.015C27.6074 104.055 27.7673 104.085 27.9279 104.105C28.0157 104.037 28.1078 103.961 28.2042 103.877C28.2979 103.795 28.3994 103.706 28.5088 103.61L29.4538 102.782C29.6751 102.588 29.8668 102.415 30.0288 102.264C30.1883 102.115 30.3233 101.983 30.434 101.867C30.5446 101.752 30.6346 101.652 30.7039 101.569C30.7731 101.485 30.8283 101.411 30.8693 101.348L30.8849 101.334L31.6755 102.236L31.6599 102.25C31.5915 102.282 31.5113 102.327 31.4192 102.385C31.3248 102.44 31.2143 102.516 31.0877 102.613C30.9588 102.708 30.8101 102.824 30.6415 102.963C30.468 103.101 30.2706 103.267 30.0493 103.461L29.1043 104.289C28.883 104.483 28.6938 104.656 28.5366 104.808C28.3746 104.959 28.2382 105.092 28.1276 105.208C28.0147 105.32 27.9247 105.42 27.8577 105.506C27.7884 105.59 27.7332 105.664 27.6923 105.727L27.6766 105.741L26.886 104.839L26.9016 104.825C26.9798 104.793 27.0714 104.743 27.1765 104.674C27.2768 104.604 27.4029 104.515 27.5549 104.404C27.3803 104.373 27.2002 104.333 27.0145 104.284C26.8289 104.235 26.65 104.176 26.478 104.105C26.3037 104.033 26.1412 103.949 25.9903 103.856C25.8394 103.763 25.7093 103.654 25.5997 103.529C25.4697 103.38 25.374 103.232 25.3126 103.083C25.2513 102.934 25.2168 102.787 25.2092 102.642C25.2016 102.497 25.2182 102.355 25.2592 102.218C25.2978 102.079 25.3555 101.947 25.4323 101.825C25.2476 101.798 25.0562 101.761 24.8582 101.714C24.6553 101.666 24.4605 101.606 24.2738 101.535C24.0849 101.461 23.9078 101.375 23.7426 101.276C23.5751 101.174 23.4332 101.057 23.3168 100.924C23.1389 100.721 23.0234 100.518 22.9705 100.316C22.9153 100.111 22.9062 99.9144 22.9431 99.7255C22.9778 99.534 23.0523 99.3536 23.1664 99.1845C23.2757 99.0151 23.4059 98.8642 23.5569 98.7319L24.8846 97.5682C25.1059 97.3742 25.2976 97.2016 25.4596 97.0504C25.6191 96.9014 25.7541 96.7693 25.8648 96.6539C25.9754 96.5385 26.0653 96.439 26.1346 96.3552C26.2017 96.2689 26.2557 96.1939 26.2966 96.1304L26.3123 96.1167L27.1063 97.0227L27.0907 97.0364C27.0223 97.0687 26.9421 97.1137 26.85 97.1714C26.7556 97.2265 26.6439 97.3013 26.5151 97.3959C26.3862 97.4904 26.2374 97.607 26.0689 97.7455C25.8977 97.8863 25.7014 98.0537 25.4801 98.2477L24.375 99.2163C24.0313 99.5175 23.8393 99.8078 23.7988 100.087C23.7583 100.367 23.8396 100.622 24.0427 100.854C24.1134 100.935 24.2078 101.011 24.3257 101.082C24.4414 101.151 24.5722 101.214 24.7181 101.27C24.8641 101.326 25.0191 101.375 25.1833 101.415C25.3448 101.457 25.5059 101.489 25.6665 101.509C25.6932 101.477 25.7221 101.447 25.7534 101.419C25.7846 101.392 25.8145 101.366 25.8432 101.341L27.1709 100.177C27.3922 99.9829 27.5839 99.8103 27.7459 99.659C27.9031 99.5075 28.0382 99.3753 28.1511 99.2625C28.2617 99.1472 28.3517 99.0476 28.421 98.9638C28.488 98.8775 28.542 98.8025 28.583 98.739L28.5986 98.7253L29.3892 99.6274L29.3736 99.6411C29.3052 99.6734 29.225 99.7184 29.1329 99.7761C29.0408 99.8338 28.9303 99.91 28.8014 100.005C28.6725 100.099 28.5237 100.216 28.3552 100.354C28.184 100.495 27.9877 100.662 27.7665 100.856L26.6613 101.825Z" fill="#43735E"></path><path d="M22.701 90.4972C22.8849 90.8346 23.0041 91.1797 23.0585 91.5325C23.1129 91.8853 23.098 92.2267 23.0137 92.5565C22.9264 92.8881 22.7671 93.1997 22.5358 93.4915C22.2998 93.7818 21.9873 94.0331 21.5983 94.2452C21.2549 94.4325 20.9058 94.548 20.551 94.5916C20.1932 94.6369 19.8509 94.6165 19.5241 94.5306C19.1972 94.4446 18.8993 94.2996 18.6302 94.0954C18.3594 93.8881 18.1379 93.6265 17.9655 93.3104C17.7948 92.9973 17.6912 92.6773 17.6548 92.3501C17.6153 92.0247 17.6458 91.7083 17.7464 91.4011C17.8423 91.0925 18.0116 90.7991 18.2542 90.5209C18.4921 90.2413 18.8015 89.9917 19.1826 89.7721C19.3638 90.1189 19.5465 90.4648 19.7308 90.8099C19.915 91.155 20.1082 91.5129 20.3104 91.8837C20.4546 92.1481 20.597 92.4056 20.7377 92.6562C20.8766 92.9038 21.0038 93.1262 21.1193 93.3235C21.4254 93.1329 21.6846 92.9285 21.8968 92.7102C22.1073 92.4889 22.2657 92.2586 22.3718 92.0194C22.4732 91.7788 22.5178 91.5316 22.5057 91.278C22.4919 91.0213 22.4154 90.7653 22.2762 90.5101C22.18 90.3338 22.07 90.1789 21.9459 90.0455C21.8172 89.9106 21.6815 89.7993 21.539 89.7114C21.3964 89.6235 21.2492 89.556 21.0972 89.5087C20.9422 89.4631 20.7879 89.4368 20.6343 89.4299L20.6318 89.3603L21.6273 89.2551C21.8019 89.3728 21.9817 89.5291 22.1668 89.7239C22.3489 89.9203 22.5269 90.1781 22.701 90.4972ZM20.2507 92.6201C20.085 92.3162 19.9192 92.0123 19.7535 91.7084C19.583 91.4031 19.4253 91.1283 19.2803 90.884C19.0308 91.0556 18.8219 91.2365 18.6536 91.4269C18.4853 91.6172 18.3606 91.8114 18.2793 92.0095C18.1981 92.2076 18.1619 92.4087 18.1707 92.6129C18.1795 92.8171 18.237 93.0164 18.3431 93.211C18.4392 93.3872 18.5674 93.5283 18.7276 93.6341C18.8831 93.7386 19.0637 93.8057 19.2692 93.8356C19.4748 93.8654 19.7022 93.8558 19.9514 93.8066C20.1976 93.7591 20.4592 93.6677 20.7363 93.5323C20.6678 93.3922 20.5921 93.2462 20.5093 93.0943C20.4264 92.9423 20.3402 92.7843 20.2507 92.6201Z" fill="#43735E"></path><path d="M14.2173 86.3917C13.9408 86.4923 13.7019 86.5848 13.5005 86.6691C13.2947 86.7514 13.1193 86.8263 12.9744 86.8938C12.8283 86.958 12.7084 87.0182 12.6146 87.0744C12.5197 87.1274 12.4417 87.1761 12.3804 87.2205L12.3609 87.2276L11.9507 86.1004L11.9702 86.0933C12.0456 86.0879 12.1367 86.075 12.2435 86.0546C12.3502 86.0342 12.4808 86.0032 12.6352 85.9618C12.7896 85.9203 12.972 85.8649 13.1826 85.7957C13.3899 85.7276 13.6318 85.6432 13.9083 85.5426L17.3875 84.2764C17.664 84.1757 17.9052 84.0843 18.111 84.002C18.3136 83.9209 18.4873 83.8466 18.6322 83.7791C18.7771 83.7116 18.897 83.6514 18.992 83.5985C19.0869 83.5455 19.165 83.4968 19.2262 83.4524L19.2457 83.4453L19.6559 84.5725L19.6364 84.5796C19.561 84.585 19.4699 84.5979 19.3631 84.6183C19.2552 84.6355 19.1246 84.6664 18.9714 84.7111C18.8171 84.7526 18.6362 84.8073 18.4289 84.8754C18.2171 84.9414 17.973 85.0248 17.6965 85.1254L14.2173 86.3917Z" fill="#43735E"></path><path d="M17.3658 76.9696C17.4414 77.3463 17.4529 77.7112 17.4001 78.0643C17.3474 78.4174 17.2319 78.7389 17.0535 79.0289C16.8717 79.3196 16.6271 79.5699 16.3197 79.7799C16.0082 79.9872 15.6352 80.1344 15.2008 80.2216C14.8172 80.2986 14.4496 80.3052 14.0979 80.2416C13.7428 80.1787 13.4219 80.0577 13.1353 79.8787C12.8487 79.6996 12.6072 79.4727 12.4108 79.1978C12.2137 78.9196 12.0798 78.604 12.009 78.251C11.9388 77.9014 11.9349 77.565 11.9971 77.2418C12.056 76.9193 12.179 76.6262 12.3662 76.3627C12.5494 76.0964 12.7981 75.8665 13.1123 75.6728C13.4224 75.4764 13.792 75.3298 14.221 75.2332C14.2912 75.6181 14.3631 76.0026 14.4366 76.3869C14.5102 76.7711 14.5885 77.1702 14.6716 77.5843C14.7309 77.8796 14.7904 78.1678 14.8504 78.4488C14.9096 78.7265 14.9651 78.9766 15.0168 79.1993C15.3657 79.1081 15.6739 78.9897 15.9413 78.8443C16.208 78.6954 16.4275 78.5225 16.5999 78.3255C16.7681 78.1258 16.8841 77.903 16.9477 77.6572C17.0107 77.408 17.0136 77.1409 16.9564 76.8558C16.9169 76.6589 16.8577 76.4783 16.7788 76.3141C16.6959 76.1471 16.5994 76.0005 16.4894 75.8743C16.3793 75.7481 16.2587 75.6399 16.1276 75.5497C15.9931 75.4602 15.8536 75.3893 15.7089 75.3371L15.7272 75.2699L16.7091 75.4648C16.8409 75.629 16.9663 75.8316 17.0852 76.0725C17.2008 76.3142 17.2943 76.6132 17.3658 76.9696ZM14.3961 78.2699C14.3279 77.9304 14.2598 77.591 14.1917 77.2516C14.1196 76.9095 14.0504 76.6003 13.9844 76.324C13.6953 76.4138 13.4421 76.5246 13.2249 76.6565C13.0077 76.7883 12.831 76.9368 12.6946 77.1018C12.5583 77.2669 12.464 77.4482 12.4119 77.6458C12.3597 77.8434 12.3554 78.0508 12.399 78.2681C12.4385 78.4649 12.5191 78.6377 12.6407 78.7863C12.7582 78.9322 12.9107 79.0499 13.0982 79.1394C13.2856 79.2289 13.5056 79.2871 13.7582 79.3141C14.0074 79.3418 14.2844 79.3321 14.5892 79.2851C14.5653 79.131 14.5363 78.9691 14.5023 78.7994C14.4682 78.6296 14.4328 78.4531 14.3961 78.2699Z" fill="#43735E"></path><path d="M11.8139 67.9704L11.8255 68.0429C11.7463 68.0685 11.6622 68.1098 11.5732 68.1667C11.4841 68.2202 11.4022 68.2909 11.3275 68.3787C11.2528 68.4631 11.1923 68.5663 11.1459 68.6882C11.096 68.8068 11.0724 68.944 11.075 69.0997C11.0769 69.207 11.0942 69.3089 11.127 69.4053C11.1598 69.4982 11.208 69.5805 11.2715 69.6521C11.3315 69.7203 11.4069 69.7744 11.4976 69.8144C11.5883 69.8544 11.6943 69.8733 11.8154 69.8712C11.985 69.8683 12.1468 69.8136 12.3008 69.7071C12.4512 69.5972 12.6012 69.4613 12.7508 69.2995C12.8969 69.1377 13.0445 68.9637 13.1937 68.7777C13.3427 68.5882 13.499 68.4124 13.6624 68.2503C13.8258 68.0882 14.0018 67.9536 14.1904 67.8465C14.3754 67.736 14.577 67.6788 14.7951 67.6751C14.9716 67.6721 15.1452 67.7002 15.3159 67.7596C15.4831 67.8191 15.6336 67.9134 15.7674 68.0427C15.9011 68.1685 16.0113 68.3328 16.0979 68.5356C16.1809 68.735 16.2249 68.9749 16.2297 69.2552C16.2325 69.4214 16.2196 69.5774 16.191 69.7233C16.1623 69.8658 16.1265 69.998 16.0835 70.1199C16.0371 70.2384 15.987 70.3466 15.9333 70.4444C15.8761 70.5389 15.8221 70.6229 15.7715 70.6965L14.7841 70.6616L14.7827 70.5785C14.9447 70.5411 15.0927 70.4866 15.2265 70.4151C15.3603 70.3435 15.4748 70.2567 15.57 70.1547C15.6617 70.0492 15.734 69.9303 15.7872 69.7978C15.8368 69.6654 15.8603 69.5213 15.8576 69.3655C15.8532 69.1094 15.7788 68.9081 15.6343 68.7617C15.4898 68.6118 15.3033 68.5389 15.0749 68.5428C14.8914 68.546 14.7244 68.6008 14.5739 68.7072C14.4199 68.8103 14.2732 68.9409 14.134 69.0991C13.9948 69.2573 13.8557 69.4276 13.7169 69.61C13.578 69.789 13.4303 69.9577 13.2738 70.1162C13.1138 70.2748 12.9395 70.4076 12.7509 70.5147C12.5588 70.6184 12.3399 70.6724 12.0941 70.6766C11.8934 70.6801 11.7093 70.6469 11.5419 70.5771C11.371 70.5038 11.2255 70.4025 11.1056 70.2729C10.9821 70.14 10.8859 69.9824 10.817 69.8001C10.7481 69.6178 10.7118 69.4176 10.708 69.1995C10.7031 68.9122 10.7301 68.6729 10.7892 68.4814C10.8447 68.2866 10.8993 68.1385 10.9529 68.0372L11.8139 67.9704Z" fill="#43735E"></path><path d="M12.2953 58.6283L12.2941 58.7017C12.2116 58.7132 12.1216 58.7392 12.024 58.7797C11.927 58.8169 11.8341 58.8722 11.7452 58.9457C11.657 59.0158 11.5794 59.1068 11.5125 59.2189C11.4427 59.327 11.3956 59.4579 11.3711 59.6118C11.3542 59.7178 11.3536 59.8211 11.3691 59.9217C11.3852 60.0189 11.4183 60.1083 11.4684 60.1899C11.5157 60.2675 11.5805 60.3339 11.6628 60.3891C11.7452 60.4442 11.8462 60.4813 11.9659 60.5004C12.1334 60.527 12.3022 60.5013 12.4724 60.4232C12.6397 60.3412 12.8111 60.2335 12.9865 60.1001C13.1585 59.9663 13.3342 59.8207 13.5134 59.6634C13.6932 59.5027 13.8777 59.3568 14.0668 59.2257C14.2559 59.0945 14.4527 58.9926 14.657 58.9199C14.8585 58.8433 15.067 58.8222 15.2823 58.8564C15.4567 58.8842 15.6227 58.9421 15.7805 59.0303C15.9348 59.118 16.0666 59.2371 16.1758 59.3877C16.2856 59.5348 16.3655 59.7158 16.4154 59.9306C16.4625 60.1414 16.464 60.3852 16.42 60.6622C16.3939 60.8263 16.354 60.9777 16.3004 61.1164C16.2473 61.2516 16.189 61.3756 16.1256 61.4882C16.0592 61.5968 15.9911 61.6946 15.9211 61.7816C15.8483 61.8647 15.7806 61.938 15.7179 62.0017L14.7517 61.7954L14.7647 61.7133C14.9308 61.7047 15.086 61.6768 15.2302 61.6296C15.3744 61.5825 15.5023 61.5169 15.6138 61.433C15.7224 61.3452 15.8144 61.2406 15.8898 61.1194C15.9617 60.9976 16.01 60.8598 16.0344 60.706C16.0747 60.453 16.0364 60.2418 15.9196 60.0725C15.8034 59.8998 15.6325 59.7955 15.4068 59.7596C15.2256 59.7308 15.0516 59.7557 14.8849 59.8343C14.7153 59.909 14.5481 60.0121 14.3835 60.1436C14.2188 60.2752 14.0523 60.4187 13.8838 60.5742C13.7159 60.7262 13.5411 60.8667 13.3593 60.9955C13.1742 61.1238 12.9794 61.2242 12.7751 61.2969C12.5678 61.3656 12.3429 61.3806 12.1001 61.342C11.9018 61.3104 11.7263 61.2457 11.5737 61.1478C11.4181 61.0459 11.2925 60.9208 11.197 60.7724C11.0985 60.62 11.0312 60.4481 10.9951 60.2565C10.959 60.065 10.9581 59.8615 10.9923 59.6461C11.0375 59.3624 11.1058 59.1314 11.1972 58.9531C11.2858 58.7709 11.3653 58.6346 11.4358 58.5442L12.2953 58.6283Z" fill="#43735E"></path><path d="M14.7155 45.0518C14.4531 44.9187 14.223 44.806 14.0253 44.7136C13.8246 44.6196 13.6501 44.5427 13.5018 44.4831C13.3504 44.4219 13.2221 44.3763 13.117 44.3463C13.0135 44.3132 12.9246 44.2895 12.8504 44.2751L12.8318 44.2657C12.8662 44.2055 12.9006 44.1415 12.9351 44.0736C12.9679 44.0165 13.0023 43.9524 13.0383 43.8814C13.0759 43.8073 13.1142 43.7316 13.1534 43.6544C13.2097 43.5433 13.2748 43.388 13.3487 43.1887C13.4241 42.9863 13.5378 42.7354 13.6896 42.4359C13.8305 42.158 13.9974 41.9205 14.1905 41.7234C14.3805 41.5247 14.5864 41.3749 14.8084 41.2739C15.0319 41.1699 15.2683 41.1209 15.5175 41.1269C15.7652 41.1283 16.0157 41.1931 16.2689 41.3215C16.4819 41.4295 16.6585 41.5559 16.7986 41.7006C16.9356 41.8438 17.04 42.0015 17.1118 42.1738C17.1821 42.3414 17.2221 42.5227 17.2319 42.7179C17.2401 42.9083 17.2235 43.1056 17.1821 43.3098C17.3553 43.0677 17.5446 42.8628 17.7499 42.6952C17.9521 42.526 18.1633 42.4002 18.3836 42.3178C18.6055 42.2324 18.8333 42.1965 19.067 42.2101C19.2991 42.2192 19.531 42.2824 19.7626 42.3998C20.4141 42.73 20.7947 43.1927 20.9045 43.7879C21.0111 44.3814 20.8476 45.1058 20.4141 45.9611C20.3671 46.0538 20.3077 46.1595 20.2358 46.2783C20.167 46.3987 20.0951 46.5214 20.0201 46.6464C19.9467 46.7683 19.874 46.8886 19.8021 47.0074C19.7334 47.1278 19.6755 47.2343 19.6285 47.3269L19.4736 47.6326L19.455 47.6232C19.3996 47.5718 19.3279 47.5142 19.24 47.4502C19.1537 47.3832 19.0426 47.3075 18.9069 47.2231C18.7711 47.1387 18.6075 47.0442 18.4161 46.9394C18.2216 46.833 17.9932 46.7133 17.7307 46.5803L14.7155 45.0518ZM17.1195 44.1338C17.0131 44.3438 16.9316 44.5237 16.875 44.6736C16.8185 44.8235 16.7783 44.9409 16.7546 45.0259L18.158 45.7373C18.5193 45.9205 18.8204 46.0653 19.0613 46.172C19.3022 46.2786 19.5023 46.3586 19.6615 46.4121C19.7364 46.3026 19.8098 46.1923 19.8816 46.0813C19.9534 45.9702 20.0073 45.8792 20.0433 45.8081C20.336 45.2307 20.4216 44.7443 20.2999 44.3488C20.1767 43.9487 19.848 43.6133 19.3138 43.3425C19.1039 43.236 18.896 43.1714 18.6902 43.1486C18.4829 43.1211 18.2839 43.1386 18.0931 43.201C17.9039 43.2604 17.7268 43.3685 17.5618 43.5255C17.3953 43.6779 17.2479 43.8807 17.1195 44.1338ZM16.3378 44.8146C16.3909 44.7328 16.4362 44.6588 16.4737 44.5924C16.5081 44.5245 16.5449 44.4519 16.5841 44.3747C16.6905 44.1648 16.7582 43.9585 16.7872 43.7558C16.8131 43.5516 16.7964 43.3587 16.737 43.1773C16.6792 42.9927 16.5779 42.8211 16.4333 42.6624C16.2856 42.5021 16.0913 42.3609 15.8504 42.2388C15.6497 42.1371 15.455 42.0694 15.2663 42.0359C15.0776 42.0023 14.9011 42.006 14.7368 42.0469C14.5709 42.0831 14.4211 42.1566 14.2874 42.2673C14.1536 42.378 14.0405 42.5245 13.9482 42.7067C13.8887 42.824 13.8409 42.9298 13.8048 43.024C13.7702 43.1152 13.7435 43.1948 13.7245 43.2628C13.7008 43.3401 13.6858 43.4081 13.6792 43.4669L16.3378 44.8146Z" fill="#43735E"></path><path d="M25.7126 37.0313C25.4752 37.3334 25.2051 37.5791 24.9023 37.7682C24.5996 37.9574 24.28 38.0783 23.9436 38.131C23.6045 38.1815 23.2553 38.158 22.896 38.0606C22.5361 37.9583 22.182 37.7702 21.8336 37.4964C21.526 37.2547 21.2822 36.9795 21.1022 36.6707C20.9195 36.3598 20.8031 36.0372 20.7532 35.7029C20.7032 35.3687 20.719 35.0377 20.8005 34.7099C20.8842 34.3793 21.0372 34.0725 21.2597 33.7895C21.48 33.5091 21.7333 33.2877 22.0195 33.1251C22.303 32.9605 22.6057 32.8638 22.9277 32.835C23.2491 32.8014 23.5855 32.8412 23.9368 32.9544C24.2876 33.0628 24.639 33.2487 24.9911 33.5122C24.744 33.8155 24.4982 34.1198 24.2537 34.4253C24.0093 34.7307 23.7566 35.0494 23.4956 35.3815C23.3095 35.6183 23.1291 35.8507 22.9542 36.0788C22.7816 36.3041 22.6274 36.5088 22.4916 36.6927C22.7875 36.8988 23.0776 37.0563 23.3619 37.1653C23.6483 37.2714 23.9223 37.3261 24.184 37.3292C24.4452 37.3275 24.6899 37.2711 24.9181 37.1599C25.1486 37.0459 25.3536 36.8747 25.5333 36.646C25.6573 36.4882 25.7562 36.3259 25.8299 36.1593C25.9031 35.9878 25.9519 35.8192 25.9764 35.6536C26.0009 35.4879 26.0049 35.326 25.9884 35.1677C25.9692 35.0073 25.9324 34.8551 25.8782 34.7112L25.9412 34.6815L26.4305 35.5547C26.3912 35.7616 26.3186 35.9885 26.2126 36.2354C26.1039 36.4802 25.9372 36.7455 25.7126 37.0313ZM22.7953 35.6171C23.0092 35.3449 23.2232 35.0727 23.4371 34.8005C23.6504 34.5235 23.8407 34.2702 24.0079 34.0405C23.7518 33.8789 23.5032 33.7584 23.2619 33.6788C23.0206 33.5993 22.7929 33.5612 22.5788 33.5647C22.3648 33.5682 22.1657 33.6143 21.9815 33.7029C21.7974 33.7916 21.6369 33.923 21.5 34.0972C21.3759 34.255 21.2968 34.4285 21.2628 34.6175C21.2282 34.8016 21.2377 34.994 21.2913 35.1946C21.345 35.3953 21.4435 35.6004 21.587 35.8101C21.7278 36.0175 21.915 36.2219 22.1487 36.4232C22.2504 36.305 22.3547 36.1778 22.4616 36.0417C22.5686 35.9056 22.6798 35.7641 22.7953 35.6171Z" fill="#43735E"></path><path d="M28.7685 30.745C28.5883 30.5393 28.4737 30.3244 28.4248 30.1003C28.3785 29.874 28.3788 29.6459 28.426 29.416C28.4731 29.186 28.558 28.9598 28.6807 28.7373C28.8011 28.5123 28.9417 28.2971 29.1025 28.0919C29.261 27.884 29.4283 27.6915 29.6044 27.5142C29.7782 27.3344 29.9421 27.1748 30.0961 27.0353L29.9216 26.8361C29.7711 26.6642 29.619 26.5351 29.4652 26.4489C29.3115 26.3627 29.1589 26.3145 29.0074 26.3045C28.8537 26.2919 28.7025 26.3162 28.5537 26.3775C28.4052 26.4339 28.2632 26.5214 28.1278 26.64C28.034 26.7221 27.9484 26.8109 27.871 26.9063C27.7935 27.0018 27.7212 27.1111 27.6542 27.2342C27.5898 27.355 27.5302 27.4946 27.4756 27.6529C27.4236 27.8089 27.3772 27.9898 27.3366 28.1957L27.277 28.2064L27.0603 27.423C27.112 27.3087 27.1693 27.2033 27.2321 27.1069C27.2926 27.0078 27.359 26.9129 27.4313 26.822C27.5035 26.7311 27.5817 26.6443 27.6657 26.5615C27.75 26.4739 27.8416 26.3867 27.9406 26.3001C28.214 26.0606 28.4768 25.8903 28.7288 25.7893C28.9811 25.6833 29.2198 25.6353 29.4448 25.6453C29.6702 25.6505 29.8799 25.7061 30.0741 25.8121C30.2659 25.9156 30.4394 26.0559 30.5945 26.233L31.7098 27.5065C31.9036 27.7279 32.0762 27.9196 32.2273 28.0817C32.3788 28.239 32.511 28.3741 32.6237 28.487C32.739 28.5977 32.8385 28.6877 32.9223 28.757C33.0086 28.8241 33.0835 28.8781 33.147 28.9191L33.1607 28.9348L32.2974 29.6908L32.2837 29.6752C32.2602 29.6221 32.2283 29.5673 32.1879 29.5106C32.1501 29.4517 32.1019 29.3835 32.0432 29.306C32.0296 29.4008 32.0067 29.506 31.9745 29.6216C31.9449 29.7349 31.9001 29.8546 31.8403 29.9807C31.7807 30.1019 31.7026 30.2255 31.606 30.3515C31.5142 30.4779 31.3993 30.6016 31.2612 30.7225C30.8081 31.1193 30.3654 31.3206 29.9333 31.3263C29.4989 31.3294 29.1106 31.1356 28.7685 30.745ZM30.3629 27.34C30.1282 27.5502 29.9129 27.7641 29.7169 27.9817C29.5187 28.1967 29.3692 28.4174 29.2683 28.6438C29.17 28.8679 29.134 29.0973 29.1601 29.3321C29.1866 29.562 29.3048 29.7968 29.5146 30.0364C29.7837 30.3437 30.0658 30.5108 30.3609 30.5377C30.6559 30.5646 30.9389 30.4595 31.2097 30.2223C31.3347 30.1128 31.4332 29.9966 31.5051 29.8738C31.5774 29.7462 31.6297 29.6221 31.6623 29.5015C31.6951 29.3762 31.7115 29.2583 31.7115 29.1479C31.7091 29.0349 31.6961 28.9359 31.6722 28.8509C31.5908 28.7473 31.4976 28.6357 31.3927 28.5159C31.2855 28.3935 31.1646 28.2554 31.0301 28.1018L30.3629 27.34Z" fill="#43735E"></path><path d="M36.7587 23.8408C36.9911 24.2343 37.2393 24.4777 37.5035 24.571C37.7706 24.6625 38.0368 24.6299 38.3021 24.4733C38.3975 24.4169 38.4934 24.3342 38.5897 24.225C38.6843 24.1129 38.7748 23.9871 38.8613 23.8476C38.949 23.7033 39.029 23.5495 39.1014 23.3861C39.1768 23.221 39.2382 23.0561 39.2857 22.8914C39.2406 22.8014 39.1899 22.7087 39.1336 22.6133C39.0755 22.515 39.0139 22.4106 38.9487 22.3004L38.3098 21.2183C38.1601 20.9649 38.0254 20.747 37.9056 20.5645C37.787 20.3772 37.6812 20.2185 37.5883 20.0885C37.4984 19.9566 37.4172 19.8498 37.3447 19.7679C37.2753 19.6843 37.2131 19.6165 37.1583 19.5645L37.1477 19.5466L38.1806 18.9366L38.1911 18.9545C38.2102 19.0277 38.2396 19.1149 38.2793 19.2161C38.3189 19.3173 38.3733 19.44 38.4423 19.5841C38.5114 19.7283 38.5992 19.8975 38.7059 20.0918C38.8109 20.2831 38.9382 20.5055 39.0878 20.7589L39.7268 21.8409C39.8764 22.0943 40.0105 22.3146 40.1291 22.5019C40.246 22.6862 40.3508 22.8433 40.4437 22.9734C40.5366 23.1035 40.6178 23.2103 40.6873 23.2939C40.7568 23.3775 40.8189 23.4454 40.8738 23.4974L40.8843 23.5153L39.8515 24.1252L39.8409 24.1073C39.8148 24.0223 39.7763 23.9163 39.7256 23.7895C39.6778 23.6609 39.6029 23.5001 39.501 23.307C39.4404 23.4835 39.3684 23.6647 39.2852 23.8505C39.205 24.0346 39.1111 24.2127 39.0036 24.3847C38.8991 24.5549 38.7819 24.7106 38.6521 24.8515C38.527 24.9937 38.3885 25.1097 38.2365 25.1995C38.004 25.3368 37.782 25.4136 37.5705 25.43C37.362 25.4445 37.1669 25.417 36.9851 25.3475C36.8063 25.2762 36.6437 25.1711 36.4975 25.0324C36.3542 24.8919 36.2306 24.7337 36.1267 24.5578L35.229 23.0375C35.0794 22.7842 34.9461 22.5653 34.8293 22.381C34.7107 22.1938 34.6049 22.0351 34.512 21.905C34.4191 21.775 34.3379 21.6681 34.2685 21.5845C34.199 21.5009 34.1368 21.4331 34.082 21.381L34.0714 21.3632L35.1043 20.7532L35.1149 20.7711C35.1339 20.8443 35.1633 20.9315 35.203 21.0327C35.2426 21.1339 35.297 21.2566 35.366 21.4007C35.4351 21.5449 35.523 21.7141 35.6297 21.9084C35.7346 22.0997 35.8619 22.3221 36.0115 22.5755L36.7587 23.8408Z" fill="#43735E"></path><path d="M46.6461 20.4161C46.7429 20.3785 46.8312 20.3238 46.911 20.2519C46.994 20.1788 47.0672 20.0947 47.1305 19.9995C47.197 19.9031 47.2556 19.8005 47.3062 19.6918C47.3588 19.5785 47.4036 19.4645 47.4408 19.3498L47.4986 19.3552L47.4866 20.2567C47.4554 20.2911 47.4164 20.3341 47.3696 20.3857C47.3248 20.4329 47.2664 20.4834 47.1945 20.5373C47.1271 20.5932 47.0433 20.6499 46.9431 20.7074C46.8441 20.7681 46.722 20.8267 46.5768 20.8831C46.1444 21.051 45.762 21.0658 45.4298 20.9275C45.0995 20.7846 44.8378 20.4647 44.6448 19.9678L43.3909 16.7392L42.589 17.0841L42.4235 16.6581C42.5261 16.6257 42.6474 16.5842 42.7874 16.5335C42.9274 16.4828 43.0797 16.4255 43.2443 16.3616C43.152 16.1338 43.0673 15.9346 42.9899 15.7641C42.9145 15.5891 42.8453 15.4396 42.7823 15.3155C42.7212 15.187 42.6651 15.0806 42.6138 14.9966C42.5626 14.9125 42.517 14.8429 42.4771 14.7879L42.4695 14.7685L43.5877 14.3342L43.5952 14.3536C43.5997 14.4224 43.6114 14.5052 43.6303 14.6018C43.6493 14.6984 43.6774 14.8138 43.7146 14.9478C43.7551 15.0807 43.8049 15.2377 43.8642 15.419C43.9254 15.5957 43.9995 15.8009 44.0865 16.0345C44.2886 15.9523 44.4858 15.872 44.6781 15.7936C44.8725 15.7107 45.0474 15.6353 45.2031 15.5674C45.3607 15.4951 45.4931 15.4344 45.6003 15.3853C45.7094 15.3318 45.7805 15.2949 45.8135 15.2746L45.9182 15.8022C45.7523 15.8629 45.5778 15.9251 45.3946 15.9889C45.2372 16.0426 45.0578 16.1066 44.8565 16.1811C44.6552 16.2556 44.4474 16.3326 44.2331 16.4121L45.5265 19.7423C45.6042 19.9424 45.6885 20.0972 45.7793 20.2068C45.8721 20.3119 45.9662 20.3867 46.0616 20.4314C46.1601 20.4748 46.258 20.4925 46.3551 20.4845C46.4555 20.4752 46.5525 20.4524 46.6461 20.4161Z" fill="#43735E"></path><path d="M52.8359 18.6249L50.2145 15.0955C50.1184 14.9602 50.0187 14.8328 49.9154 14.7133C49.8113 14.5904 49.7138 14.4819 49.623 14.388C49.5356 14.2934 49.4589 14.2159 49.393 14.1557C49.3263 14.092 49.2823 14.0518 49.2611 14.0351L49.2567 14.0148L50.5873 13.7311L50.5917 13.7515C50.5885 13.7698 50.5888 13.7963 50.5927 13.8309C50.5965 13.8655 50.6013 13.8963 50.6071 13.9234C50.6295 14.0283 50.6696 14.1419 50.7275 14.2641C50.7881 14.3821 50.8826 14.5266 51.011 14.6974L53.0623 17.4457L53.7012 14.1664C53.7286 14.0295 53.7536 13.8809 53.776 13.7203C53.8018 13.5591 53.7985 13.4023 53.766 13.2499C53.7566 13.2059 53.7456 13.1711 53.7331 13.1455C53.7198 13.1164 53.7087 13.0976 53.6998 13.0888L53.6954 13.0685L54.6096 12.8736L54.6139 12.894C54.5667 12.9713 54.5134 13.103 54.4539 13.2891C54.3972 13.4711 54.3426 13.6969 54.2904 13.9664L53.0978 20.2522C53.0704 20.389 53.0437 20.538 53.0179 20.6993C52.9955 20.8598 53.0006 21.0162 53.033 21.1686C53.0424 21.2126 53.0534 21.2474 53.0659 21.2731C53.0792 21.3021 53.0903 21.321 53.0992 21.3297L53.1036 21.35L52.1539 21.5525L52.1495 21.5321C52.2001 21.4541 52.2538 21.3241 52.3106 21.1421C52.3715 20.9627 52.4284 20.74 52.4814 20.4738L52.8359 18.6249Z" fill="#43735E"></path><path d="M69.4365 58.8983C70.9018 59.0692 71.9563 60.388 71.8006 61.8551L69.3096 85.3183C69.0558 87.7088 66.0335 88.5922 64.5322 86.7146L43.5869 60.5186C42.0857 58.6411 43.6124 55.8871 46.0002 56.1656L69.4365 58.8983Z" fill="#43735E" stroke="#43735E" stroke-width="0.768804"></path><path d="M52 48L75.983 50.2484C80.4022 50.6627 83.6393 54.5955 83.1963 59.012L81.0909 80" stroke="#43735E" stroke-width="3"></path></svg>