<svg xmlns="http://www.w3.org/2000/svg" width="155" height="155" viewBox="0 0 155 155" fill="none"><circle cx="77.5" cy="77.5" r="62.9118" stroke="#43735E" stroke-width="29.1765"></circle><path d="M85.0031 13.9205C85.0425 13.5702 85.0726 13.2648 85.0936 13.0042C85.115 12.7396 85.1281 12.5115 85.1329 12.3201C85.1382 12.1245 85.1377 11.9617 85.1315 11.8317C85.1252 11.7016 85.1146 11.5919 85.0996 11.5026L85.1024 11.4779L86.2027 11.6015L86.1999 11.6263C86.1655 11.71 86.1287 11.8144 86.0896 11.9394C86.0547 12.0648 86.0181 12.2234 85.9798 12.4153C85.9461 12.6035 85.9083 12.8287 85.8663 13.0911C85.8289 13.3498 85.7905 13.6543 85.7511 14.0046L85.3759 17.3427C85.3097 17.932 85.1687 18.4253 84.9529 18.8225C84.7372 19.2198 84.4638 19.5354 84.1329 19.7695C83.8024 19.9994 83.4202 20.1505 82.9865 20.2228C82.5522 20.2992 82.0858 20.3093 81.5871 20.2533C81.0884 20.1972 80.6292 20.0872 80.2095 19.9232C79.7939 19.7596 79.4397 19.532 79.147 19.2404C78.8588 18.9451 78.647 18.5832 78.5115 18.1549C78.3765 17.7224 78.3422 17.2115 78.4084 16.6221L78.7905 13.2222C78.8299 12.8719 78.8601 12.5665 78.881 12.306C78.9024 12.0413 78.9155 11.8132 78.9203 11.6218C78.9256 11.4263 78.9231 11.2632 78.9127 11.1327C78.9065 11.0026 78.8959 10.8929 78.8809 10.8036L78.8836 10.7789L80.3672 10.9456L80.3645 10.9704C80.33 11.0541 80.2932 11.1585 80.2541 11.2835C80.2192 11.4089 80.1826 11.5675 80.1443 11.7594C80.1065 11.9471 80.0687 12.1724 80.0308 12.4352C79.9934 12.6939 79.955 12.9984 79.9156 13.3487L79.5258 16.8166C79.4707 17.307 79.4972 17.721 79.6053 18.0587C79.718 18.3927 79.8832 18.6679 80.1009 18.8844C80.3191 19.0967 80.5765 19.2571 80.8731 19.3655C81.1697 19.474 81.4767 19.546 81.794 19.5817C82.1114 19.6174 82.4267 19.6153 82.74 19.5754C83.0533 19.5355 83.3378 19.436 83.5935 19.2769C83.8539 19.1142 84.074 18.8823 84.2539 18.5812C84.4384 18.2764 84.5582 17.8788 84.6133 17.3884L85.0031 13.9205Z" fill="white"></path><path d="M96.289 18.8095C96.4601 18.2896 96.4815 17.8731 96.3532 17.5601C96.2248 17.2472 95.9853 17.033 95.6347 16.9176C95.5087 16.8761 95.3578 16.857 95.1821 16.8603C95.0076 16.8596 94.8228 16.8774 94.6275 16.9135C94.4336 16.9457 94.2344 16.9937 94.0301 17.0574C93.8257 17.1211 93.6286 17.1959 93.4388 17.2819L93.1722 18.052L92.7015 19.4819C92.5913 19.8168 92.4986 20.1115 92.4235 20.3662C92.3497 20.617 92.2908 20.8356 92.2469 21.0219C92.2031 21.2083 92.1709 21.3658 92.1504 21.4944C92.1299 21.623 92.1178 21.7326 92.1142 21.8231L92.1064 21.8467L90.7415 21.3974L90.7493 21.3738C90.8002 21.2988 90.8555 21.2035 90.9154 21.0879C90.9793 20.9736 91.0469 20.8278 91.1184 20.6505C91.1938 20.4744 91.2763 20.2636 91.3658 20.0181C91.4606 19.7699 91.5632 19.4783 91.6734 19.1435L92.1441 17.7136C92.2543 17.3788 92.3443 17.0853 92.4142 16.8333C92.4893 16.5786 92.5488 16.3581 92.5927 16.1717C92.6405 15.9866 92.6727 15.8291 92.6893 15.6992C92.7098 15.5706 92.7218 15.461 92.7254 15.3705L92.7332 15.3469L94.0981 15.7962L94.0903 15.8198C94.0264 15.9079 93.9593 16.0256 93.889 16.1727C93.824 16.3172 93.7414 16.5083 93.6414 16.7461C93.847 16.6653 94.0644 16.5884 94.2936 16.5154C94.5267 16.4438 94.7606 16.3898 94.9952 16.3535C95.2312 16.3132 95.4639 16.296 95.6934 16.3017C95.9242 16.3034 96.1401 16.3374 96.341 16.4035C96.6482 16.5047 96.8907 16.6434 97.0684 16.8198C97.25 16.9975 97.3793 17.195 97.4562 17.4124C97.537 17.6311 97.57 17.8625 97.5552 18.1064C97.5456 18.3478 97.5032 18.5827 97.428 18.8111L96.7667 20.8201C96.6564 21.1549 96.5638 21.4497 96.4887 21.7044C96.4149 21.9551 96.356 22.1737 96.3121 22.3601C96.2682 22.5465 96.236 22.704 96.2155 22.8326C96.195 22.9612 96.183 23.0707 96.1794 23.1612L96.1716 23.1849L94.8067 22.7356L94.8145 22.7119C94.8653 22.637 94.9207 22.5417 94.9806 22.4261C95.0445 22.3117 95.1121 22.1659 95.1836 21.9886C95.259 21.8126 95.3415 21.6018 95.431 21.3562C95.5258 21.108 95.6283 20.8165 95.7386 20.4817L96.289 18.8095Z" fill="white"></path><path d="M104.728 19.7589L104.716 19.7808C104.698 19.795 104.678 19.8192 104.655 19.8536C104.631 19.888 104.611 19.9197 104.595 19.9488C104.533 20.0615 104.481 20.196 104.438 20.3521C104.397 20.5046 104.362 20.7056 104.334 20.9551L103.937 24.7735L106.934 22.437C107.063 22.3324 107.202 22.217 107.351 22.0909C107.501 21.9647 107.62 21.8199 107.71 21.6562C107.736 21.6089 107.753 21.5688 107.762 21.5357C107.772 21.499 107.777 21.4732 107.776 21.4583L107.788 21.4364L108.77 21.9747L108.758 21.9965C108.654 22.0297 108.503 22.1075 108.303 22.2299C108.11 22.3506 107.884 22.5128 107.625 22.7165L103.086 26.2224L102.764 26.0459L103.279 20.6813C103.301 20.4854 103.314 20.2938 103.317 20.1065C103.326 19.9175 103.328 19.7459 103.323 19.5917C103.321 19.4394 103.316 19.3112 103.306 19.2069C103.299 19.099 103.293 19.0291 103.287 18.9973L103.299 18.9755L104.728 19.7589Z" fill="white"></path><path d="M112.301 32.0884C111.945 31.7974 111.656 31.4685 111.436 31.1018C111.216 30.735 111.079 30.3496 111.023 29.9455C110.97 29.5383 111.006 29.1205 111.13 28.6923C111.261 28.2635 111.494 27.8435 111.829 27.4322C112.125 27.0691 112.461 26.7831 112.834 26.5743C113.211 26.3622 113.6 26.23 114.001 26.1775C114.402 26.125 114.799 26.1512 115.189 26.256C115.584 26.3634 115.948 26.5534 116.282 26.8261C116.613 27.0961 116.872 27.4044 117.061 27.7507C117.252 28.0939 117.361 28.4586 117.388 28.8449C117.422 29.2306 117.367 29.6326 117.223 30.051C117.086 30.4687 116.855 30.8855 116.532 31.3015C116.174 30.9988 115.815 30.6977 115.455 30.3982C115.094 30.0988 114.718 29.7891 114.326 29.4693C114.046 29.2412 113.772 29.0199 113.503 28.8055C113.236 28.5938 112.995 28.4046 112.777 28.238C112.524 28.5879 112.329 28.9319 112.192 29.2699C112.059 29.6106 111.987 29.9377 111.978 30.2511C111.974 30.5639 112.036 30.8582 112.165 31.134C112.296 31.4125 112.497 31.6619 112.767 31.8821C112.953 32.0342 113.145 32.1562 113.343 32.2481C113.547 32.3394 113.748 32.4016 113.946 32.4346C114.143 32.4676 114.337 32.476 114.527 32.4596C114.72 32.4401 114.903 32.3995 115.076 32.3377L115.111 32.4138L114.054 32.9807C113.807 32.9291 113.537 32.8371 113.243 32.7047C112.953 32.5692 112.639 32.3637 112.301 32.0884ZM114.059 28.6253C114.38 28.8875 114.702 29.1497 115.023 29.4119C115.35 29.6734 115.649 29.9069 115.921 30.1122C116.12 29.8091 116.27 29.5139 116.37 29.2267C116.471 28.9394 116.521 28.6675 116.522 28.4111C116.523 28.1546 116.472 27.9151 116.37 27.6926C116.267 27.4701 116.114 27.2749 115.908 27.1072C115.722 26.9551 115.516 26.8566 115.29 26.8117C115.07 26.7662 114.84 26.7733 114.598 26.8332C114.357 26.893 114.109 27.0066 113.854 27.1738C113.603 27.3379 113.354 27.5576 113.108 27.8331C113.247 27.9575 113.397 28.0853 113.558 28.2163C113.718 28.3474 113.886 28.4838 114.059 28.6253Z" fill="white"></path><path d="M121.369 34.7413C121.63 34.5042 121.852 34.2931 122.037 34.1082C122.228 33.9235 122.389 33.7608 122.519 33.6202C122.651 33.4827 122.757 33.3615 122.835 33.2566C122.917 33.1548 122.981 33.0653 123.029 32.9884L123.047 32.9716L124.014 34.0348L123.995 34.0516C123.914 34.0917 123.819 34.1474 123.71 34.2185C123.601 34.2897 123.47 34.3833 123.318 34.4993C123.166 34.6154 122.988 34.7596 122.786 34.932C122.588 35.1016 122.358 35.305 122.097 35.5422L120.983 36.5549C120.722 36.792 120.496 37.0029 120.306 37.1876C120.118 37.3695 119.959 37.5307 119.829 37.6713C119.699 37.8119 119.594 37.9331 119.512 38.035C119.431 38.1368 119.367 38.2262 119.319 38.3032L119.301 38.3199L118.334 37.2567L118.352 37.24C118.434 37.1998 118.529 37.1442 118.638 37.073C118.75 37.005 118.88 36.9114 119.03 36.7922C119.182 36.6762 119.358 36.5333 119.557 36.3637C119.761 36.1944 119.994 35.9911 120.255 35.754L121.369 34.7413ZM124.475 31.7405C124.543 31.6791 124.617 31.6342 124.697 31.6057C124.784 31.5775 124.868 31.5654 124.95 31.5693C125.035 31.5704 125.116 31.589 125.194 31.6249C125.277 31.6612 125.351 31.7146 125.415 31.7852C125.48 31.8558 125.524 31.9327 125.55 32.0162C125.581 32.0998 125.593 32.1841 125.586 32.2689C125.585 32.354 125.565 32.4367 125.526 32.517C125.493 32.5977 125.442 32.6687 125.375 32.73C125.234 32.8584 125.072 32.9182 124.891 32.9096C124.709 32.9009 124.554 32.826 124.426 32.6849C124.362 32.6143 124.314 32.5372 124.283 32.4535C124.257 32.3701 124.247 32.2874 124.25 32.2054C124.257 32.1206 124.277 32.0379 124.311 31.9572C124.35 31.8769 124.405 31.8046 124.475 31.7405Z" fill="white"></path><path d="M128.279 38.2283C128.565 38.0214 128.809 37.8362 129.014 37.6728C129.224 37.5103 129.401 37.3663 129.546 37.2409C129.693 37.1189 129.811 37.0101 129.901 36.9145C129.993 36.8222 130.066 36.7404 130.122 36.6692L130.143 36.6546L130.986 37.8179L130.966 37.8325C130.881 37.8635 130.78 37.9083 130.664 37.967C130.548 38.0257 130.407 38.1043 130.243 38.2028C130.079 38.3014 129.887 38.4252 129.667 38.5743C129.451 38.7209 129.2 38.8977 128.915 39.1046L125.324 41.7081C125.038 41.915 124.791 42.0997 124.581 42.2622C124.374 42.4223 124.198 42.565 124.054 42.6904C123.909 42.8158 123.791 42.9247 123.699 43.0169C123.607 43.1092 123.533 43.1909 123.477 43.2622L123.457 43.2768L122.613 42.1134L122.634 42.0988C122.719 42.0679 122.819 42.023 122.936 41.9644C123.054 41.909 123.195 41.8304 123.356 41.7285C123.521 41.63 123.711 41.5074 123.927 41.3607C124.149 41.215 124.403 41.0387 124.689 40.8318L128.279 38.2283Z" fill="white"></path><path d="M129.838 45.6171C130.145 45.443 130.409 45.2861 130.63 45.1462C130.856 45.0079 131.048 44.8844 131.206 44.7758C131.366 44.6708 131.495 44.5757 131.595 44.4906C131.697 44.409 131.779 44.336 131.842 44.2713L131.864 44.259L132.574 45.5085L132.552 45.5208C132.464 45.5421 132.359 45.5756 132.237 45.621C132.115 45.6665 131.967 45.7291 131.793 45.8089C131.619 45.8887 131.414 45.9905 131.18 46.1144C130.948 46.2362 130.679 46.3842 130.373 46.5583L129.064 47.3018C128.757 47.4759 128.491 47.6321 128.264 47.7704C128.041 47.9066 127.851 48.0291 127.693 48.1377C127.535 48.2463 127.406 48.3414 127.304 48.423C127.203 48.5045 127.12 48.5776 127.057 48.6422L127.035 48.6545L126.325 47.405L126.347 47.3927C126.435 47.3714 126.54 47.3379 126.662 47.2925C126.786 47.2506 126.934 47.188 127.106 47.1046C127.28 47.0248 127.483 46.924 127.714 46.8022C127.951 46.6819 128.223 46.5347 128.529 46.3606L129.838 45.6171ZM133.528 43.3714C133.607 43.3263 133.689 43.2988 133.774 43.2887C133.864 43.2802 133.949 43.2868 134.028 43.3086C134.111 43.3284 134.187 43.3643 134.254 43.4165C134.328 43.4702 134.388 43.5385 134.435 43.6214C134.482 43.7043 134.509 43.7893 134.515 43.8762C134.528 43.9647 134.521 44.0496 134.495 44.1308C134.476 44.2136 134.438 44.2899 134.382 44.3597C134.332 44.431 134.267 44.4892 134.188 44.5343C134.022 44.6285 133.852 44.6515 133.676 44.6032C133.501 44.5549 133.366 44.4478 133.272 44.2819C133.225 44.199 133.195 44.1133 133.183 44.0248C133.177 43.9378 133.185 43.8548 133.206 43.7756C133.232 43.6944 133.269 43.6181 133.32 43.5468C133.375 43.477 133.445 43.4185 133.528 43.3714Z" fill="white"></path><path d="M135.083 55.7319C135.595 55.5363 135.931 55.2899 136.093 54.9927C136.254 54.6955 136.269 54.3746 136.137 54.0299C136.09 53.9059 136.009 53.7769 135.896 53.6427C135.786 53.5071 135.656 53.3749 135.504 53.2463C135.357 53.1163 135.194 52.9921 135.015 52.8739C134.837 52.7557 134.654 52.6502 134.468 52.5573L133.702 52.8369L132.296 53.3749C131.967 53.5009 131.68 53.6152 131.435 53.7178C131.194 53.8189 130.988 53.9113 130.815 53.995C130.643 54.0786 130.501 54.1531 130.388 54.2184C130.275 54.2837 130.183 54.3436 130.11 54.3979L130.087 54.4068L129.574 53.0648L129.597 53.0559C129.687 53.048 129.796 53.0308 129.923 53.0042C130.052 52.9815 130.208 52.9419 130.391 52.8853C130.575 52.8326 130.79 52.7634 131.037 52.6778C131.29 52.5946 131.58 52.49 131.91 52.364L133.316 51.826C133.645 51.7 133.929 51.5845 134.169 51.4795C134.414 51.3769 134.622 51.2838 134.794 51.2001C134.968 51.1203 135.111 51.0458 135.222 50.9766C135.334 50.9113 135.427 50.8515 135.499 50.7971L135.523 50.7882L136.036 52.1303L136.013 52.1392C135.904 52.1452 135.771 52.1675 135.612 52.2059C135.459 52.2468 135.259 52.3034 135.011 52.376C135.204 52.4844 135.401 52.6044 135.602 52.736C135.805 52.8716 135.994 53.0188 136.171 53.1778C136.351 53.3353 136.511 53.5049 136.652 53.6864C136.796 53.8665 136.906 54.0553 136.982 54.2528C137.097 54.5549 137.143 54.8306 137.118 55.0798C137.095 55.3328 137.024 55.5578 136.904 55.7547C136.785 55.9554 136.627 56.1271 136.428 56.2697C136.235 56.4147 136.026 56.5301 135.801 56.6161L133.826 57.372C133.497 57.498 133.21 57.6123 132.965 57.7149C132.724 57.816 132.517 57.9084 132.345 57.992C132.173 58.0757 132.03 58.1502 131.918 58.2155C131.805 58.2808 131.712 58.3407 131.64 58.395L131.617 58.4039L131.103 57.0619L131.126 57.053C131.217 57.0451 131.325 57.0279 131.453 57.0013C131.582 56.9786 131.738 56.9389 131.92 56.8824C132.104 56.8297 132.32 56.7605 132.567 56.6749C132.819 56.5917 133.11 56.4871 133.439 56.3611L135.083 55.7319Z" fill="white"></path><path d="M131.012 66.5069C131.07 66.8379 131.155 67.1114 131.268 67.3274C131.378 67.5442 131.508 67.7151 131.661 67.8402C131.813 67.9694 131.987 68.0572 132.18 68.1036C132.37 68.1548 132.574 68.1803 132.793 68.1802C133.013 68.1842 133.243 68.1673 133.485 68.1295C133.727 68.0958 133.977 68.0566 134.235 68.0119L134.437 67.9768C134.296 67.795 134.162 67.5699 134.036 67.3015C133.913 67.0323 133.821 66.72 133.759 66.3645C133.675 65.8783 133.674 65.4239 133.756 65.0013C133.839 64.5787 133.996 64.202 134.229 63.8711C134.463 63.5443 134.767 63.2705 135.141 63.0498C135.519 62.8284 135.96 62.674 136.462 62.5868C136.924 62.5066 137.366 62.5056 137.788 62.5839C138.21 62.6663 138.59 62.8171 138.927 63.0364C139.264 63.2597 139.548 63.5452 139.776 63.8927C140.01 64.2436 140.166 64.6479 140.246 65.1055C140.28 65.3016 140.295 65.4842 140.29 65.6534C140.286 65.8225 140.267 65.9814 140.234 66.1303C140.206 66.2825 140.166 66.4263 140.114 66.5617C140.066 66.7004 140.012 66.8361 139.951 66.9688L140.394 66.8287L140.418 66.8245L140.653 68.179L140.629 68.1832C140.539 68.1736 140.428 68.1675 140.297 68.165C140.167 68.1666 140.007 68.1755 139.816 68.1918C139.626 68.2122 139.399 68.239 139.135 68.2721C138.876 68.3086 138.573 68.3571 138.226 68.4174L134.058 69.1411C133.683 69.2064 133.308 69.2188 132.935 69.1784C132.558 69.1428 132.21 69.0285 131.89 68.8357C131.571 68.647 131.294 68.3711 131.058 68.0079C130.823 67.6447 130.654 67.171 130.553 66.5867C130.517 66.3824 130.502 66.1726 130.506 65.9571C130.507 65.7423 130.52 65.536 130.544 65.3381C130.565 65.1409 130.594 64.9611 130.634 64.7985C130.673 64.636 130.709 64.5055 130.742 64.4071L131.886 64.0128L131.928 64.1066C131.732 64.2416 131.569 64.4066 131.439 64.6018C131.306 64.8018 131.203 65.0111 131.132 65.2298C131.056 65.4492 131.01 65.6697 130.994 65.8914C130.974 66.1179 130.98 66.323 131.012 66.5069ZM134.255 66.5626C134.306 66.8568 134.401 67.1139 134.54 67.3338C134.68 67.5579 134.83 67.7402 134.989 67.881L138.041 67.3509C138.27 67.3112 138.476 67.2733 138.659 67.2373C138.846 67.2006 139.015 67.1691 139.166 67.1429C139.301 67.0185 139.413 66.8811 139.505 66.7305C139.602 66.5832 139.676 66.4293 139.728 66.2687C139.785 66.1115 139.821 65.9538 139.835 65.7955C139.854 65.6365 139.851 65.4835 139.825 65.3364C139.771 65.0259 139.665 64.7559 139.508 64.5266C139.35 64.2972 139.148 64.1135 138.9 63.9754C138.658 63.8407 138.374 63.7533 138.047 63.7132C137.725 63.6766 137.368 63.6923 136.975 63.7604C136.534 63.837 136.132 63.9574 135.769 64.1214C135.406 64.2855 135.1 64.4859 134.851 64.7228C134.606 64.9631 134.429 65.2381 134.318 65.5477C134.212 65.8566 134.191 66.1949 134.255 66.5626Z" fill="white"></path><path d="M138.828 86.0936L136.998 85.8349C136.649 85.7856 136.343 85.7464 136.079 85.7175C135.819 85.6891 135.594 85.6698 135.402 85.6595C135.211 85.6492 135.05 85.6454 134.92 85.6479C134.79 85.6545 134.679 85.6641 134.59 85.6765L134.565 85.673L134.774 84.1948L134.799 84.1983C134.881 84.2351 134.985 84.2728 135.109 84.3113C135.233 84.354 135.389 84.3948 135.576 84.4338C135.762 84.4769 135.984 84.5209 136.242 84.5657C136.503 84.6152 136.808 84.6646 137.157 84.7139L138.863 84.9552L142.997 82.7315C143.138 82.655 143.268 82.5771 143.388 82.4978C143.508 82.4226 143.613 82.3494 143.702 82.2783C143.796 82.2078 143.874 82.1435 143.937 82.0853C143.999 82.0272 144.046 81.9813 144.076 81.9479L144.1 81.9514L143.836 83.8176C143.742 83.8043 143.58 83.8212 143.352 83.8685C143.127 83.9204 142.853 84.0305 142.532 84.1987L139.481 85.8279L142.09 88.2135C142.183 88.2978 142.278 88.3824 142.375 88.4673C142.472 88.5522 142.565 88.6304 142.656 88.7018C142.746 88.7732 142.83 88.8311 142.908 88.8756C142.984 88.9242 143.052 88.9525 143.109 88.9607L142.939 90.1617L142.915 90.1582C142.849 90.0569 142.749 89.9192 142.615 89.7452C142.484 89.5718 142.304 89.3788 142.075 89.1662L138.828 86.0936Z" fill="white"></path><path d="M136.495 93.5827C136.938 93.736 137.319 93.9601 137.638 94.255C137.961 94.5512 138.212 94.8906 138.392 95.273C138.569 95.6593 138.669 96.0756 138.69 96.5217C138.711 96.9679 138.643 97.4163 138.487 97.8669C138.334 98.3098 138.116 98.6994 137.832 99.0357C137.552 99.3774 137.226 99.6464 136.855 99.8427C136.484 100.039 136.076 100.152 135.631 100.183C135.185 100.217 134.721 100.15 134.239 99.9834C133.835 99.8437 133.472 99.6388 133.148 99.3688C132.825 99.0988 132.568 98.7771 132.377 98.4037C132.186 98.0303 132.073 97.6139 132.039 97.1545C132.008 96.7003 132.081 96.2146 132.261 95.6974C132.413 95.2585 132.628 94.8702 132.908 94.5324C133.187 94.1947 133.512 93.9276 133.883 93.7313C134.254 93.5349 134.66 93.419 135.103 93.3835C135.549 93.3494 136.013 93.4158 136.495 93.5827ZM132.643 95.9812C132.546 96.2594 132.513 96.5331 132.543 96.8023C132.571 97.0754 132.66 97.3322 132.809 97.5726C132.959 97.8131 133.166 98.0319 133.431 98.2291C133.696 98.4263 134.017 98.59 134.393 98.7203C134.817 98.8669 135.224 98.9575 135.616 98.9922C136.011 99.0283 136.372 99.0017 136.697 98.9123C137.024 98.8283 137.309 98.6769 137.552 98.458C137.794 98.2392 137.978 97.9495 138.103 97.589C138.199 97.3108 138.233 97.0371 138.203 96.7679C138.177 96.5 138.092 96.2446 137.948 96.0016C137.803 95.7625 137.598 95.5444 137.332 95.3472C137.071 95.1514 136.752 94.9883 136.376 94.858C135.953 94.7115 135.543 94.6201 135.148 94.5841C134.751 94.5519 134.386 94.5791 134.053 94.6657C133.724 94.7537 133.437 94.9045 133.192 95.118C132.949 95.3368 132.766 95.6246 132.643 95.9812Z" fill="white"></path><path d="M130.795 105.511C130.321 105.236 129.919 105.128 129.589 105.186C129.256 105.247 128.997 105.438 128.812 105.757C128.746 105.872 128.694 106.015 128.658 106.185C128.625 106.358 128.604 106.542 128.596 106.739C128.589 106.941 128.596 107.148 128.616 107.362C128.635 107.578 128.667 107.786 128.714 107.986C128.814 108.054 128.922 108.121 129.037 108.187C129.155 108.256 129.281 108.329 129.413 108.405L130.716 109.16C131.021 109.337 131.29 109.485 131.522 109.605C131.756 109.731 131.96 109.835 132.133 109.916C132.304 110.001 132.452 110.065 132.575 110.107C132.697 110.154 132.802 110.188 132.89 110.21L132.911 110.223L132.191 111.466L132.17 111.454C132.107 111.389 132.025 111.315 131.924 111.232C131.823 111.15 131.694 111.054 131.537 110.944C131.381 110.834 131.19 110.709 130.964 110.569C130.742 110.431 130.479 110.273 130.174 110.097L128.871 109.342C128.566 109.165 128.296 109.014 128.063 108.888C127.832 108.765 127.631 108.662 127.457 108.581C127.284 108.5 127.136 108.436 127.015 108.389C126.893 108.343 126.788 108.308 126.7 108.286L126.679 108.274L127.399 107.03L127.421 107.043C127.498 107.116 127.6 107.204 127.728 107.307C127.853 107.413 128.026 107.537 128.246 107.679C128.205 107.459 128.174 107.228 128.152 106.985C128.127 106.745 128.121 106.504 128.132 106.262C128.141 106.022 128.172 105.791 128.225 105.568C128.272 105.346 128.348 105.143 128.454 104.96C128.616 104.68 128.803 104.47 129.014 104.328C129.223 104.191 129.443 104.105 129.674 104.071C129.902 104.04 130.134 104.054 130.368 104.113C130.6 104.176 130.822 104.268 131.034 104.391L132.864 105.451C133.169 105.628 133.437 105.778 133.667 105.902C133.901 106.028 134.104 106.131 134.278 106.212C134.451 106.294 134.599 106.357 134.72 106.404C134.842 106.45 134.947 106.485 135.035 106.507L135.056 106.519L134.336 107.763L134.314 107.75C134.252 107.685 134.17 107.611 134.069 107.529C133.968 107.447 133.839 107.35 133.682 107.24C133.526 107.131 133.334 107.005 133.109 106.865C132.887 106.727 132.624 106.57 132.319 106.393L130.795 105.511Z" fill="white"></path><path d="M126.696 115.402C126.968 115.626 127.209 115.817 127.418 115.974C127.628 116.136 127.812 116.272 127.97 116.381C128.125 116.492 128.26 116.58 128.375 116.642C128.487 116.708 128.585 116.759 128.668 116.795L128.687 116.811L127.772 117.919L127.753 117.904C127.701 117.817 127.629 117.721 127.54 117.615C127.447 117.512 127.322 117.387 127.164 117.24C127.165 117.44 127.161 117.644 127.151 117.851C127.142 118.058 127.118 118.259 127.081 118.454C127.044 118.649 126.991 118.834 126.922 119.008C126.85 119.186 126.757 119.345 126.64 119.486C126.569 119.572 126.502 119.643 126.44 119.699C126.381 119.758 126.322 119.806 126.264 119.844C126.209 119.885 126.155 119.918 126.101 119.944C126.051 119.972 126.002 119.999 125.954 120.024L125.232 119.033L125.318 118.967C125.491 119.045 125.662 119.065 125.832 119.028C126.006 118.994 126.168 118.886 126.318 118.704C126.4 118.604 126.468 118.486 126.523 118.348C126.577 118.21 126.619 118.059 126.647 117.894C126.679 117.732 126.699 117.561 126.709 117.38C126.721 117.203 126.726 117.024 126.724 116.844C126.636 116.761 126.538 116.675 126.429 116.585C126.321 116.496 126.206 116.4 126.084 116.3L124.846 115.278C124.574 115.054 124.334 114.861 124.124 114.698C123.917 114.538 123.735 114.404 123.577 114.295C123.419 114.187 123.284 114.099 123.172 114.033C123.06 113.968 122.962 113.917 122.879 113.88L122.86 113.864L123.774 112.756L123.794 112.772C123.845 112.847 123.914 112.933 124 113.031C124.083 113.132 124.194 113.248 124.333 113.379C124.47 113.513 124.636 113.667 124.832 113.839C125.029 114.018 125.264 114.219 125.535 114.444L126.696 115.402Z" fill="white"></path><path d="M114.268 132.215L114.382 132.139C114.462 132.2 114.567 132.259 114.696 132.318C114.822 132.378 114.963 132.418 115.121 132.437C115.277 132.462 115.446 132.456 115.626 132.42C115.803 132.386 115.987 132.306 116.176 132.179C116.345 132.065 116.477 131.939 116.573 131.8C116.67 131.66 116.731 131.514 116.758 131.361C116.782 131.21 116.774 131.056 116.733 130.898C116.692 130.741 116.62 130.585 116.516 130.43C116.349 130.182 116.121 129.99 115.831 129.856C115.539 129.727 115.215 129.622 114.857 129.543C114.499 129.463 114.124 129.396 113.731 129.339C113.339 129.283 112.958 129.206 112.588 129.11C112.219 129.013 111.877 128.88 111.564 128.711C111.25 128.547 110.992 128.316 110.791 128.016C110.641 127.792 110.529 127.54 110.456 127.26C110.381 126.985 110.365 126.704 110.406 126.416C110.448 126.129 110.558 125.843 110.737 125.558C110.918 125.277 111.184 125.018 111.535 124.783C111.731 124.651 111.932 124.544 112.136 124.462C112.335 124.378 112.527 124.311 112.713 124.261C112.899 124.217 113.072 124.186 113.234 124.167C113.393 124.15 113.527 124.142 113.638 124.143L114.285 125.364L114.156 125.451C114.009 125.314 113.844 125.201 113.658 125.111C113.475 125.024 113.283 124.965 113.083 124.935C112.882 124.91 112.677 124.918 112.469 124.957C112.263 125.001 112.064 125.087 111.871 125.216C111.695 125.334 111.556 125.465 111.453 125.609C111.349 125.759 111.278 125.914 111.24 126.074C111.205 126.237 111.206 126.402 111.242 126.567C111.275 126.735 111.343 126.897 111.447 127.052C111.593 127.268 111.766 127.442 111.968 127.571C112.172 127.704 112.395 127.809 112.636 127.886C112.875 127.966 113.129 128.028 113.398 128.072C113.664 128.119 113.935 128.161 114.211 128.201C114.489 128.244 114.767 128.292 115.043 128.347C115.316 128.403 115.58 128.481 115.836 128.579C116.09 128.683 116.329 128.815 116.551 128.975C116.776 129.139 116.975 129.35 117.148 129.608C117.331 129.88 117.443 130.16 117.485 130.446C117.527 130.738 117.513 131.019 117.445 131.29C117.373 131.562 117.255 131.814 117.09 132.045C116.925 132.275 116.726 132.469 116.491 132.626C116.319 132.742 116.152 132.834 115.988 132.904C115.825 132.973 115.674 133.027 115.535 133.066C115.393 133.106 115.266 133.137 115.154 133.156C115.043 133.176 114.951 133.193 114.88 133.206L114.268 132.215Z" fill="white"></path><path d="M105.91 136.581C106.047 136.905 106.172 137.186 106.285 137.421C106.396 137.663 106.496 137.868 106.586 138.037C106.672 138.208 106.751 138.348 106.824 138.457C106.893 138.567 106.956 138.657 107.013 138.728L107.022 138.751L105.699 139.31L105.689 139.287C105.678 139.197 105.657 139.089 105.626 138.963C105.595 138.836 105.55 138.682 105.491 138.5C105.432 138.317 105.355 138.103 105.259 137.855C105.165 137.611 105.05 137.327 104.913 137.002L103.707 134.148L102.543 136.619C102.335 137.044 102.272 137.352 102.352 137.543L101.023 138.105L101.013 138.082C101.1 138.01 101.178 137.929 101.249 137.841C101.317 137.758 101.384 137.665 101.448 137.561C101.508 137.459 101.571 137.345 101.634 137.219C101.696 137.098 101.762 136.962 101.833 136.811L102.866 134.571L99.4123 132.823C99.3081 132.768 99.1972 132.713 99.0799 132.659C98.9642 132.609 98.8509 132.565 98.74 132.526C98.6291 132.487 98.5241 132.457 98.4251 132.436C98.3261 132.415 98.2409 132.41 98.1695 132.423L98.1599 132.4L99.8216 131.698C99.8636 131.797 99.9339 131.889 100.033 131.973C100.127 132.059 100.276 132.156 100.479 132.264L103.579 133.845L103.186 132.916C103.049 132.592 102.925 132.309 102.814 132.067C102.705 131.83 102.605 131.627 102.516 131.457C102.426 131.288 102.347 131.148 102.278 131.038C102.209 130.928 102.146 130.837 102.089 130.767L102.079 130.744L103.403 130.184L103.413 130.207C103.424 130.297 103.445 130.405 103.475 130.532C103.503 130.66 103.548 130.814 103.61 130.995C103.669 131.177 103.746 131.39 103.84 131.634C103.932 131.883 104.046 132.17 104.183 132.495L105.91 136.581Z" fill="white"></path><path d="M94.4756 137.853C94.564 138.194 94.6469 138.489 94.7245 138.739C94.799 138.994 94.8683 139.212 94.9321 139.392C94.992 139.574 95.0501 139.724 95.1064 139.842C95.1587 139.961 95.2078 140.06 95.2537 140.138L95.26 140.162L93.8689 140.522L93.8627 140.498C93.8649 140.408 93.86 140.297 93.8478 140.168C93.8357 140.038 93.8137 139.879 93.7819 139.69C93.7502 139.501 93.705 139.277 93.6465 139.018C93.5891 138.763 93.5162 138.465 93.4278 138.124L93.0504 136.667C92.9621 136.325 92.8806 136.027 92.806 135.772C92.7325 135.522 92.6638 135.306 92.5999 135.125C92.536 134.945 92.4779 134.795 92.4256 134.676C92.3733 134.557 92.3242 134.458 92.2783 134.38L92.2721 134.356L93.6631 133.995L93.6694 134.02C93.6671 134.11 93.6721 134.22 93.6842 134.35C93.6924 134.481 93.7143 134.64 93.7501 134.828C93.7819 135.016 93.8265 135.238 93.884 135.493C93.9384 135.753 94.0099 136.054 94.0982 136.395L94.4756 137.853ZM95.6843 141.999C95.7072 142.087 95.7124 142.174 95.7001 142.258C95.6847 142.348 95.6562 142.428 95.6146 142.499C95.574 142.574 95.5197 142.637 95.4517 142.689C95.3808 142.746 95.2991 142.786 95.2068 142.81C95.1145 142.834 95.0255 142.838 94.9399 142.822C94.8512 142.81 94.771 142.782 94.6992 142.736C94.6245 142.695 94.5606 142.639 94.5077 142.567C94.4518 142.5 94.4125 142.423 94.3896 142.334C94.3418 142.15 94.364 141.979 94.4562 141.822C94.5484 141.666 94.6869 141.563 94.8715 141.516C94.9639 141.492 95.0543 141.485 95.143 141.497C95.2286 141.513 95.3068 141.542 95.3775 141.584C95.4493 141.629 95.5132 141.686 95.5691 141.753C95.622 141.825 95.6604 141.907 95.6843 141.999Z" fill="white"></path><path d="M83.3738 140.281C83.43 140.826 83.5807 141.215 83.8258 141.448C84.0708 141.681 84.3769 141.779 84.744 141.741C84.876 141.727 85.0216 141.683 85.1806 141.608C85.3401 141.537 85.5015 141.446 85.665 141.333C85.8289 141.224 85.991 141.099 86.1515 140.958C86.312 140.816 86.4613 140.667 86.5994 140.511L86.528 139.699L86.3733 138.202C86.3371 137.851 86.3012 137.544 86.2657 137.281C86.2306 137.022 86.195 136.798 86.1589 136.61C86.1228 136.422 86.0878 136.265 86.0539 136.14C86.0201 136.014 85.9863 135.909 85.9526 135.825L85.9501 135.8L87.3794 135.653L87.382 135.677C87.3662 135.767 87.3546 135.876 87.3472 136.006C87.3356 136.137 87.3335 136.297 87.3407 136.488C87.3438 136.68 87.3547 136.906 87.3733 137.167C87.3882 137.432 87.4137 137.74 87.45 138.09L87.6047 139.588C87.6409 139.939 87.6786 140.243 87.7179 140.502C87.7534 140.765 87.7892 140.99 87.8253 141.179C87.8573 141.367 87.8923 141.524 87.9302 141.649C87.9641 141.775 87.9978 141.88 88.0315 141.964L88.0341 141.989L86.6047 142.136L86.6022 142.112C86.6245 142.005 86.6377 141.87 86.6417 141.707C86.642 141.549 86.6393 141.341 86.6335 141.083C86.4788 141.241 86.3118 141.4 86.1324 141.56C85.9489 141.721 85.7575 141.865 85.5582 141.994C85.3593 142.127 85.154 142.238 84.9422 142.327C84.7308 142.42 84.5199 142.477 84.3095 142.499C83.9878 142.532 83.7098 142.504 83.4755 142.416C83.2371 142.328 83.0384 142.201 82.8794 142.034C82.7163 141.867 82.5916 141.669 82.5055 141.441C82.4156 141.216 82.3583 140.985 82.3336 140.745L82.1162 138.642C82.08 138.291 82.0441 137.984 82.0086 137.721C81.9735 137.462 81.9379 137.238 81.9018 137.05C81.8657 136.862 81.8307 136.705 81.7968 136.58C81.763 136.454 81.7292 136.349 81.6955 136.265L81.693 136.24L83.1223 136.092L83.1249 136.117C83.1091 136.206 83.0975 136.316 83.0901 136.446C83.0785 136.576 83.0764 136.737 83.0836 136.928C83.0867 137.12 83.0976 137.346 83.1162 137.606C83.1311 137.872 83.1566 138.18 83.1929 138.53L83.3738 140.281Z" fill="white"></path><path d="M74.8539 145.338C74.872 145.31 74.8907 145.271 74.91 145.223C74.9251 145.174 74.9436 145.1 74.9655 145.001C74.9871 144.907 75.0126 144.782 75.0417 144.625C75.0707 144.473 75.1082 144.278 75.1542 144.04C75.1959 143.805 75.2464 143.521 75.3059 143.188C75.3653 142.855 75.4361 142.464 75.5184 142.016L75.7979 142.031C75.8314 142.49 75.862 142.886 75.8898 143.219C75.9131 143.557 75.933 143.845 75.9493 144.082C75.9654 144.324 75.9817 144.522 75.9983 144.677C76.0106 144.835 76.0224 144.963 76.0339 145.059C76.0451 145.159 76.0576 145.234 76.0715 145.285C76.0813 145.335 76.0916 145.375 76.1025 145.405L76.1018 145.417L74.8533 145.35L74.8539 145.338Z" fill="white"></path><path d="M65.1126 140.494L65.2004 140.5C65.2097 140.599 65.2359 140.708 65.2792 140.827C65.3185 140.945 65.3797 141.059 65.4629 141.17C65.542 141.279 65.6468 141.377 65.7773 141.463C65.9029 141.552 66.0571 141.616 66.2399 141.653C66.3658 141.679 66.4894 141.685 66.6107 141.672C66.7279 141.658 66.8366 141.623 66.937 141.568C67.0324 141.515 67.1153 141.441 67.1858 141.346C67.2562 141.25 67.3061 141.131 67.3353 140.989C67.3762 140.79 67.3544 140.587 67.2701 140.379C67.1809 140.174 67.0612 139.963 66.9111 139.746C66.7601 139.533 66.5953 139.315 66.4168 139.092C66.2341 138.868 66.0694 138.64 65.9226 138.406C65.7758 138.173 65.6644 137.932 65.5884 137.684C65.5076 137.438 65.4934 137.188 65.546 136.932C65.5886 136.725 65.6669 136.529 65.7809 136.345C65.894 136.165 66.0437 136.014 66.2297 135.891C66.4118 135.768 66.6326 135.682 66.8923 135.634C67.1471 135.589 67.439 135.6 67.7681 135.667C67.9631 135.708 68.1421 135.763 68.3052 135.835C68.4643 135.906 68.6094 135.982 68.7408 136.064C68.8672 136.149 68.9806 136.236 69.081 136.325C69.1765 136.416 69.2606 136.501 69.3334 136.58L69.0346 137.725L68.9372 137.705C68.9358 137.506 68.9107 137.318 68.862 137.143C68.8133 136.968 68.7417 136.812 68.6473 136.674C68.548 136.539 68.4278 136.423 68.2868 136.326C68.1449 136.234 67.9826 136.169 67.7998 136.131C67.4992 136.069 67.2445 136.104 67.0356 136.235C66.8226 136.364 66.6886 136.563 66.6335 136.831C66.5893 137.047 66.6098 137.256 66.6949 137.46C66.7752 137.667 66.8896 137.873 67.0382 138.077C67.1867 138.281 67.3495 138.488 67.5266 138.698C67.6995 138.907 67.8582 139.124 68.0026 139.348C68.1462 139.577 68.256 139.815 68.3319 140.064C68.403 140.315 68.4089 140.585 68.3497 140.874C68.3013 141.109 68.2144 141.316 68.089 141.493C67.9588 141.674 67.8023 141.818 67.6195 141.924C67.4319 142.034 67.2225 142.105 66.9913 142.138C66.7602 142.171 66.5166 142.161 66.2607 142.108C65.9236 142.039 65.6508 141.945 65.4424 141.826C65.2291 141.71 65.0702 141.608 64.9657 141.518L65.1126 140.494Z" fill="white"></path><path d="M46.2184 137.458C46.6447 137.699 47.0406 137.896 47.4061 138.05C47.7696 138.207 48.0882 138.334 48.3619 138.432C48.6814 138.54 48.9733 138.627 49.2376 138.69L48.5853 139.479C48.544 139.451 48.4811 139.411 48.3964 139.358C48.3118 139.306 48.2181 139.248 48.1154 139.185C48.009 139.121 47.8991 139.054 47.7856 138.985C47.6664 138.918 47.5554 138.853 47.4527 138.79C47.3479 138.731 47.2568 138.677 47.1794 138.629C47.0963 138.582 47.0367 138.548 47.0006 138.528L43.9069 136.783C43.8708 136.763 43.813 136.73 43.7335 136.685C43.6484 136.642 43.5535 136.591 43.4487 136.532C43.3419 136.476 43.2307 136.416 43.1151 136.351C42.9939 136.287 42.8799 136.227 42.7731 136.172C42.6627 136.115 42.5631 136.063 42.4744 136.018C42.3857 135.973 42.3186 135.939 42.2733 135.919L42.6112 134.952C42.8057 135.148 43.0322 135.354 43.2906 135.571C43.5154 135.755 43.7891 135.962 44.1119 136.192C44.4326 136.425 44.8061 136.662 45.2324 136.902L48.1509 131.728C48.3241 131.421 48.4723 131.15 48.5955 130.914C48.713 130.681 48.8132 130.478 48.8961 130.306C48.9753 130.131 49.0375 129.983 49.0826 129.861C49.1241 129.737 49.1554 129.63 49.1765 129.542L49.1888 129.521L50.4837 130.251L50.4715 130.273C50.407 130.336 50.3342 130.419 50.2529 130.521C50.1717 130.623 50.077 130.753 49.9689 130.911C49.8607 131.069 49.7388 131.259 49.6032 131.483C49.4656 131.71 49.3102 131.977 49.137 132.284L46.2184 137.458Z" fill="white"></path><path d="M39.8541 128.287C39.6353 128.563 39.4497 128.807 39.2972 129.02C39.139 129.233 39.0071 129.42 38.9017 129.58C38.793 129.737 38.7085 129.874 38.6482 129.99C38.5847 130.103 38.5356 130.202 38.5011 130.286L38.4856 130.305L37.3591 129.413L37.3745 129.394C37.4481 129.341 37.5329 129.271 37.629 129.183C37.7251 129.095 37.8388 128.981 37.9702 128.842C38.1017 128.703 38.253 128.532 38.4243 128.329C38.593 128.129 38.7867 127.891 39.0056 127.615L39.9401 126.434C40.1589 126.158 40.3474 125.913 40.5057 125.7C40.6614 125.49 40.7919 125.305 40.8974 125.145C41.0028 124.985 41.0873 124.849 41.1508 124.735C41.2144 124.621 41.2634 124.523 41.298 124.439L41.3134 124.419L42.44 125.312L42.4245 125.331C42.351 125.384 42.2661 125.454 42.1701 125.542C42.0708 125.627 41.957 125.741 41.8288 125.883C41.6974 126.022 41.5473 126.192 41.3787 126.391C41.2041 126.592 41.0075 126.83 40.7886 127.106L39.8541 128.287ZM37.2765 131.752C37.2199 131.824 37.1541 131.88 37.0792 131.921C36.9985 131.963 36.9173 131.989 36.8357 131.998C36.7516 132.011 36.6684 132.006 36.586 131.983C36.4978 131.961 36.4163 131.92 36.3415 131.861C36.2667 131.802 36.2101 131.733 36.1715 131.655C36.127 131.577 36.1014 131.496 36.0945 131.411C36.0817 131.327 36.0881 131.242 36.1136 131.157C36.1332 131.072 36.1714 130.993 36.228 130.922C36.3465 130.772 36.496 130.687 36.6766 130.666C36.8572 130.645 37.0222 130.694 37.1718 130.812C37.2466 130.871 37.3062 130.94 37.3506 131.017C37.3892 131.095 37.4132 131.175 37.4227 131.257C37.4296 131.342 37.4232 131.427 37.4036 131.512C37.3781 131.597 37.3358 131.677 37.2765 131.752Z" fill="white"></path><path d="M31.1378 120.871C30.932 121.051 30.7734 121.229 30.6619 121.404C30.5478 121.575 30.4779 121.744 30.4523 121.91C30.4208 122.075 30.4309 122.235 30.4825 122.388C30.531 122.544 30.6154 122.691 30.7357 122.828C30.8177 122.921 30.9279 123.009 31.0665 123.092C31.2051 123.175 31.3618 123.25 31.5366 123.317C31.7056 123.384 31.8868 123.443 32.0804 123.494C32.2712 123.542 32.4628 123.578 32.6551 123.602C32.7604 123.521 32.8707 123.43 32.9861 123.329C33.0984 123.23 33.22 123.124 33.351 123.009L34.4831 122.017C34.7482 121.784 34.9778 121.578 35.1719 121.396C35.363 121.218 35.5247 121.06 35.6573 120.921C35.7898 120.783 35.8976 120.664 35.9806 120.564C36.0636 120.463 36.1296 120.375 36.1787 120.299L36.1974 120.283L37.1446 121.363L37.1259 121.38C37.044 121.418 36.9478 121.472 36.8375 121.541C36.7244 121.607 36.592 121.699 36.4404 121.815C36.286 121.928 36.1078 122.068 35.9059 122.234C35.6981 122.399 35.4616 122.598 35.1965 122.831L34.0644 123.823C33.7993 124.055 33.5726 124.262 33.3843 124.444C33.1902 124.625 33.0269 124.785 32.8944 124.923C32.7591 125.058 32.6513 125.177 32.571 125.281C32.488 125.381 32.422 125.469 32.3729 125.545L32.3542 125.562L31.407 124.481L31.4258 124.465C31.5194 124.427 31.6291 124.366 31.7551 124.284C31.8752 124.2 32.0262 124.093 32.2083 123.961C31.9992 123.923 31.7834 123.875 31.561 123.817C31.3386 123.758 31.1243 123.687 30.9183 123.602C30.7095 123.515 30.5147 123.416 30.334 123.304C30.1533 123.192 29.9974 123.061 29.8661 122.912C29.7103 122.734 29.5957 122.556 29.5222 122.378C29.4487 122.199 29.4074 122.023 29.3983 121.849C29.3892 121.675 29.4091 121.506 29.4582 121.342C29.5045 121.175 29.5736 121.017 29.6655 120.871C29.4443 120.839 29.2151 120.794 28.9778 120.737C28.7347 120.68 28.5014 120.609 28.2778 120.524C28.0514 120.435 27.8393 120.332 27.6414 120.213C27.4408 120.091 27.2708 119.95 27.1314 119.791C26.9182 119.548 26.7799 119.305 26.7165 119.063C26.6503 118.818 26.6394 118.582 26.6837 118.356C26.7253 118.126 26.8144 117.91 26.9512 117.708C27.0821 117.505 27.238 117.324 27.4189 117.165L29.0095 115.771C29.2746 115.539 29.5042 115.332 29.6983 115.151C29.8893 114.973 30.0511 114.814 30.1836 114.676C30.3162 114.538 30.4239 114.419 30.5069 114.318C30.5872 114.215 30.6519 114.125 30.701 114.049L30.7197 114.033L31.6709 115.118L31.6522 115.134C31.5703 115.173 31.4742 115.227 31.3639 115.296C31.2508 115.362 31.117 115.452 30.9626 115.565C30.8083 115.678 30.6301 115.818 30.4281 115.984C30.2231 116.152 29.988 116.353 29.7229 116.585L28.399 117.746C27.9873 118.106 27.7572 118.454 27.7087 118.789C27.6602 119.124 27.7576 119.43 28.0009 119.708C28.0856 119.804 28.1986 119.895 28.3399 119.981C28.4785 120.064 28.6352 120.139 28.81 120.206C28.9849 120.273 29.1706 120.331 29.3673 120.379C29.5608 120.43 29.7538 120.468 29.9461 120.492C29.9781 120.453 30.0128 120.417 30.0502 120.385C30.0876 120.352 30.1235 120.32 30.1578 120.29L31.7483 118.896C32.0134 118.664 32.243 118.457 32.4372 118.276C32.6255 118.095 32.7872 117.936 32.9225 117.801C33.055 117.663 33.1628 117.544 33.2458 117.443C33.3261 117.34 33.3908 117.25 33.4399 117.174L33.4586 117.158L34.4057 118.238L34.387 118.255C34.3051 118.293 34.209 118.347 34.0986 118.416C33.9883 118.485 33.8559 118.577 33.7015 118.69C33.5471 118.803 33.3689 118.943 33.167 119.109C32.9619 119.277 32.7268 119.478 32.4618 119.71L31.1378 120.871Z" fill="white"></path><path d="M26.4211 107.34C26.6415 107.745 26.7843 108.158 26.8495 108.581C26.9146 109.003 26.8967 109.412 26.7957 109.807C26.6911 110.204 26.5003 110.578 26.2232 110.927C25.9406 111.275 25.5662 111.576 25.1002 111.83C24.6888 112.055 24.2706 112.193 23.8456 112.245C23.417 112.299 23.0069 112.275 22.6154 112.172C22.2239 112.069 21.8669 111.895 21.5446 111.651C21.2202 111.402 20.9548 111.089 20.7483 110.71C20.5438 110.335 20.4197 109.952 20.3761 109.56C20.3288 109.17 20.3654 108.791 20.4859 108.423C20.6008 108.053 20.8035 107.702 21.0941 107.369C21.3791 107.034 21.7498 106.735 22.2063 106.472C22.4234 106.887 22.6423 107.302 22.863 107.715C23.0837 108.128 23.3152 108.557 23.5574 109.001C23.7302 109.318 23.9008 109.627 24.0692 109.927C24.2356 110.223 24.388 110.49 24.5264 110.726C24.8931 110.498 25.2036 110.253 25.4578 109.991C25.71 109.726 25.8997 109.45 26.0268 109.164C26.1483 108.876 26.2018 108.58 26.1872 108.276C26.1707 107.968 26.079 107.662 25.9123 107.356C25.7971 107.145 25.6652 106.959 25.5166 106.799C25.3624 106.638 25.1999 106.504 25.0291 106.399C24.8584 106.294 24.682 106.213 24.4999 106.156C24.3143 106.102 24.1294 106.07 23.9454 106.062L23.9424 105.978L25.1349 105.852C25.3441 105.993 25.5595 106.181 25.7813 106.414C25.9994 106.649 26.2126 106.958 26.4211 107.34ZM23.4859 109.883C23.2873 109.519 23.0888 109.155 22.8902 108.791C22.686 108.425 22.4971 108.096 22.3233 107.804C22.0244 108.009 21.7742 108.226 21.5726 108.454C21.3711 108.682 21.2216 108.915 21.1243 109.152C21.027 109.389 20.9836 109.63 20.9941 109.875C21.0047 110.119 21.0735 110.358 21.2006 110.591C21.3158 110.802 21.4693 110.971 21.6613 111.098C21.8476 111.223 22.0639 111.304 22.3101 111.339C22.5564 111.375 22.8288 111.364 23.1273 111.305C23.4222 111.248 23.7356 111.138 24.0676 110.976C23.9856 110.808 23.8949 110.633 23.7956 110.451C23.6963 110.269 23.5931 110.08 23.4859 109.883Z" fill="white"></path><path d="M16.2717 102.452C15.9405 102.573 15.6543 102.684 15.413 102.785C15.1664 102.883 14.9564 102.973 14.7828 103.054C14.6078 103.131 14.4641 103.203 14.3518 103.27C14.2381 103.334 14.1446 103.392 14.0712 103.445L14.0479 103.454L13.5564 102.103L13.5798 102.095C13.6701 102.088 13.7793 102.073 13.9072 102.048C14.0351 102.024 14.1915 101.987 14.3764 101.937C14.5614 101.888 14.7799 101.821 15.0322 101.738C15.2805 101.657 15.5703 101.556 15.9016 101.435L20.0694 99.9182C20.4006 99.7976 20.6895 99.6881 20.9361 99.5895C21.1788 99.4923 21.3869 99.4034 21.5605 99.3225C21.7341 99.2417 21.8777 99.1696 21.9915 99.1061C22.1052 99.0426 22.1987 98.9843 22.272 98.9312L22.2954 98.9227L22.7868 100.273L22.7635 100.281C22.6731 100.288 22.564 100.303 22.4361 100.328C22.3068 100.348 22.1504 100.385 21.9668 100.439C21.7819 100.489 21.5653 100.554 21.3169 100.636C21.0633 100.715 20.7708 100.815 20.4396 100.935L16.2717 102.452Z" fill="white"></path><path d="M20.0524 91.197C20.1429 91.6483 20.1566 92.0855 20.0935 92.5084C20.0303 92.9314 19.8919 93.3166 19.6782 93.664C19.4604 94.0122 19.1674 94.3121 18.7992 94.5636C18.426 94.8119 17.9792 94.9883 17.4588 95.0927C16.9993 95.1849 16.5589 95.1929 16.1376 95.1167C15.7122 95.0414 15.3278 94.8964 14.9844 94.6819C14.6411 94.4674 14.3518 94.1956 14.1165 93.8663C13.8805 93.533 13.72 93.1549 13.6351 92.7321C13.5511 92.3133 13.5464 91.9103 13.621 91.5231C13.6915 91.1367 13.8389 90.7857 14.0631 90.47C14.2825 90.151 14.5804 89.8756 14.9569 89.6435C15.3284 89.4082 15.7711 89.2327 16.2851 89.1169C16.3691 89.578 16.4552 90.0387 16.5433 90.4989C16.6315 90.9592 16.7253 91.4374 16.8248 91.9334C16.8958 92.2872 16.9672 92.6324 17.039 92.969C17.1099 93.3016 17.1764 93.6013 17.2384 93.868C17.6564 93.7588 18.0255 93.617 18.3458 93.4428C18.6654 93.2645 18.9283 93.0573 19.1348 92.8213C19.3363 92.5821 19.4752 92.3152 19.5515 92.0208C19.6269 91.7222 19.6304 91.4022 19.5619 91.0607C19.5145 90.8248 19.4436 90.6085 19.3492 90.4118C19.2498 90.2118 19.1342 90.0362 19.0024 89.885C18.8705 89.7338 18.7261 89.6041 18.5691 89.4961C18.4079 89.3888 18.2408 89.3039 18.0675 89.2414L18.0894 89.1609L19.2656 89.3944C19.4235 89.5911 19.5737 89.8338 19.7162 90.1224C19.8546 90.4119 19.9667 90.7701 20.0524 91.197ZM16.4947 92.7547C16.4131 92.3481 16.3316 91.9415 16.25 91.5349C16.1635 91.125 16.0807 90.7546 16.0016 90.4236C15.6552 90.5312 15.3519 90.664 15.0918 90.8219C14.8316 90.9799 14.6199 91.1577 14.4565 91.3554C14.2932 91.5532 14.1803 91.7704 14.1178 92.0071C14.0553 92.2438 14.0502 92.4923 14.1024 92.7525C14.1497 92.9883 14.2462 93.1953 14.3919 93.3733C14.5327 93.5481 14.7154 93.6891 14.9399 93.7963C15.1645 93.9035 15.428 93.9733 15.7306 94.0056C16.0291 94.0388 16.3609 94.0272 16.7261 93.9708C16.6975 93.7862 16.6628 93.5923 16.622 93.389C16.5812 93.1857 16.5388 92.9742 16.4947 92.7547Z" fill="white"></path><path d="M13.4057 80.4555L13.4196 80.5424C13.3248 80.573 13.224 80.6225 13.1173 80.6907C13.0106 80.7547 12.9125 80.8393 12.8231 80.9446C12.7336 81.0457 12.661 81.1693 12.6055 81.3154C12.5457 81.4574 12.5174 81.6218 12.5206 81.8083C12.5228 81.9369 12.5436 82.0589 12.5829 82.1743C12.6221 82.2857 12.6798 82.3842 12.756 82.47C12.8279 82.5517 12.9182 82.6165 13.0268 82.6644C13.1355 82.7123 13.2624 82.735 13.4075 82.7325C13.6107 82.7291 13.8045 82.6635 13.989 82.5359C14.1692 82.4042 14.3489 82.2415 14.5281 82.0476C14.7031 81.8538 14.8799 81.6454 15.0586 81.4225C15.2372 81.1955 15.4243 80.9849 15.6201 80.7907C15.8158 80.5966 16.0267 80.4353 16.2526 80.307C16.4743 80.1746 16.7158 80.1062 16.977 80.1017C17.1885 80.0981 17.3964 80.1318 17.6009 80.203C17.8012 80.2742 17.9815 80.3872 18.1418 80.5421C18.302 80.6928 18.4339 80.8896 18.5376 81.1325C18.6371 81.3714 18.6898 81.6588 18.6955 81.9946C18.699 82.1936 18.6835 82.3806 18.6492 82.5554C18.6148 82.726 18.5719 82.8843 18.5205 83.0304C18.4649 83.1724 18.4049 83.302 18.3405 83.4192C18.272 83.5324 18.2073 83.633 18.1466 83.7212L16.9638 83.6793L16.9621 83.5798C17.1563 83.535 17.3335 83.4697 17.4938 83.384C17.6541 83.2983 17.7912 83.1943 17.9053 83.0721C18.0151 82.9458 18.1018 82.8032 18.1654 82.6445C18.2249 82.4859 18.2531 82.3133 18.2499 82.1267C18.2446 81.8199 18.1554 81.5788 17.9824 81.4034C17.8092 81.2239 17.5858 81.1365 17.3121 81.1412C17.0924 81.1449 16.8924 81.2106 16.712 81.3381C16.5275 81.4616 16.3519 81.6181 16.1851 81.8076C16.0183 81.9971 15.8517 82.2011 15.6854 82.4196C15.5191 82.634 15.3421 82.8362 15.1546 83.026C14.9629 83.216 14.7541 83.3751 14.5282 83.5034C14.2981 83.6277 14.0358 83.6923 13.7414 83.6974C13.5009 83.7015 13.2804 83.6617 13.0799 83.5781C12.8751 83.4904 12.7009 83.3689 12.5572 83.2138C12.4093 83.0546 12.2941 82.8657 12.2115 82.6473C12.129 82.4289 12.0854 82.1891 12.0809 81.9279C12.075 81.5837 12.1074 81.297 12.1781 81.0676C12.2446 80.8342 12.31 80.6568 12.3743 80.5354L13.4057 80.4555Z" fill="white"></path><path d="M13.9797 69.3024L13.9783 69.3904C13.8795 69.4041 13.7717 69.4352 13.6548 69.4838C13.5385 69.5283 13.4272 69.5946 13.3208 69.6826C13.215 69.7666 13.1221 69.8757 13.042 70.0099C12.9584 70.1394 12.9019 70.2962 12.8726 70.4805C12.8524 70.6075 12.8516 70.7313 12.8702 70.8518C12.8895 70.9682 12.9291 71.0753 12.9892 71.1731C13.0458 71.266 13.1234 71.3456 13.2221 71.4117C13.3207 71.4778 13.4417 71.5222 13.5851 71.545C13.7858 71.5769 13.988 71.5461 14.1919 71.4526C14.3923 71.3543 14.5976 71.2253 14.8077 71.0656C15.0138 70.9052 15.2242 70.7308 15.439 70.5424C15.6544 70.3499 15.8753 70.1751 16.1019 70.018C16.3285 69.8609 16.5641 69.7388 16.8089 69.6518C17.0503 69.56 17.3 69.5346 17.558 69.5757C17.7669 69.6089 17.9658 69.6784 18.1547 69.784C18.3396 69.889 18.4975 70.0317 18.6283 70.2121C18.7599 70.3884 18.8555 70.6052 18.9154 70.8625C18.9718 71.115 18.9736 71.4071 18.9208 71.7389C18.8896 71.9354 18.8418 72.1168 18.7776 72.283C18.714 72.445 18.6442 72.5935 18.5681 72.7283C18.4886 72.8585 18.407 72.9757 18.3232 73.0799C18.236 73.1794 18.1549 73.2673 18.0797 73.3435L16.9223 73.0964L16.9379 72.9981C17.1369 72.9877 17.3228 72.9543 17.4956 72.8978C17.6683 72.8413 17.8215 72.7628 17.9551 72.6623C18.0852 72.557 18.1954 72.4318 18.2857 72.2866C18.3719 72.1407 18.4296 71.9756 18.459 71.7913C18.5072 71.4883 18.4613 71.2353 18.3214 71.0325C18.1822 70.8256 17.9774 70.7006 17.7071 70.6576C17.4901 70.6231 17.2816 70.6529 17.0819 70.7471C16.8787 70.8366 16.6785 70.9601 16.4812 71.1177C16.284 71.2752 16.0845 71.4472 15.8827 71.6334C15.6815 71.8156 15.4721 71.9838 15.2544 72.1381C15.0326 72.2918 14.7993 72.4122 14.5545 72.4992C14.3062 72.5815 14.0367 72.5995 13.7459 72.5532C13.5084 72.5154 13.2981 72.4379 13.1152 72.3206C12.9289 72.1986 12.7785 72.0487 12.664 71.8709C12.5461 71.6884 12.4655 71.4824 12.4222 71.2529C12.3789 71.0235 12.3778 70.7797 12.4188 70.5217C12.4729 70.1818 12.5547 69.9051 12.6643 69.6915C12.7704 69.4733 12.8657 69.31 12.9501 69.2016L13.9797 69.3024Z" fill="white"></path><path d="M16.8581 53.103C16.5437 52.9436 16.2681 52.8085 16.0313 52.6978C15.7908 52.5852 15.5818 52.4932 15.4041 52.4217C15.2228 52.3484 15.0691 52.2937 14.9432 52.2578C14.8192 52.2182 14.7127 52.1898 14.6237 52.1726L14.6016 52.1613C14.6428 52.0892 14.684 52.0125 14.7252 51.9311C14.7646 51.8627 14.8058 51.786 14.8489 51.7009C14.8939 51.6121 14.9399 51.5215 14.9867 51.429C15.0542 51.2958 15.1322 51.1099 15.2207 50.8711C15.3111 50.6287 15.4472 50.328 15.6291 49.9692C15.7979 49.6363 15.9979 49.3518 16.2292 49.1157C16.4567 48.8777 16.7035 48.6983 16.9694 48.5773C17.2371 48.4527 17.5203 48.394 17.8188 48.4012C18.1156 48.4028 18.4156 48.4805 18.7189 48.6343C18.9741 48.7637 19.1856 48.9151 19.3535 49.0885C19.5176 49.26 19.6426 49.4489 19.7287 49.6553C19.8129 49.8561 19.8608 50.0733 19.8725 50.3071C19.8824 50.5352 19.8625 50.7716 19.813 51.0161C20.0204 50.7261 20.2471 50.4807 20.493 50.2799C20.7353 50.0772 20.9883 49.9265 21.2522 49.8279C21.518 49.7255 21.7909 49.6825 22.0709 49.6988C22.349 49.7097 22.6268 49.7854 22.9042 49.926C23.6847 50.3217 24.1406 50.8759 24.2721 51.5888C24.3998 52.2999 24.204 53.1677 23.6846 54.1923C23.6283 54.3033 23.5572 54.4299 23.4711 54.5723C23.3887 54.7165 23.3025 54.8634 23.2127 55.0132C23.1247 55.1592 23.0377 55.3034 22.9516 55.4457C22.8692 55.5899 22.7998 55.7175 22.7436 55.8285L22.5579 56.1947L22.5358 56.1834C22.4693 56.1218 22.3835 56.0527 22.2782 55.9761C22.1748 55.8958 22.0417 55.8051 21.8791 55.7041C21.7164 55.603 21.5205 55.4897 21.2912 55.3642C21.0582 55.2368 20.7845 55.0934 20.4701 54.934L16.8581 53.103ZM19.7379 52.0033C19.6104 52.2549 19.5128 52.4704 19.445 52.6499C19.3773 52.8294 19.3292 52.9701 19.3008 53.072L20.982 53.9242C21.4148 54.1436 21.7755 54.3171 22.0641 54.4449C22.3527 54.5726 22.5924 54.6685 22.783 54.7326C22.8728 54.6014 22.9607 54.4693 23.0467 54.3362C23.1328 54.2032 23.1974 54.0941 23.2405 54.009C23.5911 53.3173 23.6936 52.7346 23.5478 52.2609C23.4003 51.7815 23.0065 51.3797 22.3666 51.0553C22.1151 50.9278 21.866 50.8504 21.6195 50.823C21.3712 50.7901 21.1327 50.8111 20.9042 50.8859C20.6775 50.9569 20.4654 51.0865 20.2678 51.2746C20.0683 51.4571 19.8917 51.7 19.7379 52.0033ZM18.8015 52.8188C18.8651 52.7209 18.9194 52.6322 18.9643 52.5527C19.0056 52.4713 19.0496 52.3844 19.0965 52.2919C19.224 52.0404 19.3051 51.7932 19.3398 51.5504C19.3709 51.3058 19.3508 51.0748 19.2797 50.8574C19.2104 50.6363 19.0892 50.4307 18.9159 50.2406C18.7389 50.0486 18.5062 49.8794 18.2176 49.7332C17.9772 49.6113 17.744 49.5303 17.5179 49.4901C17.2919 49.4499 17.0804 49.4543 16.8836 49.5032C16.6849 49.5467 16.5054 49.6347 16.3452 49.7673C16.1849 49.9 16.0495 50.0754 15.9389 50.2937C15.8676 50.4342 15.8104 50.5609 15.7671 50.6738C15.7257 50.783 15.6936 50.8784 15.6709 50.9599C15.6426 51.0524 15.6245 51.1339 15.6167 51.2044L18.8015 52.8188Z" fill="white"></path><path d="M30.0088 43.5313C29.7244 43.8932 29.4008 44.1875 29.0382 44.4141C28.6755 44.6407 28.2927 44.7855 27.8897 44.8486C27.4835 44.9091 27.0652 44.881 26.6347 44.7643C26.2036 44.6417 25.7794 44.4165 25.362 44.0885C24.9935 43.7989 24.7015 43.4692 24.4858 43.0993C24.2669 42.7268 24.1276 42.3404 24.0677 41.94C24.0079 41.5396 24.0268 41.143 24.1244 40.7503C24.2246 40.3544 24.408 39.9869 24.6745 39.6477C24.9384 39.3119 25.2418 39.0466 25.5847 38.8519C25.9243 38.6547 26.287 38.5388 26.6727 38.5044C27.0577 38.4641 27.4607 38.5118 27.8816 38.6474C28.3017 38.7772 28.7227 38.9999 29.1445 39.3156C28.8484 39.6789 28.554 40.0435 28.2612 40.4094C27.9684 40.7753 27.6656 41.1571 27.353 41.5549C27.1301 41.8386 26.9139 42.117 26.7045 42.3902C26.4976 42.6602 26.3129 42.9053 26.1503 43.1256C26.5048 43.3726 26.8523 43.5613 27.1928 43.6917C27.5359 43.8189 27.8642 43.8844 28.1777 43.8882C28.4905 43.8861 28.7836 43.8185 29.0571 43.6853C29.3331 43.5488 29.5788 43.3436 29.794 43.0697C29.9426 42.8806 30.0611 42.6863 30.1494 42.4867C30.237 42.2812 30.2955 42.0793 30.3248 41.8808C30.3542 41.6824 30.359 41.4884 30.3392 41.2988C30.3162 41.1066 30.2722 40.9243 30.2072 40.752L30.2827 40.7163L30.8688 41.7625C30.8218 42.0103 30.7347 42.2821 30.6078 42.5779C30.4775 42.8711 30.2779 43.1889 30.0088 43.5313ZM26.5141 41.8372C26.7704 41.5111 27.0266 41.185 27.2829 40.859C27.5384 40.5271 27.7663 40.2236 27.9667 39.9485C27.6599 39.7549 27.3621 39.6105 27.073 39.5152C26.784 39.4199 26.5112 39.3744 26.2548 39.3785C25.9983 39.3827 25.7598 39.4379 25.5392 39.5441C25.3186 39.6502 25.1263 39.8077 24.9623 40.0164C24.8137 40.2055 24.719 40.4132 24.6782 40.6396C24.6368 40.8602 24.6481 41.0907 24.7124 41.3311C24.7767 41.5715 24.8947 41.8172 25.0666 42.0683C25.2352 42.3168 25.4595 42.5617 25.7394 42.8028C25.8613 42.6612 25.9863 42.5088 26.1144 42.3458C26.2425 42.1828 26.3758 42.0132 26.5141 41.8372Z" fill="white"></path><path d="M33.6417 36.03C33.4259 35.7835 33.2886 35.5261 33.23 35.2577C33.1745 34.9866 33.175 34.7133 33.2314 34.4379C33.2879 34.1624 33.3896 33.8914 33.5365 33.6249C33.6808 33.3553 33.8492 33.0975 34.0418 32.8517C34.2317 32.6027 34.4321 32.372 34.6431 32.1597C34.8513 31.9443 35.0477 31.7531 35.2321 31.586L35.0231 31.3473C34.8428 31.1414 34.6605 30.9868 34.4764 30.8835C34.2922 30.7802 34.1094 30.7226 33.928 30.7105C33.7438 30.6954 33.5626 30.7245 33.3844 30.798C33.2065 30.8655 33.0365 30.9703 32.8742 31.1124C32.7619 31.2108 32.6594 31.3171 32.5666 31.4315C32.4738 31.5458 32.3872 31.6767 32.3069 31.8242C32.2297 31.969 32.1584 32.1362 32.0929 32.3258C32.0306 32.5127 31.9751 32.7295 31.9264 32.976L31.855 32.9889L31.5954 32.0504C31.6574 31.9135 31.726 31.7872 31.8012 31.6717C31.8738 31.5531 31.9533 31.4393 32.0399 31.3305C32.1264 31.2216 32.22 31.1176 32.3206 31.0184C32.4216 30.9134 32.5314 30.809 32.6499 30.7052C32.9775 30.4183 33.2923 30.2144 33.5942 30.0933C33.8965 29.9664 34.1824 29.9089 34.452 29.9209C34.7219 29.927 34.9732 29.9936 35.2058 30.1207C35.4356 30.2447 35.6434 30.4127 35.8292 30.6249L37.1652 32.1505C37.3975 32.4157 37.6041 32.6454 37.7852 32.8396C37.9667 33.0279 38.125 33.1897 38.26 33.3251C38.3982 33.4576 38.5174 33.5655 38.6177 33.6485C38.7211 33.7288 38.8109 33.7936 38.887 33.8427L38.9034 33.8614L37.8691 34.7671L37.8527 34.7484C37.8246 34.6848 37.7864 34.6191 37.738 34.5512C37.6927 34.4806 37.6349 34.3989 37.5647 34.3061C37.5483 34.4197 37.5209 34.5457 37.4823 34.6842C37.4469 34.82 37.3933 34.9634 37.3216 35.1144C37.2502 35.2595 37.1567 35.4076 37.0409 35.5586C36.9309 35.7101 36.7933 35.8582 36.6279 36.003C36.0851 36.4784 35.5548 36.7195 35.0371 36.7263C34.5167 36.7301 34.0516 36.4979 33.6417 36.03ZM35.5518 31.951C35.2706 32.2028 35.0127 32.459 34.7779 32.7197C34.5404 32.9773 34.3613 33.2417 34.2405 33.5128C34.1228 33.7813 34.0796 34.0562 34.1109 34.3374C34.1426 34.6128 34.2842 34.8941 34.5355 35.1811C34.8579 35.5492 35.1959 35.7494 35.5493 35.7816C35.9028 35.8139 36.2417 35.6879 36.5662 35.4038C36.716 35.2726 36.8339 35.1335 36.9201 34.9864C37.0066 34.8334 37.0694 34.6848 37.1083 34.5404C37.1476 34.3902 37.1673 34.2489 37.1672 34.1167C37.1644 33.9813 37.1488 33.8627 37.1203 33.7609C37.0227 33.6369 36.9111 33.5031 36.7854 33.3596C36.657 33.213 36.5122 33.0476 36.351 32.8636L35.5518 31.951Z" fill="white"></path><path d="M43.1807 27.7829C43.459 28.2543 43.7564 28.5459 44.0729 28.6576C44.3929 28.7672 44.7118 28.7282 45.0296 28.5405C45.1438 28.4731 45.2587 28.3739 45.3741 28.2432C45.4874 28.1088 45.5959 27.9581 45.6995 27.791C45.8045 27.6182 45.9004 27.4339 45.9871 27.2382C46.0774 27.0404 46.151 26.8429 46.2078 26.6455C46.1538 26.5378 46.0931 26.4267 46.0256 26.3125C45.956 26.1946 45.8822 26.0696 45.8042 25.9375L45.0387 24.6413C44.8595 24.3377 44.6981 24.0767 44.5545 23.858C44.4124 23.6337 44.2858 23.4436 44.1745 23.2878C44.0668 23.1299 43.9695 23.0019 43.8827 22.9038C43.7995 22.8037 43.725 22.7224 43.6593 22.6601L43.6467 22.6387L44.884 21.908L44.8966 21.9294C44.9195 22.0171 44.9547 22.1215 45.0022 22.2427C45.0497 22.364 45.1148 22.511 45.1975 22.6837C45.2803 22.8564 45.3855 23.0591 45.5133 23.2918C45.639 23.521 45.7915 23.7874 45.9708 24.0909L46.7362 25.3872C46.9154 25.6907 47.0761 25.9546 47.2182 26.1789C47.3582 26.3997 47.4838 26.588 47.5951 26.7438C47.7064 26.8996 47.8037 27.0276 47.8869 27.1278C47.9701 27.2279 48.0446 27.3092 48.1103 27.3715L48.1229 27.3929L46.8856 28.1236L46.873 28.1022C46.8417 28.0002 46.7956 27.8733 46.7348 27.7214C46.6776 27.5674 46.5879 27.3747 46.4657 27.1434C46.3931 27.3549 46.307 27.5719 46.2073 27.7945C46.1111 28.015 45.9987 28.2283 45.8699 28.4344C45.7447 28.6384 45.6044 28.8248 45.4489 28.9937C45.299 29.164 45.1331 29.303 44.9509 29.4105C44.6724 29.575 44.4065 29.667 44.1531 29.6866C43.9034 29.7041 43.6696 29.6711 43.4518 29.5878C43.2376 29.5024 43.0429 29.3766 42.8677 29.2103C42.6961 29.042 42.548 28.8525 42.4236 28.6418L41.3482 26.8206C41.169 26.5171 41.0093 26.2549 40.8694 26.0342C40.7273 25.8099 40.6006 25.6198 40.4893 25.464C40.378 25.3081 40.2807 25.1801 40.1975 25.08C40.1143 24.9798 40.0398 24.8986 39.9741 24.8363L39.9615 24.8148L41.1988 24.0842L41.2114 24.1056C41.2343 24.1932 41.2695 24.2977 41.317 24.4189C41.3645 24.5402 41.4296 24.6871 41.5124 24.8598C41.5951 25.0325 41.7003 25.2352 41.8281 25.468C41.9539 25.6972 42.1063 25.9635 42.2856 26.2671L43.1807 27.7829Z" fill="white"></path><path d="M54.9931 23.6959C55.1091 23.6509 55.2149 23.5853 55.3105 23.4993C55.41 23.4117 55.4976 23.3109 55.5735 23.197C55.6532 23.0815 55.7233 22.9586 55.7839 22.8283C55.8469 22.6926 55.9007 22.556 55.9452 22.4186L56.0144 22.4251L56.0001 23.5051C55.9627 23.5463 55.916 23.5978 55.8599 23.6596C55.8062 23.716 55.7363 23.7766 55.6501 23.8412C55.5694 23.9081 55.469 23.976 55.3489 24.0449C55.2303 24.1177 55.0841 24.1878 54.9101 24.2554C54.3921 24.4565 53.9341 24.4743 53.5361 24.3085C53.1404 24.1374 52.827 23.7542 52.5958 23.1589L51.0936 19.2912L50.133 19.7044L49.9348 19.1941C50.0576 19.1553 50.2029 19.1055 50.3707 19.0448C50.5384 18.9841 50.7208 18.9155 50.918 18.8389C50.8075 18.566 50.7059 18.3274 50.6133 18.1231C50.523 17.9135 50.4401 17.7344 50.3645 17.5858C50.2914 17.4318 50.2241 17.3044 50.1628 17.2037C50.1014 17.1029 50.0468 17.0196 49.9989 16.9537L49.9899 16.9305L51.3294 16.4102L51.3384 16.4334C51.3437 16.5159 51.3578 16.615 51.3805 16.7307C51.4032 16.8465 51.4368 16.9847 51.4814 17.1453C51.5299 17.3045 51.5896 17.4926 51.6606 17.7097C51.7339 17.9215 51.8227 18.1673 51.9269 18.4471C52.169 18.3486 52.4052 18.2524 52.6357 18.1585C52.8685 18.0592 53.0781 17.9689 53.2645 17.8876C53.4533 17.8009 53.6119 17.7282 53.7403 17.6694C53.8711 17.6053 53.9563 17.5611 53.9958 17.5368L54.1211 18.1688C53.9225 18.2415 53.7134 18.316 53.4939 18.3924C53.3054 18.4567 53.0905 18.5335 52.8493 18.6227C52.6081 18.7119 52.3592 18.8042 52.1026 18.8994L53.652 22.8888C53.7451 23.1285 53.846 23.314 53.9548 23.4452C54.066 23.5711 54.1787 23.6608 54.2929 23.7143C54.411 23.7663 54.5282 23.7875 54.6446 23.7779C54.7649 23.7668 54.881 23.7395 54.9931 23.6959Z" fill="white"></path><path d="M62.3746 21.5601L59.2344 17.3321C59.1193 17.1701 58.9998 17.0174 58.876 16.8742C58.7513 16.727 58.6346 16.5971 58.5258 16.4846C58.421 16.3712 58.3292 16.2784 58.2502 16.2062C58.1703 16.13 58.1177 16.0818 58.0922 16.0618L58.087 16.0375L59.681 15.6977L59.6862 15.722C59.6824 15.744 59.6828 15.7757 59.6874 15.8172C59.692 15.8586 59.6977 15.8955 59.7046 15.928C59.7314 16.0537 59.7795 16.1897 59.8489 16.3361C59.9214 16.4775 60.0346 16.6505 60.1885 16.8552L62.6459 20.1475L63.4112 16.219C63.4441 16.0551 63.474 15.877 63.5008 15.6847C63.5317 15.4916 63.5277 15.3037 63.4888 15.1212C63.4776 15.0685 63.4644 15.0268 63.4494 14.9961C63.4335 14.9613 63.4202 14.9387 63.4095 14.9282L63.4043 14.9039L64.4994 14.6704L64.5046 14.6948C64.448 14.7874 64.3841 14.9452 64.3129 15.1681C64.2449 15.3862 64.1796 15.6566 64.117 15.9795L62.6884 23.5095C62.6555 23.6734 62.6236 23.8519 62.5927 24.0451C62.5658 24.2374 62.5719 24.4248 62.6108 24.6073C62.622 24.66 62.6351 24.7017 62.6502 24.7324C62.6661 24.7672 62.6794 24.7898 62.6901 24.8003L62.6953 24.8246L61.5576 25.0671L61.5524 25.0428C61.613 24.9493 61.6773 24.7935 61.7454 24.5755C61.8183 24.3607 61.8865 24.0938 61.95 23.775L62.3746 21.5601Z" fill="white"></path><path d="M90.2324 83.8451C82.8458 70.2435 66.2307 71.1694 62.3516 66.701C60.051 64.0524 59.6294 60.8545 59.9324 58.0012C60.1854 55.6324 60.9417 53.4978 61.5399 52.1035C62.399 51.4655 63.2924 50.8733 64.2226 50.3323C64.3518 50.8033 64.5019 51.2663 64.6838 51.7186C64.9156 52.3081 65.2529 52.8787 65.6799 53.4467C67.1188 55.3606 69.5879 57.2233 72.5342 59.4467C75.4908 61.6808 78.9087 64.2623 81.963 67.4979C85.8868 71.6459 89.2178 76.8788 90.2324 83.8451Z" fill="#66A589"></path><path d="M106.715 85.3609C104.691 92.0823 100.367 97.9557 94.4244 101.783C94.5929 95.3555 93.6785 89.8427 91.7101 85.377C90.4609 71.3446 80.5418 63.856 73.2951 58.3837C69.7849 55.7323 66.757 53.4443 65.8742 51.2235C65.7609 50.9355 65.658 50.6394 65.5685 50.3379C65.5658 50.3352 65.5658 50.3325 65.5658 50.3325C66.2932 49.9422 67.039 49.5896 67.8006 49.2693C67.8006 49.2693 67.8006 49.2693 67.8032 49.272C69.321 50.9544 73.9459 55.1347 83.8834 57.3231C85.7228 57.7296 87.5569 58.3675 89.3331 59.2074C93.9447 61.3824 98.1847 64.9058 101.223 69.1751C101.547 69.6219 101.853 70.0795 102.143 70.5425C104.923 74.9544 106.457 79.9746 106.715 85.3609Z" fill="#41705B"></path><path d="M108 76.6714C108 78.2972 107.868 79.907 107.613 81.4897C106.935 77.304 105.47 73.382 103.233 69.8315C98.8425 62.8517 91.7117 57.6942 84.1538 56.0307C75.3362 54.0953 70.8459 50.4856 69.1277 48.7548C69.125 48.7521 69.1224 48.7521 69.1224 48.7521C70.4242 48.2757 71.7602 47.8907 73.1148 47.6081C75.0306 47.207 76.9886 47.0024 78.9544 47.0024C79.0836 47.0024 79.21 47.0024 79.3392 47.0051C89.2055 47.137 97.9017 52.3187 103.056 60.133C106.179 64.8625 108 70.553 108 76.6714Z" fill="#66A589"></path><path d="M59.2946 89.6544C62.5571 94.9006 65.693 99.9505 65.556 104.357C55.21 99.6193 48 89.003 48 76.6691C48 67.7404 51.7737 59.7189 57.782 54.1711C55.0124 58.6826 50.9699 67.0757 52.5906 75.649C53.4602 80.2655 56.4275 85.0352 59.2946 89.6544Z" fill="#66A589"></path><path d="M87.8661 85.3607C87.0623 86.5019 86.111 87.5356 85.1069 88.5101C84.0977 89.4818 83.0146 90.3647 81.9104 91.226C81.3729 91.646 80.8247 92.047 80.2687 92.4374C81.784 94.1466 85.0859 100.279 83.6787 106.384C83.3334 106.454 82.9883 106.524 82.6378 106.58C81.0276 106.855 79.3753 107 77.6887 107C73.8598 107 70.1995 106.26 66.8369 104.909C67.2217 99.9475 63.7642 94.3809 60.3885 88.9488C57.5846 84.4374 54.6858 79.7698 53.861 75.4037C52.1771 66.5262 57.1155 57.5625 59.677 53.6541C58.5649 56.8519 57.6162 61.8559 60.4412 65.8801C60.5018 66.2732 60.5756 66.6851 60.6546 67.113C60.8101 67.9098 60.9103 68.6366 60.9656 69.3068C60.9024 69.3472 60.8338 69.3875 60.7627 69.4226C60.6046 69.506 60.428 69.5679 60.2514 69.6191C59.8904 69.7214 59.503 69.7617 59.1157 69.7537C58.723 69.7537 58.3304 69.681 57.9377 69.5976C57.7427 69.5464 57.5503 69.4872 57.3553 69.4307L56.7809 69.2208L57.3184 69.5249C57.5029 69.6111 57.6874 69.7053 57.8771 69.7887C58.2619 69.9421 58.6571 70.0848 59.0761 70.1575C59.4899 70.2354 59.922 70.2705 60.3621 70.222C60.5782 70.1951 60.7969 70.1575 61.013 70.0874C61.1527 74.0552 59.5768 75.7914 57.9588 77.9233V77.9259C56.325 80.0767 58.9707 81.0161 60.2541 81.7914C60.5229 81.9529 60.7311 82.1063 60.8312 82.2651C61.0025 82.537 61.071 82.782 61.0947 83.0134C61.1501 83.5492 60.9498 83.9771 61.1975 84.3513C61.4742 84.7711 62.2911 85.0054 62.6732 85.148C62.7813 85.1884 62.8524 85.2207 62.8683 85.2476C62.8787 85.2665 62.863 85.296 62.8234 85.3392C62.6285 85.5626 61.8563 86.1009 62.0619 86.8169C62.3043 87.6676 63.564 87.7241 63.8722 87.7187C64.1727 87.7106 64.7973 88.5746 64.9975 90.9596C65.1898 93.2342 66.0911 95.1454 69.4774 94.8009C69.6408 94.7874 69.8147 94.7658 69.9887 94.7388C71.4828 94.5074 73.143 93.9879 74.6714 93.463C75.6728 93.0565 76.6795 92.6016 77.6677 92.136C78.8905 91.5491 80.1106 90.9354 81.2911 90.257C82.4744 89.576 83.6418 88.8654 84.7486 88.0605C85.8528 87.253 86.9148 86.3808 87.8661 85.3607Z" fill="#41705B"></path><path opacity="0.2" d="M90.2324 83.8456C82.8458 70.244 66.2307 71.1699 62.3516 66.7015C60.051 64.0529 59.6294 60.855 59.9324 58.0017C60.3119 60.9897 61.9773 66.1228 68.8185 67.4311C78.6295 69.3126 84.1503 73.2803 87.3521 77.9426C87.3521 77.9426 86.7907 74.5051 81.963 67.4956C85.8868 71.6464 89.2178 76.8793 90.2324 83.8456Z" fill="#66A589"></path><path opacity="0.2" d="M106.715 85.3603C104.691 92.0818 100.367 97.9552 94.4243 101.783C94.5929 95.355 93.6786 89.8422 91.71 85.3764C90.4609 71.3441 80.5419 63.8555 73.295 58.3832C69.7848 55.7318 66.7569 53.4437 65.8741 51.223C65.7608 50.935 65.6581 50.6389 65.5685 50.3374C65.6818 50.5151 69.3184 56.2324 79.5826 60.9592C90.0076 65.7641 96.8224 85.46 96.0713 94.1625C96.0713 94.1625 99.6842 89.0616 95.5284 76.9619C95.6865 77.1773 101.365 85.0777 99.8871 92.4209C99.8871 92.4209 104.652 89.6403 104.52 82.2594C104.433 77.215 102.462 71.9848 101.22 69.1718C101.545 69.6187 101.85 70.0764 102.14 70.5394C104.923 74.9539 106.457 79.9741 106.715 85.3603Z" fill="#66A589"></path><path opacity="0.2" d="M107.999 76.6717C107.999 78.2976 107.867 79.9073 107.611 81.49C106.934 77.3043 105.469 73.3823 103.232 69.8319C98.8414 62.8521 91.7104 57.6946 84.1525 56.0311C75.3351 54.0957 70.8446 50.486 69.1264 48.7551C69.3161 48.8897 75.4378 53.1374 84.8772 54.1764C94.4616 55.2316 102.665 63.8696 105.319 69.665C105.319 69.665 104.863 64.8493 103.055 60.1333C106.178 64.8628 107.999 70.5533 107.999 76.6717Z" fill="#66A589"></path><path opacity="0.2" d="M82.6351 106.577C81.025 106.851 79.3727 106.997 77.6862 106.997C73.8572 106.997 70.1968 106.256 66.8343 104.905C67.219 99.9441 63.7615 94.3775 60.3858 88.9455C57.5819 84.4339 54.6832 79.7664 53.8584 75.4003C52.1745 66.5228 57.1129 57.5591 59.6743 53.6506C59.5267 53.9602 53.1416 67.6857 57.9561 77.9199V77.9225C56.3223 80.0733 58.9681 81.0127 60.2514 81.7879C60.5334 82.2106 60.8154 82.617 61.0921 83.01C61.1474 83.5456 60.9471 83.9737 61.1949 84.3479C61.4716 84.7678 62.2885 85.002 62.6706 85.1446C62.7206 85.2093 62.7681 85.2766 62.8208 85.3384C62.6258 85.5618 61.8537 86.1002 62.0592 86.8162C62.3017 87.6668 63.5613 87.7233 63.8696 87.7179C64.17 87.7099 64.7946 88.574 64.9949 90.9589C65.1873 93.2335 66.0885 95.1446 69.4747 94.8001C70.5156 97.0693 71.2245 99.7422 71.4749 103.349C71.4749 103.349 74.8374 100.937 73.2932 96.9455C73.2932 96.9455 75.8362 100.657 76.8376 103.349C77.723 105.739 79.9393 106.905 82.6351 106.577Z" fill="#66A589"></path><path opacity="0.2" d="M80.4702 69.3816C76.5516 64.2565 70.3377 64.8352 65.9764 60.6117C61.6151 56.3883 64.2214 50.3345 64.2214 50.3345C64.3506 50.8055 64.5007 51.2685 64.6825 51.7207C64.9144 52.3103 65.2517 52.8809 65.6786 53.4489C66.1925 57.1716 68.978 60.4718 74.1114 62.7947C80.4702 65.6697 80.4702 69.3816 80.4702 69.3816Z" fill="black"></path><path opacity="0.2" d="M100.847 83.8448C100.096 71.2311 86.8063 60.0548 78.2919 57.3388C69.9065 54.6685 67.8669 49.4357 67.8064 49.2715C69.3242 50.9539 73.949 55.1342 83.8865 57.3226C85.7258 57.7291 87.56 58.367 89.3361 59.2069C101.405 68.9754 100.847 83.8448 100.847 83.8448Z" fill="black"></path><path opacity="0.2" d="M96.9574 56.5747C92.459 51.2503 86.738 51.8775 80.4714 50.6931C76.5054 49.9421 74.2417 48.5397 73.1164 47.6057C75.0323 47.2046 76.9902 47 78.9562 47C79.0852 47 79.2117 47 79.3409 47.0027C80.9853 48.677 85.0725 49.8156 89.7395 51.0404C94.9704 52.4105 96.8994 56.4482 96.9574 56.5747Z" fill="black"></path></svg>