<svg xmlns="http://www.w3.org/2000/svg" width="160" height="44" viewBox="0 0 160 44" fill="none"><g clip-path="url(#clip0_1_605)"><path d="M31.0939 26.5546C25.6561 16.7518 13.4244 17.4191 10.5687 14.1987C8.8751 12.2898 8.5647 9.98506 8.7878 7.92867C8.97404 6.22147 9.53082 4.68305 9.9712 3.67813C10.6036 3.21835 11.2613 2.79155 11.9461 2.40161C12.0412 2.74111 12.1517 3.07479 12.2856 3.40071C12.4563 3.82557 12.7046 4.23685 13.0189 4.64619C14.0782 6.02553 15.8959 7.36801 18.0649 8.97044C20.2415 10.5806 22.7577 12.4411 25.0062 14.773C27.8948 17.7625 30.347 21.5339 31.0939 26.5546Z" fill="#66A589"></path><path d="M43.2281 27.647C41.7382 32.4912 38.5546 36.7242 34.18 39.4829C34.3041 34.8502 33.6309 30.8771 32.1818 27.6586C31.2622 17.5454 23.96 12.1483 18.6251 8.20433C16.041 6.29343 13.8119 4.64444 13.162 3.04394C13.0786 2.83636 13.0029 2.62296 12.937 2.40568C12.935 2.40374 12.935 2.4018 12.935 2.4018C13.4705 2.1205 14.0195 1.86636 14.5802 1.6355C14.5802 1.6355 14.5802 1.6355 14.5821 1.63744C15.6995 2.84994 19.1042 5.86275 26.42 7.43997C27.7741 7.73291 29.1243 8.19269 30.4319 8.79797C33.8269 10.3655 36.9483 12.9049 39.1852 15.9818C39.4238 16.3038 39.6488 16.6336 39.8622 16.9673C41.9089 20.147 43.038 23.7651 43.2281 27.647Z" fill="#41705B"></path><path d="M44.174 21.3844C44.174 22.5561 44.077 23.7163 43.8888 24.857C43.3902 21.8403 42.3116 19.0137 40.6645 16.4548C37.4325 11.4244 32.1829 7.70738 26.619 6.50846C20.1277 5.1136 16.822 2.51207 15.5571 1.26465C15.5551 1.26271 15.5532 1.26271 15.5532 1.26271C16.5116 0.919328 17.4951 0.641908 18.4923 0.438208C19.9027 0.149149 21.3441 0.00170898 22.7913 0.00170898C22.8864 0.00170898 22.9795 0.0017094 23.0746 0.0036494C30.3379 0.0987092 36.7399 3.83321 40.5346 9.46502C42.8335 12.8736 44.174 16.9748 44.174 21.3844Z" fill="#66A589"></path><path d="M8.31825 30.7413C10.72 34.5223 13.0286 38.1618 12.9277 41.3375C5.31126 37.9231 0.00341797 30.2718 0.00341797 21.3827C0.00341797 14.9477 2.7815 9.16655 7.2047 5.16821C5.16576 8.41965 2.1898 14.4686 3.3829 20.6475C4.0231 23.9746 6.20753 27.4122 8.31825 30.7413Z" fill="#66A589"></path><path d="M29.3518 27.6469C28.7601 28.4694 28.0598 29.2144 27.3206 29.9167C26.5776 30.617 25.7803 31.2533 24.9674 31.8741C24.5717 32.1768 24.1681 32.4658 23.7588 32.7471C24.8743 33.979 27.3051 38.3984 26.2692 42.7983C26.015 42.8487 25.7609 42.8992 25.5029 42.9399C24.3175 43.1378 23.1011 43.2425 21.8595 43.2425C19.0407 43.2425 16.3461 42.709 13.8706 41.7352C14.1539 38.1597 11.6086 34.1478 9.12347 30.2329C7.05932 26.9815 4.92532 23.6175 4.3181 20.4708C3.07844 14.0727 6.714 7.61253 8.59968 4.79565C7.781 7.10037 7.08259 10.7068 9.16226 13.6071C9.20688 13.8904 9.26121 14.1872 9.31941 14.4956C9.43387 15.0699 9.50759 15.5937 9.54833 16.0767C9.50177 16.1058 9.45132 16.1349 9.39894 16.1602C9.28255 16.2203 9.15257 16.2649 9.02258 16.3018C8.7568 16.3755 8.47163 16.4046 8.18645 16.3988C7.89739 16.3988 7.60833 16.3464 7.31926 16.2863C7.1757 16.2494 7.03409 16.2067 6.89053 16.166L6.46762 16.0147L6.86337 16.2339C6.99917 16.296 7.13498 16.3639 7.27466 16.424C7.5579 16.5346 7.84888 16.6374 8.15734 16.6898C8.46193 16.746 8.78009 16.7713 9.10406 16.7363C9.26314 16.7169 9.42417 16.6898 9.58325 16.6393C9.68607 19.4989 8.52594 20.7502 7.33479 22.2867V22.2886C6.13199 23.8387 8.07974 24.5157 9.02452 25.0745C9.2224 25.1909 9.37566 25.3014 9.44938 25.4159C9.57548 25.6118 9.62593 25.7884 9.64338 25.9552C9.68412 26.3413 9.53668 26.6497 9.71904 26.9194C9.92274 27.222 10.5241 27.3908 10.8054 27.4936C10.885 27.5227 10.9373 27.546 10.949 27.5654C10.9567 27.579 10.9451 27.6003 10.916 27.6314C10.7725 27.7924 10.204 28.1804 10.3554 28.6964C10.5338 29.3095 11.4612 29.3502 11.6881 29.3463C11.9093 29.3405 12.3691 29.9632 12.5165 31.6821C12.6581 33.3214 13.3216 34.6988 15.8145 34.4505C15.9348 34.4408 16.0628 34.4252 16.1909 34.4058C17.2908 34.239 18.513 33.8646 19.6382 33.4863C20.3754 33.1933 21.1165 32.8655 21.844 32.5299C22.7442 32.1069 23.6424 31.6646 24.5115 31.1757C25.3826 30.6849 26.242 30.1728 27.0568 29.5927C27.8697 29.0107 28.6515 28.3821 29.3518 27.6469Z" fill="#41705B"></path><path opacity="0.2" d="M31.0939 26.5549C25.6561 16.7521 13.4244 17.4194 10.5687 14.199C8.8751 12.2901 8.5647 9.98535 8.7878 7.92896C9.06716 10.0824 10.2932 13.7819 15.3295 14.7248C22.5521 16.0808 26.6164 18.9404 28.9735 22.3005C28.9735 22.3005 28.5602 19.8231 25.0062 14.7713C27.8948 17.7628 30.347 21.5342 31.0939 26.5549Z" fill="#66A589"></path><path opacity="0.2" d="M43.2281 27.6466C41.7382 32.4908 38.5547 36.7238 34.18 39.4825C34.3041 34.8498 33.631 30.8767 32.1818 27.6582C31.2622 17.545 23.9601 12.1479 18.6251 8.20393C16.041 6.29303 13.8119 4.64403 13.162 3.04353C13.0786 2.83595 13.003 2.62255 12.937 2.40527C13.0204 2.53331 15.6976 6.65387 23.2539 10.0605C30.9285 13.5234 35.9454 27.7184 35.3925 33.9904C35.3925 33.9904 38.0522 30.3141 34.9928 21.5938C35.1092 21.749 39.2899 27.4429 38.2016 32.7352C38.2016 32.7352 41.7091 30.7312 41.6121 25.4117C41.5481 21.7762 40.097 18.0067 39.1832 15.9794C39.4218 16.3015 39.6469 16.6313 39.8603 16.965C41.9089 20.1466 43.038 23.7647 43.2281 27.6466Z" fill="#66A589"></path><path opacity="0.2" d="M44.173 21.3846C44.173 22.5564 44.076 23.7165 43.8879 24.8572C43.3893 21.8405 42.3106 19.0139 40.6636 16.4551C37.4316 11.4247 32.1819 7.70762 26.618 6.50871C20.1268 5.11385 16.821 2.51231 15.5561 1.26489C15.6958 1.36189 20.2024 4.42321 27.1515 5.17205C34.2073 5.93253 40.2465 12.158 42.2001 16.3348C42.2001 16.3348 41.8644 12.8641 40.5336 9.46526C42.8325 12.8738 44.173 16.975 44.173 21.3846Z" fill="#66A589"></path><path opacity="0.2" d="M25.5009 42.9375C24.3156 43.1354 23.0992 43.2401 21.8576 43.2401C19.0388 43.2401 16.3441 42.7066 13.8687 41.7327C14.1519 38.1573 11.6066 34.1454 9.12152 30.2305C7.05736 26.979 4.92336 23.6151 4.31614 20.4684C3.07649 14.0703 6.71204 7.61009 8.59772 4.79321C8.48908 5.01631 3.78846 14.9084 7.33284 22.2843V22.2862C6.13004 23.8363 8.0778 24.5133 9.02258 25.072C9.23016 25.3766 9.43774 25.6695 9.64144 25.9528C9.68218 26.3388 9.53474 26.6473 9.7171 26.917C9.9208 27.2196 10.5222 27.3884 10.8035 27.4912C10.8403 27.5378 10.8753 27.5863 10.9141 27.6309C10.7705 27.7919 10.2021 28.1799 10.3534 28.6959C10.5319 29.309 11.4592 29.3497 11.6862 29.3458C11.9073 29.34 12.3671 29.9628 12.5146 31.6816C12.6562 33.3209 13.3197 34.6983 15.8125 34.45C16.5788 36.0854 17.1007 38.0118 17.285 40.6114C17.285 40.6114 19.7604 38.8732 18.6236 35.9962C18.6236 35.9962 20.4957 38.6714 21.2329 40.6114C21.8847 42.3341 23.5163 43.1742 25.5009 42.9375Z" fill="#66A589"></path><path opacity="0.2" d="M23.9072 16.1307C21.0224 12.437 16.4479 12.8541 13.2372 9.81023C10.0265 6.76637 11.9452 2.40332 11.9452 2.40332C12.0403 2.74282 12.1508 3.0765 12.2847 3.40242C12.4554 3.82728 12.7037 4.23856 13.018 4.6479C13.3963 7.33091 15.4469 9.70935 19.226 11.3835C23.9072 13.4555 23.9072 16.1307 23.9072 16.1307Z" fill="black"></path><path opacity="0.2" d="M38.9081 26.5545C38.3552 17.4637 28.5718 9.40884 22.3037 7.45138C16.1306 5.5269 14.6291 1.75555 14.5845 1.63721C15.7019 2.84971 19.1066 5.86252 26.4223 7.43974C27.7764 7.73268 29.1267 8.19246 30.4342 8.79774C39.3194 15.838 38.9081 26.5545 38.9081 26.5545Z" fill="black"></path><path opacity="0.2" d="M36.0448 6.90057C32.7332 3.06326 28.5215 3.51528 23.9082 2.66168C20.9885 2.12042 19.322 1.10968 18.4936 0.4365C19.904 0.14744 21.3454 0 22.7927 0C22.8877 0 22.9808 4.14439e-07 23.0759 0.00194041C24.2865 1.20862 27.2954 2.02924 30.7311 2.91194C34.582 3.8994 36.0021 6.80939 36.0448 6.90057Z" fill="black"></path><path d="M74.0996 31.25C74.0996 31.3753 74.0825 31.5064 74.0483 31.6431C74.0256 31.7798 73.9629 31.8937 73.8604 31.9849C73.3477 32.3722 72.7894 32.7311 72.1855 33.0615C71.5931 33.3805 70.9494 33.6597 70.2544 33.8989C69.5594 34.1382 68.8075 34.3205 67.9985 34.4458C67.201 34.5825 66.3408 34.6509 65.418 34.6509C63.3444 34.6509 61.4531 34.349 59.7441 33.7451C58.0352 33.1299 56.5654 32.264 55.335 31.1475C54.1159 30.0309 53.1702 28.6922 52.498 27.1314C51.8258 25.5591 51.4897 23.8159 51.4897 21.9019C51.4897 20.8195 51.6265 19.7542 51.8999 18.7061C52.1847 17.6579 52.5949 16.661 53.1304 15.7153C53.6659 14.7697 54.3267 13.9038 55.1128 13.1177C55.8989 12.3202 56.7933 11.6309 57.7959 11.0498C58.8099 10.4688 59.9207 10.0187 61.1284 9.69971C62.3475 9.3693 63.6634 9.2041 65.0762 9.2041C65.623 9.2041 66.1813 9.23259 66.751 9.28955C67.3206 9.33512 67.8846 9.40918 68.4429 9.51172C69.0011 9.60287 69.5366 9.7168 70.0493 9.85352C70.5734 9.99024 71.069 10.144 71.5361 10.3149L72.6982 13.4766L72.5615 13.5449C72.1172 13.1462 71.6045 12.7759 71.0234 12.4341C70.4424 12.0923 69.8215 11.7961 69.1606 11.5454C68.4998 11.2948 67.8049 11.1011 67.0757 10.9644C66.3579 10.8162 65.6287 10.7422 64.8882 10.7422C63.4526 10.7422 62.1367 10.9701 60.9404 11.4258C59.7441 11.8701 58.7131 12.5195 57.8472 13.374C56.9927 14.2285 56.3262 15.2767 55.8477 16.5186C55.3691 17.7604 55.1299 19.1732 55.1299 20.7568C55.1299 22.5 55.3577 24.1178 55.8135 25.6104C56.2692 27.1029 56.9471 28.396 57.8472 29.4897C58.7472 30.5835 59.8695 31.4437 61.2139 32.0703C62.5697 32.6856 64.1476 32.9932 65.9478 32.9932C66.7453 32.9932 67.4574 32.9305 68.084 32.8052C68.7106 32.6799 69.2404 32.526 69.6733 32.3438C70.1063 32.1501 70.431 31.945 70.6475 31.7285C70.8753 31.5007 70.9893 31.2956 70.9893 31.1133V30.4468C70.9893 29.6493 70.9779 28.96 70.9551 28.3789C70.9323 27.7979 70.8981 27.2966 70.8525 26.875C70.807 26.4421 70.7557 26.0718 70.6987 25.7642C70.6418 25.4565 70.5734 25.1717 70.4937 24.9097V24.8413H74.5952V24.9097C74.5269 25.1489 74.4585 25.4338 74.3901 25.7642C74.3332 26.0832 74.2819 26.4648 74.2363 26.9092C74.1908 27.3535 74.1566 27.8776 74.1338 28.4814C74.111 29.0739 74.0996 29.7632 74.0996 30.5493V31.25ZM78.0993 15.2539C78.0993 14.2855 78.0822 13.4424 78.048 12.7246C78.0253 11.9954 77.9911 11.3688 77.9455 10.8447C77.9113 10.3206 77.8601 9.882 77.7917 9.52881C77.7347 9.17562 77.6721 8.8794 77.6037 8.64014V8.57178H81.5515V8.64014C81.4831 8.8794 81.4204 9.17562 81.3635 9.52881C81.3065 9.882 81.2552 10.3206 81.2097 10.8447C81.1641 11.3688 81.1299 11.9954 81.1071 12.7246C81.0843 13.4424 81.073 14.2855 81.073 15.2539V27.439C81.073 28.4074 81.0843 29.2562 81.1071 29.9854C81.1299 30.7031 81.1641 31.3241 81.2097 31.8481C81.2552 32.3722 81.3065 32.8109 81.3635 33.1641C81.4204 33.5173 81.4831 33.8135 81.5515 34.0527V34.1211H77.6037V34.0527C77.6721 33.8135 77.7347 33.5173 77.7917 33.1641C77.8601 32.8109 77.9113 32.3722 77.9455 31.8481C77.9911 31.3241 78.0253 30.7031 78.048 29.9854C78.0822 29.2562 78.0993 28.4074 78.0993 27.439V15.2539ZM85.8417 23.3032C85.8417 22.3348 85.8246 21.4917 85.7904 20.7739C85.7676 20.0448 85.7335 19.4181 85.6879 18.894C85.6537 18.37 85.6024 17.9313 85.5341 17.5781C85.4771 17.2249 85.4145 16.9287 85.3461 16.6895V16.6211H89.2939V16.6895C89.2255 16.9287 89.1628 17.2249 89.1059 17.5781C89.0489 17.9313 88.9976 18.37 88.9521 18.894C88.9065 19.4181 88.8723 20.0448 88.8495 20.7739C88.8267 21.4917 88.8153 22.3348 88.8153 23.3032V27.439C88.8153 28.4074 88.8267 29.2562 88.8495 29.9854C88.8723 30.7031 88.9065 31.3241 88.9521 31.8481C88.9976 32.3722 89.0489 32.8109 89.1059 33.1641C89.1628 33.5173 89.2255 33.8135 89.2939 34.0527V34.1211H85.3461V34.0527C85.4145 33.8135 85.4771 33.5173 85.5341 33.1641C85.6024 32.8109 85.6537 32.3722 85.6879 31.8481C85.7335 31.3241 85.7676 30.7031 85.7904 29.9854C85.8246 29.2562 85.8417 28.4074 85.8417 27.439V23.3032ZM85.4828 11.4429C85.4828 11.1922 85.5284 10.9587 85.6195 10.7422C85.7221 10.5143 85.8531 10.3206 86.0126 10.1611C86.1721 9.99024 86.3601 9.85921 86.5766 9.76807C86.8044 9.66553 87.0494 9.61426 87.3114 9.61426C87.5735 9.61426 87.8127 9.66553 88.0292 9.76807C88.2571 9.85921 88.4508 9.99024 88.6103 10.1611C88.7812 10.3206 88.9122 10.5143 89.0033 10.7422C89.1059 10.9587 89.1571 11.1922 89.1571 11.4429C89.1571 11.967 88.9805 12.4056 88.6273 12.7588C88.2742 13.112 87.8355 13.2886 87.3114 13.2886C87.0494 13.2886 86.8044 13.243 86.5766 13.1519C86.3601 13.0493 86.1721 12.9183 86.0126 12.7588C85.8531 12.5879 85.7221 12.3942 85.6195 12.1777C85.5284 11.9499 85.4828 11.7049 85.4828 11.4429ZM104.88 22.6025C104.88 21.8506 104.801 21.2012 104.641 20.6543C104.493 20.1074 104.271 19.6574 103.975 19.3042C103.69 18.9396 103.342 18.6719 102.932 18.501C102.522 18.3187 102.066 18.2275 101.565 18.2275C101.223 18.2275 100.842 18.2959 100.42 18.4326C99.9985 18.5693 99.5598 18.7573 99.1041 18.9966C98.6598 19.2244 98.2097 19.4922 97.754 19.7998C97.3097 20.1074 96.8881 20.4378 96.4894 20.791C96.4666 21.1556 96.4552 21.5487 96.4552 21.9702C96.4552 22.3804 96.4552 22.8247 96.4552 23.3032V27.439C96.4552 28.4074 96.4666 29.2562 96.4894 29.9854C96.5121 30.7031 96.5463 31.3241 96.5919 31.8481C96.6375 32.3722 96.6887 32.8109 96.7457 33.1641C96.8027 33.5173 96.8653 33.8135 96.9337 34.0527V34.1211H92.9859V34.0527C93.0543 33.8135 93.117 33.5173 93.1739 33.1641C93.2423 32.8109 93.2936 32.3722 93.3277 31.8481C93.3733 31.3241 93.4075 30.7031 93.4303 29.9854C93.4645 29.2562 93.4815 28.4074 93.4815 27.439V23.3032C93.4815 22.3348 93.4645 21.4917 93.4303 20.7739C93.4075 20.0448 93.3733 19.4181 93.3277 18.894C93.2936 18.37 93.2423 17.9313 93.1739 17.5781C93.117 17.2249 93.0543 16.9287 92.9859 16.6895V16.6211H96.9337V16.6895C96.8426 16.9515 96.7685 17.2876 96.7115 17.6978C96.666 18.0965 96.6147 18.6035 96.5577 19.2188C97.0135 18.8542 97.5034 18.4953 98.0274 18.1421C98.5515 17.7889 99.087 17.4756 99.6339 17.2021C100.192 16.9287 100.75 16.7065 101.309 16.5356C101.867 16.3647 102.42 16.2793 102.966 16.2793C103.616 16.2793 104.191 16.3647 104.692 16.5356C105.194 16.7065 105.632 16.9401 106.008 17.2363C106.384 17.5326 106.698 17.88 106.948 18.2788C107.21 18.6776 107.41 19.1048 107.546 19.5605C108.014 19.1618 108.521 18.7687 109.067 18.3813C109.626 17.9826 110.195 17.6294 110.776 17.3218C111.369 17.0142 111.967 16.7635 112.571 16.5698C113.186 16.3761 113.784 16.2793 114.365 16.2793C115.254 16.2793 116.006 16.4331 116.621 16.7407C117.248 17.0483 117.755 17.4528 118.142 17.9541C118.541 18.4554 118.826 19.0308 118.997 19.6802C119.179 20.3182 119.27 20.9676 119.27 21.6284V27.439C119.27 28.4074 119.282 29.2562 119.304 29.9854C119.327 30.7031 119.361 31.3241 119.407 31.8481C119.452 32.3722 119.504 32.8109 119.561 33.1641C119.629 33.5173 119.697 33.8135 119.766 34.0527V34.1211H115.801V34.0527C115.869 33.8135 115.932 33.5173 115.989 33.1641C116.057 32.8109 116.114 32.3722 116.16 31.8481C116.205 31.3241 116.24 30.7031 116.262 29.9854C116.285 29.2562 116.296 28.4074 116.296 27.439V22.6025C116.296 21.0986 115.995 19.9935 115.391 19.2871C114.787 18.5807 113.978 18.2275 112.964 18.2275C112.611 18.2275 112.218 18.2959 111.785 18.4326C111.363 18.5693 110.925 18.7573 110.469 18.9966C110.013 19.2358 109.557 19.515 109.102 19.834C108.646 20.1416 108.219 20.472 107.82 20.8252C107.843 20.9619 107.854 21.0986 107.854 21.2354C107.854 21.3721 107.854 21.5031 107.854 21.6284V27.439C107.854 28.4074 107.866 29.2562 107.888 29.9854C107.922 30.7031 107.957 31.3241 107.991 31.8481C108.036 32.3722 108.088 32.8109 108.145 33.1641C108.213 33.5173 108.281 33.8135 108.35 34.0527V34.1211H104.402V34.0527C104.47 33.8135 104.533 33.5173 104.59 33.1641C104.647 32.8109 104.698 32.3722 104.744 31.8481C104.789 31.3241 104.824 30.7031 104.846 29.9854C104.869 29.2562 104.88 28.4074 104.88 27.439V22.6025ZM135.113 22.6025C135.113 21.8506 135.033 21.2012 134.874 20.6543C134.726 20.1074 134.504 19.6574 134.207 19.3042C133.923 18.9396 133.575 18.6719 133.165 18.501C132.755 18.3187 132.299 18.2275 131.798 18.2275C131.456 18.2275 131.074 18.2959 130.653 18.4326C130.231 18.5693 129.792 18.7573 129.337 18.9966C128.892 19.2244 128.442 19.4922 127.987 19.7998C127.542 20.1074 127.121 20.4378 126.722 20.791C126.699 21.1556 126.688 21.5487 126.688 21.9702C126.688 22.3804 126.688 22.8247 126.688 23.3032V27.439C126.688 28.4074 126.699 29.2562 126.722 29.9854C126.745 30.7031 126.779 31.3241 126.825 31.8481C126.87 32.3722 126.921 32.8109 126.978 33.1641C127.035 33.5173 127.098 33.8135 127.166 34.0527V34.1211H123.219V34.0527C123.287 33.8135 123.35 33.5173 123.407 33.1641C123.475 32.8109 123.526 32.3722 123.56 31.8481C123.606 31.3241 123.64 30.7031 123.663 29.9854C123.697 29.2562 123.714 28.4074 123.714 27.439V23.3032C123.714 22.3348 123.697 21.4917 123.663 20.7739C123.64 20.0448 123.606 19.4181 123.56 18.894C123.526 18.37 123.475 17.9313 123.407 17.5781C123.35 17.2249 123.287 16.9287 123.219 16.6895V16.6211H127.166V16.6895C127.075 16.9515 127.001 17.2876 126.944 17.6978C126.899 18.0965 126.847 18.6035 126.79 19.2188C127.246 18.8542 127.736 18.4953 128.26 18.1421C128.784 17.7889 129.32 17.4756 129.867 17.2021C130.425 16.9287 130.983 16.7065 131.541 16.5356C132.1 16.3647 132.652 16.2793 133.199 16.2793C133.848 16.2793 134.424 16.3647 134.925 16.5356C135.426 16.7065 135.865 16.9401 136.241 17.2363C136.617 17.5326 136.93 17.88 137.181 18.2788C137.443 18.6776 137.642 19.1048 137.779 19.5605C138.246 19.1618 138.753 18.7687 139.3 18.3813C139.858 17.9826 140.428 17.6294 141.009 17.3218C141.602 17.0142 142.2 16.7635 142.804 16.5698C143.419 16.3761 144.017 16.2793 144.598 16.2793C145.487 16.2793 146.239 16.4331 146.854 16.7407C147.48 17.0483 147.987 17.4528 148.375 17.9541C148.774 18.4554 149.058 19.0308 149.229 19.6802C149.412 20.3182 149.503 20.9676 149.503 21.6284V27.439C149.503 28.4074 149.514 29.2562 149.537 29.9854C149.56 30.7031 149.594 31.3241 149.639 31.8481C149.685 32.3722 149.736 32.8109 149.793 33.1641C149.862 33.5173 149.93 33.8135 149.998 34.0527V34.1211H146.034V34.0527C146.102 33.8135 146.165 33.5173 146.221 33.1641C146.29 32.8109 146.347 32.3722 146.392 31.8481C146.438 31.3241 146.472 30.7031 146.495 29.9854C146.518 29.2562 146.529 28.4074 146.529 27.439V22.6025C146.529 21.0986 146.227 19.9935 145.623 19.2871C145.02 18.5807 144.211 18.2275 143.197 18.2275C142.843 18.2275 142.45 18.2959 142.017 18.4326C141.596 18.5693 141.157 18.7573 140.701 18.9966C140.246 19.2358 139.79 19.515 139.334 19.834C138.879 20.1416 138.451 20.472 138.053 20.8252C138.075 20.9619 138.087 21.0986 138.087 21.2354C138.087 21.3721 138.087 21.5031 138.087 21.6284V27.439C138.087 28.4074 138.098 29.2562 138.121 29.9854C138.155 30.7031 138.189 31.3241 138.223 31.8481C138.269 32.3722 138.32 32.8109 138.377 33.1641C138.446 33.5173 138.514 33.8135 138.582 34.0527V34.1211H134.635V34.0527C134.703 33.8135 134.766 33.5173 134.823 33.1641C134.88 32.8109 134.931 32.3722 134.976 31.8481C135.022 31.3241 135.056 30.7031 135.079 29.9854C135.102 29.2562 135.113 28.4074 135.113 27.439V22.6025ZM153.947 23.3032C153.947 22.3348 153.93 21.4917 153.896 20.7739C153.873 20.0448 153.839 19.4181 153.793 18.894C153.759 18.37 153.708 17.9313 153.639 17.5781C153.582 17.2249 153.52 16.9287 153.451 16.6895V16.6211H157.399V16.6895C157.308 16.9515 157.228 17.2705 157.16 17.6465C157.103 18.0225 157.057 18.5067 157.023 19.0991C157.445 18.7459 157.883 18.3984 158.339 18.0566C158.795 17.7148 159.262 17.4129 159.74 17.1509C160.219 16.8888 160.703 16.6781 161.193 16.5186C161.694 16.3591 162.195 16.2793 162.697 16.2793C163.004 16.2793 163.272 16.2964 163.5 16.3306C163.728 16.3534 163.933 16.3932 164.115 16.4502C164.298 16.4958 164.463 16.5527 164.611 16.6211C164.759 16.6781 164.901 16.735 165.038 16.792L164.201 20.0562L163.91 19.9878C163.773 19.4865 163.517 19.0877 163.141 18.7915C162.765 18.4839 162.252 18.3301 161.603 18.3301C161.25 18.3301 160.88 18.3927 160.492 18.5181C160.105 18.6434 159.712 18.82 159.313 19.0479C158.914 19.2643 158.515 19.5207 158.117 19.8169C157.718 20.1017 157.331 20.4036 156.955 20.7227C156.932 21.0531 156.92 21.4119 156.92 21.7993C156.92 22.1867 156.92 22.5968 156.92 23.0298V27.439C156.92 28.4074 156.932 29.2562 156.955 29.9854C156.977 30.7031 157.012 31.3241 157.057 31.8481C157.103 32.3722 157.154 32.8109 157.211 33.1641C157.268 33.5173 157.331 33.8135 157.399 34.0527V34.1211H153.451V34.0527C153.52 33.8135 153.582 33.5173 153.639 33.1641C153.708 32.8109 153.759 32.3722 153.793 31.8481C153.839 31.3241 153.873 30.7031 153.896 29.9854C153.93 29.2562 153.947 28.4074 153.947 27.439V23.3032Z" fill="white"></path></g><defs><clipPath id="clip0_1_605"><rect width="163" height="44" fill="white" transform="translate(0.00341797)"></rect></clipPath></defs></svg>