<svg xmlns="http://www.w3.org/2000/svg" width="130" height="130" viewBox="0 0 130 130" fill="none"><circle cx="64.6944" cy="64.6944" r="52.5167" fill="white" stroke="url(#paint0_linear_1_702)" stroke-width="24.3556"></circle><path d="M70.9782 11.4392C71.011 11.1468 71.0362 10.8918 71.0537 10.6743C71.0716 10.4534 71.0825 10.263 71.0865 10.1032C71.0909 9.93997 71.0905 9.80406 71.0853 9.69549C71.0801 9.58691 71.0712 9.49534 71.0587 9.42077L71.061 9.40013L71.9796 9.50337L71.9772 9.52401C71.9485 9.59394 71.9178 9.68106 71.8852 9.78539C71.856 9.8901 71.8254 10.0225 71.7935 10.1827C71.7654 10.3398 71.7338 10.5278 71.6987 10.7468C71.6675 10.9628 71.6354 11.217 71.6026 11.5094L71.2894 14.2959C71.2341 14.7878 71.1164 15.1996 70.9363 15.5312C70.7562 15.8628 70.528 16.1263 70.2517 16.3217C69.9758 16.5136 69.6568 16.6398 69.2947 16.7001C68.9322 16.7639 68.5429 16.7724 68.1266 16.7256C67.7103 16.6788 67.327 16.5869 66.9766 16.45C66.6297 16.3135 66.334 16.1235 66.0897 15.88C65.8491 15.6335 65.6723 15.3315 65.5592 14.9739C65.4465 14.6129 65.4178 14.1864 65.4731 13.6944L65.7921 10.8563C65.825 10.5639 65.8502 10.3089 65.8676 10.0914C65.8855 9.87047 65.8965 9.6801 65.9005 9.5203C65.9049 9.35707 65.9028 9.22097 65.8941 9.112C65.8889 9.00342 65.88 8.91185 65.8675 8.83729L65.8698 8.81665L67.1083 8.95585L67.106 8.97649C67.0772 9.04641 67.0465 9.13354 67.0139 9.23786C66.9847 9.34258 66.9541 9.475 66.9222 9.63514C66.8907 9.79184 66.8591 9.97989 66.8274 10.1993C66.7962 10.4152 66.7642 10.6694 66.7313 10.9618L66.4059 13.8567C66.3599 14.2661 66.382 14.6117 66.4723 14.8936C66.5663 15.1724 66.7042 15.4022 66.886 15.5828C67.0681 15.7601 67.283 15.894 67.5306 15.9845C67.7782 16.075 68.0345 16.1352 68.2993 16.165C68.5642 16.1947 68.8274 16.193 69.089 16.1597C69.3505 16.1264 69.588 16.0433 69.8015 15.9105C70.0188 15.7747 70.2026 15.5811 70.3528 15.3298C70.5068 15.0754 70.6068 14.7435 70.6528 14.3341L70.9782 11.4392Z" fill="white"></path><path d="M80.4359 15.5284C80.5788 15.0944 80.5966 14.7467 80.4895 14.4855C80.3823 14.2243 80.1824 14.0455 79.8897 13.9491C79.7845 13.9145 79.6586 13.8985 79.5119 13.9013C79.3663 13.9007 79.212 13.9155 79.049 13.9457C78.8871 13.9726 78.7208 14.0126 78.5502 14.0658C78.3796 14.119 78.2151 14.1815 78.0567 14.2532L77.8341 14.8961L77.4412 16.0898C77.3492 16.3693 77.2718 16.6153 77.2091 16.8279C77.1475 17.0372 77.0984 17.2197 77.0617 17.3753C77.0251 17.5309 76.9982 17.6624 76.9811 17.7697C76.964 17.877 76.9539 17.9685 76.9509 18.044L76.9444 18.0638L75.8051 17.6887L75.8116 17.669C75.854 17.6064 75.9003 17.5269 75.9502 17.4304C76.0035 17.3349 76.06 17.2132 76.1197 17.0652C76.1826 16.9183 76.2515 16.7423 76.3262 16.5373C76.4054 16.3301 76.4909 16.0867 76.5829 15.8072L76.9759 14.6136C77.0679 14.3341 77.143 14.0891 77.2014 13.8787C77.2641 13.6661 77.3137 13.482 77.3504 13.3264C77.3903 13.1719 77.4172 13.0405 77.431 12.932C77.4481 12.8247 77.4582 12.7332 77.4612 12.6577L77.4677 12.638L78.607 13.013L78.6005 13.0327C78.5472 13.1063 78.4912 13.2045 78.4325 13.3273C78.3782 13.4479 78.3093 13.6075 78.2258 13.8059C78.3974 13.7385 78.5789 13.6743 78.7702 13.6134C78.9649 13.5536 79.1601 13.5085 79.3559 13.4782C79.5529 13.4446 79.7471 13.4302 79.9387 13.435C80.1314 13.4364 80.3116 13.4648 80.4793 13.52C80.7358 13.6044 80.9382 13.7202 81.0865 13.8675C81.2382 14.0158 81.3461 14.1807 81.4102 14.3622C81.4777 14.5447 81.5052 14.7379 81.4929 14.9415C81.4849 15.143 81.4495 15.3391 81.3867 15.5298L80.8347 17.2068C80.7427 17.4863 80.6653 17.7324 80.6026 17.945C80.541 18.1543 80.4919 18.3368 80.4552 18.4923C80.4186 18.6479 80.3917 18.7794 80.3746 18.8868C80.3575 18.9941 80.3474 19.0855 80.3444 19.1611L80.3379 19.1808L79.1985 18.8058L79.205 18.786C79.2475 18.7235 79.2937 18.6439 79.3437 18.5474C79.397 18.452 79.4535 18.3302 79.5131 18.1822C79.5761 18.0353 79.6449 17.8593 79.7197 17.6543C79.7988 17.4471 79.8844 17.2038 79.9764 16.9243L80.4359 15.5284Z" fill="white"></path><path d="M87.5109 16.3345L87.5009 16.3527C87.4865 16.3646 87.4695 16.3848 87.4498 16.4135C87.4301 16.4422 87.4137 16.4687 87.4003 16.493C87.3488 16.5871 87.305 16.6993 87.2691 16.8297C87.2348 16.9569 87.206 17.1247 87.1827 17.333L86.8506 20.5205L89.3529 18.5701C89.46 18.4827 89.576 18.3864 89.7008 18.2811C89.8256 18.1758 89.9255 18.0549 90.0004 17.9183C90.022 17.8788 90.0364 17.8453 90.0437 17.8177C90.0526 17.787 90.0565 17.7655 90.0554 17.753L90.0654 17.7348L90.885 18.1841L90.875 18.2023C90.7888 18.2301 90.6624 18.295 90.4958 18.3972C90.334 18.4979 90.1453 18.6333 89.9297 18.8033L86.1403 21.7299L85.8716 21.5827L86.3012 17.1045C86.3198 16.9409 86.3305 16.781 86.3333 16.6246C86.3408 16.4669 86.3424 16.3236 86.338 16.1949C86.3366 16.0678 86.3321 15.9607 86.3245 15.8737C86.3187 15.7836 86.3131 15.7253 86.3079 15.6987L86.3179 15.6805L87.5109 16.3345Z" fill="white"></path><path d="M93.8607 26.6453C93.5629 26.4023 93.3223 26.1278 93.1387 25.8216C92.9551 25.5155 92.8401 25.1937 92.7936 24.8564C92.7493 24.5165 92.7791 24.1678 92.8831 23.8103C92.992 23.4523 93.1865 23.1017 93.4667 22.7584C93.714 22.4553 93.9936 22.2166 94.3057 22.0422C94.6199 21.8652 94.9445 21.7548 95.2796 21.711C95.6147 21.6672 95.9454 21.689 96.2717 21.7765C96.6006 21.8662 96.9046 22.0248 97.1835 22.2524C97.4598 22.4779 97.6766 22.7351 97.8338 23.0243C97.9933 23.3108 98.0844 23.6152 98.1072 23.9377C98.135 24.2597 98.089 24.5952 97.9694 24.9444C97.8547 25.2932 97.6623 25.6411 97.3924 25.9883C97.0937 25.7357 96.7939 25.4843 96.493 25.2343C96.1921 24.9844 95.878 24.7259 95.5508 24.4589C95.3174 24.2685 95.0883 24.0838 94.8635 23.9048C94.6414 23.728 94.4396 23.5701 94.2582 23.431C94.0467 23.7231 93.8839 24.0103 93.7698 24.2925C93.6584 24.5769 93.5987 24.8499 93.5908 25.1115C93.5877 25.3726 93.6397 25.6183 93.7467 25.8486C93.8564 26.081 94.0239 26.2892 94.2492 26.473C94.4047 26.6 94.5651 26.7018 94.7304 26.7785C94.9005 26.8548 95.0682 26.9067 95.2333 26.9342C95.3985 26.9618 95.5604 26.9688 95.7189 26.9551C95.8797 26.9388 96.0325 26.9049 96.1773 26.8533L96.2059 26.9169L95.3238 27.3901C95.1177 27.347 94.8922 27.2702 94.6472 27.1597C94.4045 27.0465 94.1423 26.8751 93.8607 26.6453ZM95.3281 23.7544C95.5963 23.9732 95.8645 24.1921 96.1327 24.4109C96.4058 24.6293 96.6556 24.8242 96.8822 24.9956C97.0484 24.7426 97.1735 24.4961 97.2575 24.2563C97.3414 24.0166 97.3836 23.7896 97.3841 23.5755C97.3845 23.3614 97.3421 23.1615 97.2568 22.9758C97.1716 22.79 97.0431 22.6271 96.8715 22.4871C96.7159 22.3601 96.5439 22.2779 96.3556 22.2404C96.1721 22.2024 95.9796 22.2084 95.778 22.2584C95.5764 22.3083 95.3695 22.4031 95.1573 22.5427C94.9472 22.6796 94.7395 22.8631 94.534 23.0931C94.6503 23.1969 94.7755 23.3035 94.9096 23.413C95.0437 23.5224 95.1832 23.6362 95.3281 23.7544Z" fill="white"></path><path d="M101.45 28.878C101.667 28.6801 101.853 28.5039 102.008 28.3495C102.167 28.1953 102.301 28.0595 102.409 27.9422C102.52 27.8274 102.608 27.7262 102.674 27.6386C102.742 27.5536 102.795 27.479 102.835 27.4147L102.851 27.4007L103.658 28.2883L103.642 28.3022C103.574 28.3358 103.495 28.3822 103.404 28.4416C103.313 28.501 103.204 28.5791 103.077 28.676C102.95 28.7729 102.802 28.8933 102.633 29.0372C102.467 29.1788 102.275 29.3486 102.057 29.5465L101.128 30.3919C100.91 30.5899 100.721 30.7659 100.562 30.9201C100.405 31.0719 100.273 31.2065 100.164 31.3239C100.056 31.4413 99.9677 31.5425 99.9 31.6275C99.8322 31.7125 99.7784 31.7871 99.7386 31.8514L99.7232 31.8653L98.9163 30.9778L98.9317 30.9638C98.9994 30.9303 99.0788 30.8838 99.1699 30.8245C99.2633 30.7676 99.3724 30.6895 99.4972 30.5901C99.6243 30.4932 99.7709 30.3739 99.9369 30.2323C100.108 30.091 100.302 29.9213 100.52 29.7234L101.45 28.878ZM104.043 26.373C104.099 26.3218 104.161 26.2843 104.228 26.2605C104.3 26.237 104.371 26.2269 104.439 26.2301C104.51 26.2311 104.578 26.2465 104.643 26.2766C104.712 26.3068 104.774 26.3514 104.828 26.4103C104.881 26.4693 104.919 26.5335 104.94 26.6032C104.966 26.673 104.976 26.7433 104.97 26.8141C104.969 26.8852 104.952 26.9542 104.92 27.0213C104.892 27.0886 104.85 27.1478 104.794 27.1991C104.676 27.3062 104.541 27.3562 104.39 27.3489C104.238 27.3417 104.109 27.2792 104.002 27.1614C103.948 27.1025 103.908 27.0381 103.882 26.9682C103.861 26.8986 103.852 26.8296 103.855 26.7611C103.861 26.6903 103.878 26.6213 103.905 26.554C103.938 26.4869 103.984 26.4266 104.043 26.373Z" fill="white"></path><path d="M107.231 31.8051C107.469 31.6323 107.674 31.4778 107.844 31.3413C108.019 31.2057 108.167 31.0855 108.288 30.9808C108.411 30.8789 108.51 30.7881 108.585 30.7083C108.661 30.6313 108.723 30.563 108.77 30.5035L108.786 30.4913L109.491 31.4625L109.474 31.4747C109.403 31.5005 109.319 31.5379 109.222 31.5869C109.125 31.6359 109.007 31.7015 108.87 31.7838C108.733 31.8661 108.573 31.9694 108.39 32.0939C108.209 32.2163 108 32.3638 107.761 32.5366L104.764 34.7098C104.526 34.8826 104.319 35.0368 104.144 35.1724C103.971 35.306 103.824 35.4252 103.704 35.5299C103.583 35.6346 103.484 35.7254 103.407 35.8024C103.331 35.8794 103.269 35.9477 103.222 36.0072L103.206 36.0194L102.501 35.0482L102.518 35.036C102.589 35.0102 102.673 34.9728 102.77 34.9238C102.869 34.8776 102.986 34.812 103.121 34.7269C103.259 34.6446 103.417 34.5423 103.598 34.4199C103.783 34.2983 103.995 34.1511 104.234 33.9783L107.231 31.8051Z" fill="white"></path><path d="M108.543 37.9896C108.799 37.8443 109.019 37.7132 109.204 37.5965C109.393 37.481 109.554 37.378 109.685 37.2873C109.819 37.1996 109.927 37.1202 110.01 37.0492C110.095 36.9811 110.163 36.9201 110.216 36.8661L110.234 36.8559L110.827 37.8989L110.809 37.9091C110.735 37.927 110.648 37.9549 110.546 37.9928C110.444 38.0308 110.32 38.0831 110.175 38.1497C110.03 38.2163 109.859 38.3013 109.663 38.4047C109.47 38.5064 109.245 38.6299 108.99 38.7752L107.897 39.3959C107.641 39.5412 107.419 39.6716 107.229 39.787C107.043 39.9008 106.884 40.003 106.753 40.0937C106.621 40.1844 106.513 40.2637 106.428 40.3318C106.343 40.3998 106.274 40.4608 106.221 40.5148L106.203 40.5251L105.611 39.4821L105.629 39.4718C105.702 39.454 105.79 39.4261 105.892 39.3881C105.996 39.3532 106.119 39.3009 106.263 39.2313C106.408 39.1647 106.577 39.0805 106.77 38.9788C106.968 38.8784 107.195 38.7556 107.451 38.6102L108.543 37.9896ZM111.623 36.1149C111.689 36.0773 111.758 36.0543 111.829 36.0459C111.904 36.0388 111.975 36.0443 112.041 36.0625C112.11 36.079 112.173 36.109 112.23 36.1525C112.291 36.1974 112.341 36.2544 112.381 36.3236C112.42 36.3928 112.442 36.4638 112.448 36.5363C112.458 36.6102 112.452 36.681 112.431 36.7488C112.415 36.8179 112.383 36.8816 112.337 36.9399C112.295 36.9995 112.241 37.0481 112.174 37.0857C112.036 37.1643 111.894 37.1835 111.747 37.1432C111.601 37.1029 111.488 37.0135 111.41 36.875C111.371 36.8058 111.346 36.7342 111.336 36.6603C111.33 36.5878 111.337 36.5184 111.355 36.4524C111.376 36.3846 111.408 36.3209 111.449 36.2613C111.496 36.203 111.554 36.1542 111.623 36.1149Z" fill="white"></path><path d="M112.934 46.4582C113.361 46.2948 113.641 46.0891 113.776 45.8411C113.911 45.593 113.923 45.3251 113.813 45.0373C113.774 44.9339 113.707 44.8261 113.612 44.7141C113.52 44.6009 113.411 44.4906 113.285 44.3833C113.162 44.2747 113.026 44.1711 112.877 44.0724C112.728 43.9737 112.576 43.8856 112.42 43.808L111.781 44.0415L110.607 44.4906C110.333 44.5957 110.093 44.6911 109.888 44.7768C109.687 44.8612 109.515 44.9383 109.371 45.0082C109.227 45.078 109.108 45.1402 109.014 45.1947C108.92 45.2493 108.843 45.2992 108.782 45.3446L108.763 45.352L108.334 44.2317L108.354 44.2243C108.429 44.2177 108.52 44.2033 108.626 44.1811C108.734 44.1622 108.864 44.1291 109.016 44.0819C109.17 44.0379 109.35 43.9802 109.556 43.9087C109.767 43.8392 110.01 43.7519 110.284 43.6467L111.458 43.1976C111.733 43.0924 111.97 42.996 112.17 42.9084C112.375 42.8227 112.549 42.745 112.693 42.6751C112.838 42.6085 112.957 42.5463 113.049 42.4886C113.143 42.4341 113.221 42.3841 113.281 42.3387L113.301 42.3313L113.729 43.4516L113.71 43.459C113.619 43.4641 113.508 43.4827 113.375 43.5148C113.247 43.5488 113.08 43.5962 112.874 43.6567C113.034 43.7472 113.199 43.8474 113.367 43.9573C113.536 44.0704 113.694 44.1933 113.841 44.3261C113.992 44.4575 114.126 44.5991 114.243 44.7506C114.364 44.901 114.455 45.0586 114.518 45.2235C114.615 45.4756 114.653 45.7057 114.632 45.9137C114.613 46.125 114.553 46.3128 114.453 46.4771C114.354 46.6447 114.222 46.788 114.056 46.9071C113.895 47.0281 113.721 47.1245 113.533 47.1962L111.884 47.8272C111.609 47.9324 111.37 48.0278 111.165 48.1134C110.964 48.1979 110.792 48.275 110.648 48.3448C110.504 48.4147 110.385 48.4769 110.291 48.5314C110.197 48.5859 110.12 48.6358 110.059 48.6812L110.04 48.6887L109.611 47.5684L109.631 47.5609C109.706 47.5543 109.797 47.54 109.903 47.5178C110.011 47.4988 110.141 47.4657 110.293 47.4185C110.447 47.3745 110.627 47.3168 110.833 47.2453C111.044 47.1758 111.286 47.0885 111.561 46.9834L112.934 46.4582Z" fill="white"></path><path d="M109.545 55.4869C109.593 55.7632 109.664 55.9915 109.758 56.1719C109.85 56.3528 109.959 56.4955 110.086 56.5999C110.213 56.7077 110.358 56.781 110.519 56.8198C110.678 56.8625 110.848 56.8838 111.031 56.8837C111.214 56.887 111.407 56.8729 111.609 56.8414C111.811 56.8133 112.02 56.7805 112.235 56.7432L112.403 56.7139C112.286 56.5622 112.174 56.3743 112.068 56.1502C111.966 55.9255 111.889 55.6648 111.838 55.3681C111.767 54.9622 111.766 54.5828 111.835 54.2301C111.904 53.8773 112.035 53.5628 112.23 53.2866C112.425 53.0138 112.679 52.7853 112.991 52.6011C113.307 52.4162 113.674 52.2874 114.094 52.2145C114.479 52.1476 114.848 52.1468 115.2 52.2121C115.553 52.2809 115.87 52.4068 116.151 52.5898C116.433 52.7763 116.67 53.0146 116.86 53.3047C117.055 53.5976 117.186 53.9351 117.252 54.3171C117.281 54.4808 117.293 54.6332 117.29 54.7744C117.286 54.9156 117.27 55.0483 117.243 55.1725C117.219 55.2996 117.186 55.4197 117.142 55.5326C117.102 55.6484 117.057 55.7617 117.006 55.8725L117.376 55.7556L117.396 55.752L117.592 56.8827L117.572 56.8862C117.497 56.8782 117.405 56.8732 117.295 56.8711C117.187 56.8724 117.053 56.8798 116.893 56.8934C116.735 56.9104 116.545 56.9328 116.325 56.9605C116.109 56.9909 115.856 57.0314 115.566 57.0817L112.087 57.6859C111.773 57.7404 111.461 57.7507 111.149 57.717C110.835 57.6873 110.544 57.5919 110.277 57.4309C110.011 57.2734 109.78 57.043 109.583 56.7399C109.386 56.4367 109.246 56.0413 109.161 55.5536C109.131 55.383 109.118 55.2078 109.122 55.0279C109.123 54.8487 109.133 54.6764 109.154 54.5112C109.171 54.3466 109.196 54.1965 109.228 54.0608C109.261 53.9252 109.291 53.8162 109.319 53.7341L110.274 53.4049L110.309 53.4832C110.146 53.5959 110.01 53.7337 109.901 53.8966C109.789 54.0636 109.704 54.2383 109.644 54.4208C109.581 54.604 109.543 54.788 109.529 54.9731C109.513 55.1622 109.518 55.3334 109.545 55.4869ZM112.251 55.5334C112.294 55.779 112.373 55.9936 112.489 56.1772C112.606 56.3642 112.731 56.5165 112.864 56.6339L115.412 56.1915C115.603 56.1583 115.775 56.1267 115.928 56.0966C116.084 56.066 116.225 56.0397 116.351 56.0178C116.463 55.914 116.558 55.7993 116.634 55.6735C116.715 55.5506 116.777 55.4221 116.82 55.2881C116.868 55.1569 116.897 55.0252 116.91 54.8931C116.925 54.7604 116.922 54.6326 116.901 54.5098C116.856 54.2506 116.768 54.0253 116.636 53.8338C116.504 53.6423 116.336 53.489 116.129 53.3737C115.927 53.2612 115.69 53.1883 115.417 53.1549C115.148 53.1242 114.85 53.1374 114.522 53.1942C114.154 53.2582 113.818 53.3586 113.515 53.4956C113.212 53.6325 112.957 53.7999 112.749 53.9977C112.545 54.1982 112.396 54.4277 112.304 54.6862C112.215 54.944 112.198 55.2265 112.251 55.5334Z" fill="white"></path><path d="M116.069 71.8937L114.542 71.6778C114.251 71.6366 113.995 71.6039 113.775 71.5798C113.558 71.5561 113.37 71.54 113.21 71.5314C113.05 71.5228 112.916 71.5196 112.808 71.5217C112.698 71.5272 112.606 71.5352 112.532 71.5456L112.511 71.5427L112.685 70.3087L112.706 70.3116C112.775 70.3423 112.862 70.3738 112.965 70.4059C113.069 70.4415 113.199 70.4756 113.355 70.5082C113.51 70.5442 113.696 70.5809 113.911 70.6183C114.129 70.6596 114.383 70.7008 114.675 70.742L116.099 70.9434L119.55 69.0871C119.667 69.0233 119.776 68.9583 119.877 68.8921C119.976 68.8293 120.064 68.7682 120.138 68.7088C120.217 68.65 120.282 68.5963 120.334 68.5477C120.387 68.4992 120.425 68.4609 120.45 68.433L120.471 68.4359L120.25 69.9938C120.172 69.9827 120.037 69.9968 119.846 70.0363C119.658 70.0796 119.43 70.1715 119.162 70.3119L116.615 71.6719L118.793 73.6633C118.87 73.7337 118.949 73.8043 119.03 73.8752C119.111 73.9461 119.189 74.0113 119.265 74.071C119.34 74.1306 119.41 74.1789 119.475 74.2161C119.539 74.2566 119.595 74.2803 119.643 74.2871L119.502 75.2897L119.481 75.2868C119.427 75.2021 119.343 75.0872 119.231 74.942C119.122 74.7972 118.972 74.6361 118.78 74.4587L116.069 71.8937Z" fill="#43735E"></path><path d="M114.114 78.1798C114.484 78.3078 114.802 78.4949 115.068 78.741C115.338 78.9883 115.548 79.2715 115.697 79.5908C115.846 79.9133 115.928 80.2608 115.946 80.6332C115.964 81.0056 115.907 81.3799 115.777 81.7561C115.649 82.1258 115.467 82.451 115.23 82.7318C114.996 83.017 114.724 83.2416 114.414 83.4055C114.105 83.5694 113.764 83.6639 113.393 83.6892C113.02 83.7177 112.633 83.6623 112.231 83.5229C111.894 83.4062 111.59 83.2352 111.32 83.0098C111.05 82.7844 110.836 82.5159 110.676 82.2042C110.517 81.8925 110.423 81.5449 110.394 81.1614C110.368 80.7823 110.43 80.3768 110.579 79.945C110.706 79.5787 110.886 79.2545 111.119 78.9726C111.352 78.6906 111.624 78.4677 111.933 78.3038C112.243 78.1399 112.582 78.0432 112.952 78.0135C113.324 77.985 113.712 78.0404 114.114 78.1798ZM110.898 80.1819C110.818 80.4142 110.79 80.6427 110.815 80.8674C110.838 81.0954 110.913 81.3098 111.037 81.5105C111.162 81.7112 111.335 81.8938 111.556 82.0584C111.778 82.223 112.045 82.3597 112.359 82.4685C112.713 82.5908 113.053 82.6665 113.38 82.6955C113.71 82.7256 114.011 82.7034 114.282 82.6288C114.556 82.5586 114.794 82.4322 114.996 82.2496C115.199 82.0669 115.352 81.8251 115.456 81.5241C115.537 81.2919 115.564 81.0634 115.54 80.8387C115.518 80.6151 115.447 80.4019 115.327 80.199C115.206 79.9994 115.034 79.8174 114.813 79.6527C114.595 79.4893 114.329 79.3532 114.015 79.2444C113.661 79.122 113.319 79.0458 112.989 79.0157C112.658 78.9888 112.353 79.0116 112.075 79.0839C111.801 79.1573 111.561 79.2832 111.357 79.4614C111.154 79.6441 111.001 79.8843 110.898 80.1819Z" fill="#43735E"></path><path d="M109.341 88.1684C108.946 87.9394 108.61 87.849 108.334 87.8972C108.057 87.9484 107.841 88.1073 107.686 88.3739C107.631 88.4698 107.588 88.5889 107.557 88.7313C107.53 88.8754 107.512 89.0295 107.506 89.1935C107.5 89.3622 107.505 89.5355 107.522 89.7133C107.538 89.8942 107.565 90.0681 107.604 90.2349C107.688 90.2912 107.777 90.3471 107.873 90.4026C107.972 90.4599 108.077 90.5206 108.188 90.5848L109.275 91.2146C109.53 91.3621 109.754 91.4859 109.948 91.5863C110.143 91.6913 110.313 91.7777 110.458 91.8456C110.601 91.9164 110.724 91.9697 110.828 92.0055C110.929 92.0443 111.016 92.073 111.09 92.0914L111.108 92.1018L110.507 93.1398L110.489 93.1294C110.436 93.075 110.368 93.0134 110.284 92.9447C110.199 92.8759 110.092 92.7956 109.961 92.7038C109.83 92.612 109.671 92.5076 109.482 92.3906C109.297 92.2753 109.077 92.1439 108.823 91.9965L107.735 91.3667C107.48 91.2192 107.256 91.0929 107.06 90.9879C106.868 90.8846 106.7 90.799 106.555 90.7312C106.41 90.6634 106.287 90.61 106.186 90.5712C106.084 90.5324 105.997 90.5038 105.923 90.4853L105.905 90.4749L106.506 89.4369L106.524 89.4473C106.589 89.5087 106.674 89.5822 106.781 89.6678C106.885 89.7564 107.03 89.8599 107.213 89.9782C107.179 89.7946 107.153 89.6015 107.135 89.3987C107.114 89.1989 107.109 88.9977 107.118 88.7951C107.126 88.5955 107.152 88.4024 107.196 88.2159C107.235 88.0306 107.299 87.8616 107.387 87.7088C107.523 87.4751 107.678 87.2993 107.855 87.1814C108.029 87.0665 108.213 86.9948 108.405 86.9663C108.596 86.9407 108.789 86.9526 108.985 87.0018C109.179 87.0541 109.364 87.1313 109.541 87.2337L111.068 88.1185C111.323 88.266 111.546 88.3914 111.739 88.4947C111.934 88.5998 112.104 88.6862 112.249 88.754C112.393 88.8218 112.516 88.8752 112.618 88.914C112.72 88.9528 112.807 88.9814 112.88 88.9999L112.898 89.0103L112.297 90.0483L112.279 90.0379C112.227 89.9835 112.158 89.9219 112.074 89.8531C111.99 89.7844 111.882 89.7041 111.752 89.6123C111.621 89.5205 111.461 89.4161 111.273 89.2991C111.088 89.1838 110.868 89.0524 110.613 88.9049L109.341 88.1684Z" fill="#43735E"></path><path d="M105.903 96.4498C106.13 96.6371 106.33 96.7962 106.505 96.927C106.68 97.0627 106.834 97.1759 106.966 97.2666C107.095 97.36 107.208 97.4328 107.304 97.4851C107.397 97.5401 107.479 97.5827 107.548 97.613L107.564 97.6262L106.801 98.5513L106.785 98.538C106.741 98.466 106.682 98.3856 106.607 98.2969C106.53 98.2108 106.425 98.1064 106.293 97.9838C106.294 98.1509 106.291 98.3209 106.282 98.4938C106.274 98.6667 106.255 98.8346 106.224 98.9974C106.192 99.1602 106.148 99.3145 106.091 99.4601C106.031 99.6084 105.953 99.7413 105.856 99.8588C105.796 99.9309 105.741 99.9903 105.689 100.037C105.639 100.086 105.59 100.126 105.542 100.158C105.496 100.192 105.45 100.22 105.406 100.241C105.364 100.265 105.323 100.287 105.283 100.308L104.68 99.4807L104.752 99.4258C104.896 99.4907 105.039 99.5078 105.181 99.477C105.326 99.4484 105.461 99.358 105.587 99.2058C105.655 99.1231 105.712 99.0242 105.758 98.9092C105.803 98.7942 105.838 98.6679 105.862 98.5304C105.888 98.3951 105.905 98.252 105.913 98.1013C105.923 97.9528 105.928 97.8036 105.925 97.6538C105.852 97.5845 105.771 97.5124 105.68 97.4375C105.589 97.3626 105.493 97.2832 105.391 97.1995L104.358 96.3466C104.131 96.1593 103.93 95.9978 103.755 95.8621C103.582 95.7286 103.43 95.6165 103.299 95.5258C103.167 95.4351 103.054 95.3623 102.961 95.3073C102.867 95.2523 102.785 95.2097 102.716 95.1795L102.7 95.1662L103.464 94.2412L103.48 94.2544C103.522 94.3167 103.58 94.3887 103.651 94.4704C103.721 94.5547 103.814 94.6515 103.93 94.7609C104.044 94.873 104.183 95.0011 104.347 95.1453C104.511 95.2943 104.707 95.4625 104.933 95.6498L105.903 96.4498Z" fill="#43735E"></path><path d="M95.4887 110.521L95.5836 110.457C95.651 110.508 95.7385 110.558 95.8462 110.606C95.951 110.657 96.0692 110.69 96.2008 110.706C96.3314 110.727 96.4721 110.722 96.6227 110.692C96.7705 110.663 96.9234 110.596 97.0815 110.49C97.2224 110.396 97.3329 110.29 97.4132 110.174C97.4935 110.057 97.545 109.935 97.5677 109.807C97.5875 109.682 97.5804 109.553 97.5463 109.422C97.5123 109.29 97.4519 109.16 97.3651 109.03C97.2262 108.823 97.0357 108.664 96.7934 108.551C96.5501 108.443 96.2791 108.356 95.9803 108.29C95.6815 108.224 95.3683 108.167 95.0407 108.12C94.7132 108.073 94.3952 108.009 94.0867 107.928C93.7783 107.848 93.4933 107.737 93.2317 107.596C92.9692 107.459 92.754 107.266 92.5862 107.016C92.4608 106.829 92.3675 106.618 92.3063 106.384C92.2441 106.155 92.2305 105.92 92.2653 105.68C92.3001 105.44 92.392 105.201 92.541 104.963C92.692 104.729 92.9141 104.513 93.2073 104.316C93.3712 104.206 93.5385 104.117 93.7092 104.048C93.8751 103.979 94.0357 103.923 94.1911 103.881C94.3456 103.844 94.4905 103.818 94.6258 103.802C94.7583 103.788 94.8706 103.782 94.9628 103.782L95.5031 104.802L95.3953 104.874C95.273 104.76 95.1344 104.666 94.9796 104.59C94.8268 104.518 94.6667 104.469 94.4996 104.443C94.3315 104.423 94.1606 104.429 93.9869 104.462C93.8152 104.498 93.6488 104.57 93.4878 104.678C93.3412 104.777 93.2249 104.886 93.1389 105.006C93.0519 105.131 92.9927 105.261 92.9615 105.394C92.9321 105.531 92.9325 105.668 92.9627 105.806C92.99 105.946 93.0471 106.081 93.1339 106.21C93.2554 106.391 93.4003 106.536 93.5687 106.644C93.739 106.755 93.925 106.843 94.1269 106.907C94.3258 106.974 94.5377 107.026 94.7625 107.062C94.9844 107.101 95.2106 107.137 95.4411 107.17C95.6736 107.205 95.9051 107.246 96.1357 107.291C96.3634 107.339 96.5839 107.403 96.7973 107.485C97.0098 107.572 97.2089 107.682 97.3946 107.816C97.5822 107.953 97.7484 108.129 97.8931 108.345C98.0454 108.572 98.1393 108.805 98.1746 109.044C98.2089 109.288 98.1976 109.522 98.1407 109.748C98.0809 109.976 97.9822 110.186 97.8445 110.378C97.7068 110.571 97.5402 110.733 97.3448 110.864C97.201 110.96 97.0611 111.038 96.9249 111.096C96.7888 111.154 96.6626 111.199 96.5466 111.231C96.4276 111.265 96.3216 111.29 96.2285 111.306C96.1354 111.323 96.0591 111.337 95.9996 111.348L95.4887 110.521Z" fill="#43735E"></path><path d="M88.4809 114.181C88.5954 114.452 88.6999 114.686 88.7943 114.883C88.8869 115.084 88.9706 115.256 89.0453 115.397C89.1169 115.54 89.1831 115.656 89.244 115.747C89.3017 115.839 89.3543 115.915 89.4017 115.974L89.4098 115.993L88.3049 116.46L88.2968 116.441C88.2876 116.366 88.2701 116.275 88.2443 116.17C88.2185 116.064 88.181 115.935 88.1317 115.783C88.0825 115.631 88.018 115.452 87.9381 115.245C87.8596 115.041 87.7631 114.804 87.6486 114.533L86.6421 112.151L85.6701 114.213C85.4969 114.568 85.444 114.825 85.5114 114.985L84.4017 115.454L84.3936 115.435C84.4657 115.374 84.5313 115.307 84.5903 115.233C84.6475 115.164 84.7029 115.086 84.7565 114.999C84.8069 114.914 84.8588 114.819 84.9121 114.714C84.9635 114.613 85.0188 114.5 85.0781 114.373L85.94 112.504L83.0571 111.044C82.9701 110.998 82.8776 110.953 82.7796 110.908C82.683 110.866 82.5884 110.829 82.4959 110.797C82.4033 110.764 82.3157 110.739 82.2331 110.722C82.1504 110.704 82.0793 110.7 82.0197 110.71L82.0116 110.691L83.3988 110.105C83.4338 110.188 83.4925 110.265 83.5749 110.335C83.6541 110.407 83.7784 110.488 83.948 110.578L86.535 111.897L86.2076 111.122C86.093 110.851 85.9895 110.615 85.8968 110.414C85.8056 110.215 85.7226 110.046 85.6479 109.904C85.5731 109.763 85.5069 109.646 85.4492 109.554C85.3915 109.462 85.3389 109.387 85.2915 109.328L85.2834 109.309L86.3883 108.842L86.3964 108.861C86.4056 108.936 86.4231 109.026 86.4489 109.132C86.4715 109.239 86.5091 109.368 86.5615 109.518C86.6107 109.67 86.6746 109.848 86.7531 110.052C86.8297 110.26 86.9253 110.5 87.0398 110.771L88.4809 114.181Z" fill="#43735E"></path><path d="M78.9109 115.252C78.9846 115.536 79.0539 115.783 79.1186 115.992C79.1808 116.204 79.2386 116.386 79.292 116.537C79.3419 116.688 79.3904 116.813 79.4374 116.912C79.4811 117.012 79.5221 117.094 79.5604 117.159L79.5656 117.179L78.4044 117.48L78.3992 117.46C78.4011 117.384 78.3969 117.292 78.3868 117.184C78.3767 117.076 78.3583 116.943 78.3318 116.785C78.3053 116.628 78.2676 116.441 78.2188 116.225C78.1708 116.012 78.1099 115.763 78.0362 115.478L77.7212 114.262C77.6474 113.977 77.5794 113.728 77.5171 113.515C77.4558 113.306 77.3984 113.126 77.3451 112.975C77.2918 112.824 77.2433 112.699 77.1996 112.6C77.156 112.5 77.115 112.418 77.0766 112.353L77.0714 112.332L78.2326 112.032L78.2378 112.052C78.236 112.127 78.2401 112.219 78.2502 112.328C78.257 112.437 78.2754 112.57 78.3052 112.726C78.3317 112.884 78.369 113.069 78.417 113.282C78.4624 113.499 78.5221 113.75 78.5958 114.035L78.9109 115.252ZM79.9198 118.713C79.9389 118.787 79.9433 118.859 79.933 118.929C79.9202 119.004 79.8964 119.071 79.8616 119.13C79.8277 119.193 79.7824 119.246 79.7257 119.289C79.6665 119.336 79.5983 119.37 79.5212 119.39C79.4442 119.41 79.3699 119.413 79.2984 119.4C79.2244 119.39 79.1575 119.366 79.0975 119.328C79.0351 119.294 78.9818 119.247 78.9377 119.187C78.891 119.131 78.8581 119.067 78.839 118.993C78.7991 118.839 78.8177 118.696 78.8946 118.565C78.9716 118.435 79.0872 118.349 79.2414 118.309C79.3184 118.289 79.394 118.284 79.4679 118.294C79.5394 118.307 79.6047 118.331 79.6638 118.366C79.7237 118.404 79.777 118.451 79.8236 118.507C79.8678 118.567 79.8999 118.636 79.9198 118.713Z" fill="#43735E"></path><path d="M69.6164 117.284C69.6634 117.738 69.7892 118.063 69.9937 118.258C70.1983 118.452 70.4538 118.534 70.7603 118.502C70.8705 118.491 70.992 118.454 71.1247 118.391C71.2578 118.332 71.3926 118.256 71.529 118.162C71.6658 118.071 71.8012 117.967 71.9352 117.848C72.0691 117.73 72.1938 117.606 72.3091 117.476L72.2495 116.798L72.1203 115.548C72.0901 115.255 72.0601 114.999 72.0305 114.779C72.0012 114.563 71.9715 114.376 71.9413 114.219C71.9112 114.063 71.882 113.932 71.8537 113.827C71.8255 113.722 71.7973 113.634 71.7692 113.564L71.767 113.543L72.9602 113.42L72.9623 113.441C72.9492 113.515 72.9395 113.607 72.9333 113.715C72.9237 113.824 72.9219 113.958 72.9279 114.118C72.9305 114.277 72.9395 114.466 72.9551 114.684C72.9675 114.905 72.9889 115.162 73.0191 115.455L73.1482 116.705C73.1785 116.998 73.21 117.252 73.2427 117.468C73.2724 117.688 73.3023 117.876 73.3324 118.033C73.3591 118.19 73.3883 118.321 73.42 118.426C73.4482 118.531 73.4764 118.618 73.5046 118.688L73.5067 118.709L72.3135 118.832L72.3114 118.812C72.3301 118.723 72.3411 118.61 72.3444 118.474C72.3446 118.342 72.3424 118.168 72.3375 117.953C72.2084 118.085 72.069 118.217 71.9193 118.351C71.7661 118.485 71.6063 118.606 71.4399 118.714C71.2739 118.825 71.1025 118.918 70.9257 118.991C70.7492 119.069 70.5732 119.117 70.3976 119.135C70.129 119.163 69.8969 119.14 69.7014 119.066C69.5024 118.992 69.3365 118.886 69.2038 118.747C69.0676 118.607 68.9635 118.442 68.8916 118.252C68.8166 118.064 68.7687 117.871 68.7481 117.671L68.5667 115.915C68.5364 115.622 68.5065 115.366 68.4768 115.146C68.4475 114.93 68.4178 114.744 68.3876 114.587C68.3575 114.43 68.3283 114.299 68.3001 114.194C68.2718 114.089 68.2436 114.001 68.2155 113.931L68.2134 113.91L69.4065 113.787L69.4087 113.808C69.3955 113.882 69.3858 113.974 69.3796 114.082C69.37 114.191 69.3682 114.325 69.3742 114.485C69.3768 114.645 69.3859 114.833 69.4014 115.051C69.4138 115.272 69.4352 115.529 69.4654 115.822L69.6164 117.284Z" fill="#43735E"></path><path d="M62.4758 121.506C62.4909 121.482 62.5065 121.45 62.5226 121.409C62.5352 121.368 62.5506 121.307 62.5689 121.224C62.587 121.146 62.6082 121.041 62.6326 120.911C62.6567 120.784 62.688 120.621 62.7265 120.422C62.7612 120.226 62.8034 119.989 62.8531 119.711C62.9027 119.433 62.9618 119.107 63.0305 118.732L63.2638 118.745C63.2918 119.128 63.3173 119.459 63.3405 119.737C63.36 120.019 63.3766 120.259 63.3902 120.457C63.4036 120.659 63.4172 120.825 63.4311 120.954C63.4413 121.086 63.4512 121.192 63.4608 121.272C63.4701 121.356 63.4806 121.419 63.4922 121.461C63.5004 121.503 63.509 121.537 63.518 121.562L63.5175 121.572L62.4752 121.516L62.4758 121.506Z" fill="#43735E"></path><path d="M54.3171 117.459L54.3904 117.464C54.3982 117.547 54.4201 117.638 54.4562 117.737C54.489 117.836 54.5401 117.931 54.6095 118.023C54.6756 118.114 54.7631 118.196 54.872 118.268C54.9769 118.342 55.1056 118.395 55.2582 118.427C55.3633 118.448 55.4665 118.453 55.5677 118.442C55.6655 118.431 55.7563 118.402 55.8401 118.355C55.9197 118.312 55.989 118.25 56.0478 118.17C56.1066 118.09 56.1482 117.991 56.1725 117.872C56.2067 117.706 56.1886 117.536 56.1182 117.363C56.0437 117.192 55.9438 117.016 55.8185 116.835C55.6924 116.657 55.5549 116.475 55.4058 116.289C55.2533 116.102 55.1158 115.911 54.9933 115.716C54.8707 115.521 54.7778 115.32 54.7143 115.113C54.6468 114.908 54.635 114.699 54.6789 114.485C54.7145 114.312 54.7798 114.149 54.875 113.996C54.9695 113.845 55.0944 113.719 55.2497 113.617C55.4016 113.514 55.586 113.442 55.8028 113.402C56.0155 113.364 56.2592 113.373 56.5338 113.43C56.6966 113.463 56.8461 113.51 56.9822 113.57C57.115 113.629 57.2362 113.693 57.3458 113.761C57.4514 113.832 57.546 113.905 57.6298 113.978C57.7095 114.055 57.7798 114.126 57.8405 114.191L57.5911 115.147L57.5097 115.131C57.5086 114.964 57.4877 114.808 57.447 114.662C57.4064 114.516 57.3466 114.385 57.2678 114.27C57.1849 114.157 57.0846 114.061 56.9668 113.98C56.8484 113.903 56.7129 113.848 56.5603 113.817C56.3094 113.765 56.0967 113.794 55.9224 113.903C55.7446 114.012 55.6327 114.178 55.5868 114.402C55.5498 114.581 55.5669 114.756 55.638 114.926C55.705 115.099 55.8005 115.271 55.9245 115.441C56.0486 115.611 56.1845 115.784 56.3322 115.959C56.4766 116.134 56.6091 116.315 56.7296 116.502C56.8495 116.693 56.9411 116.892 57.0045 117.1C57.0639 117.31 57.0688 117.535 57.0193 117.776C56.9789 117.972 56.9064 118.145 56.8017 118.293C56.693 118.444 56.5624 118.564 56.4098 118.653C56.2532 118.744 56.0784 118.804 55.8854 118.831C55.6925 118.859 55.4892 118.85 55.2755 118.806C54.9941 118.749 54.7664 118.67 54.5924 118.571C54.4144 118.474 54.2817 118.389 54.1945 118.314L54.3171 117.459Z" fill="#43735E"></path><path d="M38.492 114.904C38.8478 115.105 39.1783 115.27 39.4834 115.398C39.7869 115.529 40.0528 115.636 40.2813 115.717C40.548 115.808 40.7917 115.88 41.0123 115.932L40.4678 116.591C40.4333 116.568 40.3808 116.534 40.3101 116.49C40.2394 116.446 40.1612 116.398 40.0755 116.346C39.9867 116.292 39.895 116.236 39.8002 116.179C39.7007 116.123 39.608 116.068 39.5223 116.016C39.4349 115.967 39.3588 115.922 39.2942 115.882C39.2248 115.842 39.1751 115.814 39.1449 115.797L36.5624 114.341C36.5322 114.324 36.484 114.296 36.4177 114.259C36.3466 114.223 36.2674 114.18 36.1799 114.131C36.0908 114.085 35.998 114.034 35.9015 113.98C35.8003 113.927 35.7051 113.877 35.616 113.831C35.5238 113.783 35.4407 113.74 35.3666 113.702C35.2925 113.664 35.2366 113.637 35.1987 113.619L35.4808 112.812C35.6432 112.976 35.8322 113.148 36.0479 113.329C36.2356 113.483 36.4641 113.655 36.7335 113.847C37.0013 114.042 37.313 114.239 37.6688 114.44L40.1052 110.121C40.2498 109.864 40.3734 109.638 40.4763 109.442C40.5744 109.247 40.658 109.077 40.7272 108.933C40.7934 108.788 40.8453 108.664 40.8829 108.562C40.9176 108.459 40.9437 108.37 40.9613 108.296L40.9715 108.278L42.0525 108.888L42.0423 108.906C41.9885 108.959 41.9277 109.028 41.8599 109.113C41.7921 109.198 41.713 109.307 41.6227 109.439C41.5324 109.57 41.4307 109.73 41.3175 109.916C41.2026 110.106 41.0729 110.329 40.9283 110.585L38.492 114.904Z" fill="#43735E"></path><path d="M33.1557 107.233C32.973 107.463 32.818 107.667 32.6908 107.845C32.5587 108.023 32.4486 108.178 32.3606 108.312C32.2699 108.443 32.1994 108.557 32.149 108.654C32.096 108.749 32.055 108.832 32.0262 108.901L32.0133 108.918L31.0729 108.173L31.0858 108.157C31.1472 108.113 31.218 108.054 31.2982 107.981C31.3784 107.907 31.4733 107.812 31.5831 107.696C31.6928 107.58 31.8191 107.437 31.9621 107.268C32.1029 107.101 32.2646 106.902 32.4473 106.672L33.2274 105.686C33.4101 105.456 33.5675 105.251 33.6996 105.073C33.8296 104.898 33.9385 104.744 34.0265 104.61C34.1145 104.477 34.1851 104.363 34.2381 104.268C34.2912 104.173 34.3321 104.091 34.361 104.021L34.3739 104.004L35.3143 104.749L35.3014 104.765C35.2399 104.809 35.1691 104.868 35.089 104.942C35.006 105.013 34.9111 105.108 34.8041 105.226C34.6944 105.342 34.5691 105.484 34.4283 105.65C34.2826 105.818 34.1184 106.017 33.9358 106.247L33.1557 107.233ZM31.004 110.125C30.9567 110.185 30.9018 110.232 30.8393 110.267C30.7718 110.302 30.7041 110.323 30.636 110.331C30.5658 110.342 30.4963 110.337 30.4275 110.318C30.3539 110.3 30.2859 110.266 30.2235 110.216C30.161 110.167 30.1137 110.109 30.0815 110.044C30.0444 109.979 30.023 109.912 30.0172 109.841C30.0066 109.771 30.0119 109.7 30.0332 109.628C30.0496 109.557 30.0814 109.492 30.1287 109.432C30.2276 109.308 30.3524 109.236 30.5031 109.219C30.6539 109.201 30.7917 109.242 30.9165 109.341C30.979 109.39 31.0287 109.447 31.0658 109.512C31.098 109.577 31.1181 109.644 31.126 109.712C31.1318 109.783 31.1264 109.854 31.11 109.925C31.0888 109.996 31.0534 110.063 31.004 110.125Z" fill="#43735E"></path><path d="M25.8556 101.019C25.6838 101.17 25.5514 101.318 25.4584 101.464C25.3631 101.608 25.3047 101.748 25.2833 101.887C25.2571 102.025 25.2655 102.158 25.3086 102.286C25.3491 102.416 25.4195 102.539 25.5199 102.653C25.5884 102.731 25.6804 102.805 25.7961 102.874C25.9118 102.943 26.0426 103.005 26.1885 103.061C26.3296 103.117 26.4809 103.167 26.6424 103.209C26.8017 103.249 26.9616 103.279 27.1222 103.3C27.2101 103.232 27.3022 103.156 27.3985 103.071C27.4922 102.989 27.5938 102.9 27.7031 102.804L28.6481 101.976C28.8694 101.782 29.0611 101.609 29.2232 101.458C29.3826 101.309 29.5177 101.177 29.6283 101.062C29.7389 100.946 29.8289 100.847 29.8982 100.763C29.9675 100.679 30.0226 100.606 30.0636 100.542L30.0792 100.528L30.8699 101.431L30.8542 101.444C30.7859 101.476 30.7056 101.521 30.6135 101.579C30.5191 101.634 30.4086 101.71 30.282 101.808C30.1531 101.902 30.0044 102.019 29.8358 102.157C29.6624 102.295 29.465 102.462 29.2437 102.656L28.2986 103.484C28.0773 103.678 27.8881 103.85 27.7309 104.002C27.5689 104.153 27.4325 104.287 27.3219 104.402C27.209 104.515 27.119 104.614 27.052 104.701C26.9827 104.784 26.9276 104.858 26.8866 104.922L26.871 104.935L26.0804 104.033L26.096 104.019C26.1741 103.988 26.2657 103.937 26.3709 103.868C26.4711 103.799 26.5972 103.709 26.7492 103.599C26.5747 103.568 26.3945 103.528 26.2089 103.479C26.0232 103.43 25.8444 103.37 25.6724 103.3C25.4981 103.227 25.3355 103.144 25.1846 103.051C25.0338 102.957 24.9036 102.848 24.7941 102.723C24.664 102.575 24.5683 102.426 24.507 102.277C24.4456 102.129 24.4111 101.982 24.4035 101.836C24.3959 101.691 24.4126 101.55 24.4535 101.413C24.4921 101.273 24.5498 101.142 24.6266 101.019C24.4419 100.993 24.2506 100.955 24.0525 100.908C23.8496 100.86 23.6548 100.801 23.4681 100.73C23.2792 100.656 23.1021 100.569 22.9369 100.47C22.7695 100.368 22.6275 100.251 22.5112 100.118C22.3332 99.9153 22.2177 99.7127 22.1648 99.5105C22.1096 99.3057 22.1005 99.1088 22.1375 98.9199C22.1722 98.7284 22.2466 98.5481 22.3608 98.379C22.4701 98.2096 22.6002 98.0587 22.7512 97.9263L24.0789 96.7626C24.3002 96.5687 24.4919 96.3961 24.654 96.2449C24.8134 96.0959 24.9485 95.9637 25.0591 95.8484C25.1697 95.733 25.2597 95.6334 25.329 95.5497C25.396 95.4633 25.45 95.3884 25.491 95.3248L25.5066 95.3111L26.3006 96.2171L26.285 96.2308C26.2167 96.2631 26.1364 96.3081 26.0443 96.3658C25.9499 96.421 25.8383 96.4958 25.7094 96.5903C25.5805 96.6849 25.4318 96.8014 25.2632 96.94C25.092 97.0808 24.8958 97.2482 24.6745 97.4421L23.5693 98.4107C23.2257 98.7119 23.0336 99.0022 22.9931 99.2817C22.9526 99.5611 23.0339 99.8167 23.237 100.048C23.3078 100.129 23.4021 100.205 23.52 100.277C23.6357 100.346 23.7665 100.408 23.9125 100.465C24.0584 100.521 24.2134 100.569 24.3776 100.609C24.5392 100.652 24.7002 100.683 24.8608 100.704C24.8875 100.671 24.9164 100.641 24.9477 100.614C24.9789 100.586 25.0089 100.56 25.0375 100.535L26.3653 99.3713C26.5865 99.1773 26.7782 99.0047 26.9403 98.8535C27.0974 98.7019 27.2325 98.5698 27.3454 98.457C27.456 98.3416 27.546 98.2421 27.6153 98.1583C27.6823 98.072 27.7363 97.997 27.7773 97.9335L27.7929 97.9198L28.5835 98.8219L28.5679 98.8356C28.4996 98.8679 28.4193 98.9129 28.3272 98.9706C28.2351 99.0283 28.1246 99.1044 27.9957 99.199C27.8668 99.2935 27.7181 99.4101 27.5495 99.5486C27.3783 99.6894 27.1821 99.8568 26.9608 100.051L25.8556 101.019Z" fill="#43735E"></path><path d="M21.8953 89.6916C22.0793 90.0289 22.1985 90.374 22.2529 90.7268C22.3073 91.0797 22.2923 91.421 22.208 91.7509C22.1207 92.0824 21.9614 92.394 21.7301 92.6858C21.4941 92.9761 21.1816 93.2274 20.7926 93.4395C20.4492 93.6268 20.1001 93.7423 19.7453 93.7859C19.3875 93.8312 19.0452 93.8109 18.7184 93.7249C18.3916 93.639 18.0936 93.4939 17.8245 93.2897C17.5538 93.0825 17.3322 92.8208 17.1598 92.5047C16.9891 92.1917 16.8855 91.8716 16.8491 91.5445C16.8096 91.219 16.8402 90.9027 16.9408 90.5954C17.0367 90.2868 17.2059 89.9934 17.4485 89.7152C17.6864 89.4357 17.9959 89.1861 18.3769 88.9665C18.5581 89.3132 18.7408 89.6591 18.9251 90.0042C19.1093 90.3493 19.3026 90.7073 19.5048 91.078C19.649 91.3425 19.7914 91.6 19.932 91.8506C20.0709 92.0981 20.1982 92.3206 20.3136 92.5178C20.6198 92.3272 20.8789 92.1228 21.0911 91.9045C21.3017 91.6833 21.46 91.453 21.5661 91.2137C21.6675 90.9731 21.7122 90.726 21.7 90.4723C21.6863 90.2157 21.6097 89.9597 21.4705 89.7044C21.3744 89.5281 21.2643 89.3732 21.1403 89.2398C21.0115 89.105 20.8759 88.9936 20.7333 88.9057C20.5908 88.8179 20.4435 88.7503 20.2916 88.703C20.1366 88.6574 19.9823 88.6312 19.8286 88.6243L19.8262 88.5546L20.8216 88.4495C20.9962 88.5672 21.1761 88.7234 21.3612 88.9182C21.5432 89.1147 21.7213 89.3725 21.8953 89.6916ZM19.445 91.8145C19.2793 91.5105 19.1136 91.2066 18.9478 90.9027C18.7774 90.5974 18.6196 90.3226 18.4746 90.0784C18.2251 90.2499 18.0162 90.4309 17.8479 90.6212C17.6797 90.8116 17.5549 91.0058 17.4737 91.2039C17.3924 91.402 17.3562 91.6031 17.365 91.8073C17.3739 92.0114 17.4313 92.2108 17.5374 92.4053C17.6335 92.5816 17.7617 92.7226 17.9219 92.8285C18.0775 92.9329 18.258 93 18.4636 93.0299C18.6691 93.0598 18.8965 93.0501 19.1457 93.001C19.3919 92.9535 19.6536 92.862 19.9307 92.7267C19.8622 92.5866 19.7865 92.4406 19.7036 92.2886C19.6207 92.1366 19.5345 91.9786 19.445 91.8145Z" fill="#43735E"></path><path d="M13.4117 85.586C13.1352 85.6866 12.8962 85.7791 12.6948 85.8635C12.489 85.9457 12.3136 86.0206 12.1687 86.0881C12.0226 86.1523 11.9027 86.2125 11.809 86.2688C11.7141 86.3217 11.636 86.3704 11.5748 86.4148L11.5553 86.4219L11.145 85.2947L11.1645 85.2876C11.24 85.2823 11.331 85.2694 11.4378 85.2489C11.5446 85.2285 11.6751 85.1975 11.8295 85.1561C11.9839 85.1146 12.1664 85.0593 12.3769 84.99C12.5843 84.9219 12.8262 84.8376 13.1027 84.7369L16.5818 83.4707C16.8583 83.3701 17.0995 83.2786 17.3053 83.1963C17.5079 83.1152 17.6817 83.0409 17.8266 82.9735C17.9715 82.906 18.0914 82.8458 18.1863 82.7928C18.2812 82.7398 18.3593 82.6912 18.4205 82.6468L18.44 82.6397L18.8503 83.7669L18.8308 83.774C18.7553 83.7793 18.6642 83.7922 18.5575 83.8126C18.4495 83.8298 18.319 83.8608 18.1658 83.9055C18.0114 83.9469 17.8305 84.0017 17.6232 84.0698C17.4115 84.1358 17.1674 84.2191 16.8908 84.3197L13.4117 85.586Z" fill="#43735E"></path><path d="M16.5602 76.1639C16.6358 76.5406 16.6472 76.9056 16.5945 77.2586C16.5417 77.6117 16.4262 77.9332 16.2478 78.2233C16.0661 78.5139 15.8215 78.7643 15.514 78.9743C15.2025 79.1815 14.8296 79.3288 14.3951 79.4159C14.0116 79.4929 13.6439 79.4996 13.2922 79.436C12.9371 79.3731 12.6162 79.2521 12.3296 79.073C12.043 78.894 11.8015 78.667 11.6051 78.3922C11.4081 78.1139 11.2741 77.7983 11.2033 77.4453C11.1331 77.0957 11.1292 76.7593 11.1915 76.4361C11.2503 76.1136 11.3734 75.8206 11.5606 75.557C11.7437 75.2908 11.9924 75.0608 12.3066 74.8671C12.6168 74.6707 12.9863 74.5242 13.4154 74.4275C13.4855 74.8124 13.5574 75.197 13.631 75.5812C13.7045 75.9654 13.7828 76.3646 13.8659 76.7787C13.9252 77.0739 13.9848 77.3621 14.0447 77.6431C14.1039 77.9208 14.1594 78.1709 14.2112 78.3936C14.5601 78.3024 14.8682 78.1841 15.1356 78.0386C15.4024 77.8898 15.6219 77.7168 15.7942 77.5198C15.9624 77.3201 16.0784 77.0974 16.1421 76.8516C16.205 76.6024 16.2079 76.3352 16.1507 76.0501C16.1112 75.8532 16.052 75.6727 15.9732 75.5084C15.8903 75.3415 15.7938 75.1949 15.6837 75.0687C15.5736 74.9425 15.453 74.8342 15.322 74.744C15.1875 74.6545 15.0479 74.5836 14.9033 74.5315L14.9216 74.4642L15.9034 74.6591C16.0352 74.8234 16.1606 75.0259 16.2796 75.2669C16.3951 75.5085 16.4887 75.8075 16.5602 76.1639ZM13.5904 77.4642C13.5223 77.1248 13.4542 76.7854 13.3861 76.4459C13.3139 76.1038 13.2448 75.7946 13.1788 75.5183C12.8896 75.6081 12.6364 75.719 12.4193 75.8508C12.2021 75.9827 12.0253 76.1311 11.889 76.2962C11.7526 76.4612 11.6583 76.6426 11.6062 76.8402C11.554 77.0378 11.5498 77.2452 11.5933 77.4624C11.6328 77.6593 11.7134 77.832 11.835 77.9806C11.9526 78.1265 12.1051 78.2442 12.2925 78.3337C12.4799 78.4232 12.6999 78.4814 12.9525 78.5084C13.2017 78.5361 13.4787 78.5264 13.7835 78.4794C13.7596 78.3253 13.7307 78.1634 13.6966 77.9937C13.6626 77.824 13.6272 77.6475 13.5904 77.4642Z" fill="#43735E"></path><path d="M11.0082 67.165L11.0199 67.2375C10.9407 67.2631 10.8565 67.3044 10.7675 67.3613C10.6784 67.4148 10.5965 67.4854 10.5219 67.5733C10.4471 67.6577 10.3866 67.7608 10.3402 67.8828C10.2903 68.0014 10.2667 68.1386 10.2694 68.2943C10.2712 68.4016 10.2886 68.5035 10.3214 68.5998C10.3541 68.6928 10.4023 68.775 10.4658 68.8466C10.5259 68.9149 10.6012 68.969 10.692 69.009C10.7827 69.0489 10.8886 69.0679 11.0097 69.0658C11.1793 69.0629 11.3411 69.0082 11.4951 68.9017C11.6456 68.7917 11.7956 68.6559 11.9451 68.494C12.0912 68.3323 12.2388 68.1583 12.388 67.9723C12.5371 67.7827 12.6933 67.6069 12.8567 67.4449C13.0201 67.2828 13.1961 67.1482 13.3847 67.0411C13.5698 66.9306 13.7713 66.8734 13.9894 66.8697C14.1659 66.8666 14.3395 66.8948 14.5102 66.9542C14.6774 67.0137 14.8279 67.108 14.9617 67.2373C15.0955 67.3631 15.2056 67.5274 15.2922 67.7302C15.3753 67.9296 15.4192 68.1695 15.424 68.4498C15.4269 68.616 15.414 68.772 15.3853 68.9179C15.3566 69.0603 15.3208 69.1925 15.2779 69.3145C15.2314 69.433 15.1814 69.5412 15.1276 69.639C15.0704 69.7335 15.0165 69.8175 14.9658 69.8911L13.9784 69.8561L13.977 69.7731C14.1391 69.7357 14.287 69.6812 14.4208 69.6096C14.5546 69.5381 14.6691 69.4513 14.7643 69.3492C14.856 69.2438 14.9284 69.1248 14.9815 68.9924C15.0312 68.8599 15.0547 68.7158 15.052 68.5601C15.0476 68.3039 14.9731 68.1027 14.8287 67.9563C14.6841 67.8064 14.4976 67.7335 14.2692 67.7374C14.0857 67.7405 13.9188 67.7953 13.7683 67.9018C13.6142 68.0049 13.4676 68.1355 13.3283 68.2937C13.1891 68.4519 13.0501 68.6222 12.9113 68.8046C12.7724 68.9836 12.6247 69.1523 12.4681 69.3108C12.3081 69.4694 12.1338 69.6022 11.9452 69.7093C11.7531 69.813 11.5342 69.867 11.2884 69.8712C11.0877 69.8747 10.9036 69.8415 10.7362 69.7716C10.5653 69.6984 10.4199 69.597 10.2999 69.4675C10.1765 69.3346 10.0803 69.177 10.0114 68.9947C9.94244 68.8124 9.90611 68.6122 9.90236 68.3941C9.89742 68.1068 9.92447 67.8675 9.9835 67.676C10.039 67.4812 10.0936 67.3331 10.1472 67.2318L11.0082 67.165Z" fill="#43735E"></path><path d="M11.4896 57.8227L11.4884 57.8961C11.406 57.9075 11.316 57.9335 11.2184 57.9741C11.1213 58.0112 11.0284 58.0665 10.9396 58.14C10.8513 58.2101 10.7737 58.3012 10.7068 58.4132C10.6371 58.5213 10.5899 58.6523 10.5654 58.8061C10.5486 58.9121 10.5479 59.0154 10.5635 59.116C10.5795 59.2132 10.6126 59.3026 10.6628 59.3842C10.71 59.4618 10.7748 59.5282 10.8572 59.5834C10.9395 59.6386 11.0405 59.6757 11.1602 59.6947C11.3277 59.7213 11.4966 59.6956 11.6667 59.6175C11.834 59.5355 12.0054 59.4278 12.1808 59.2945C12.3529 59.1606 12.5285 59.015 12.7078 58.8578C12.8876 58.6971 13.072 58.5512 13.2612 58.42C13.4503 58.2888 13.647 58.1869 13.8514 58.1143C14.0529 58.0377 14.2613 58.0165 14.4767 58.0508C14.651 58.0785 14.8171 58.1365 14.9748 58.2247C15.1291 58.3123 15.2609 58.4314 15.3702 58.582C15.4799 58.7292 15.5598 58.9101 15.6098 59.1249C15.6569 59.3357 15.6584 59.5796 15.6143 59.8565C15.5882 60.0206 15.5483 60.172 15.4947 60.3107C15.4417 60.446 15.3834 60.5699 15.3199 60.6825C15.2535 60.7911 15.1854 60.8889 15.1155 60.976C15.0427 61.059 14.9749 61.1324 14.9122 61.196L13.946 60.9897L13.959 60.9077C14.1252 60.899 14.2803 60.8711 14.4246 60.824C14.5688 60.7768 14.6966 60.7113 14.8081 60.6274C14.9168 60.5395 15.0087 60.4349 15.0841 60.3137C15.1561 60.192 15.2043 60.0542 15.2288 59.9003C15.269 59.6473 15.2307 59.4362 15.114 59.2669C14.9977 59.0941 14.8268 58.9898 14.6011 58.9539C14.4199 58.9251 14.246 58.95 14.0792 59.0286C13.9096 59.1033 13.7425 59.2064 13.5778 59.338C13.4132 59.4695 13.2466 59.613 13.0782 59.7685C12.9103 59.9205 12.7354 60.061 12.5537 60.1898C12.3685 60.3181 12.1738 60.4186 11.9694 60.4912C11.7622 60.5599 11.5372 60.5749 11.2945 60.5363C11.0962 60.5048 10.9207 60.44 10.768 60.3421C10.6124 60.2403 10.4869 60.1151 10.3913 59.9667C10.2929 59.8143 10.2256 59.6424 10.1894 59.4509C10.1533 59.2593 10.1524 59.0559 10.1867 58.8405C10.2318 58.5567 10.3001 58.3257 10.3916 58.1475C10.4801 57.9653 10.5597 57.8289 10.6301 57.7385L11.4896 57.8227Z" fill="white"></path><path d="M13.9099 44.2463C13.6474 44.1132 13.4173 44.0005 13.2197 43.908C13.0189 43.814 12.8444 43.7372 12.6961 43.6775C12.5447 43.6163 12.4165 43.5707 12.3114 43.5407C12.2078 43.5076 12.1189 43.4839 12.0447 43.4696L12.0262 43.4602C12.0606 43.4 12.095 43.3359 12.1294 43.268C12.1622 43.2109 12.1967 43.1469 12.2327 43.0758C12.2702 43.0017 12.3086 42.9261 12.3477 42.8489C12.4041 42.7377 12.4692 42.5825 12.543 42.3832C12.6185 42.1808 12.7321 41.9298 12.8839 41.6303C13.0248 41.3524 13.1918 41.1149 13.3848 40.9178C13.5748 40.7192 13.7808 40.5693 14.0027 40.4684C14.2262 40.3643 14.4626 40.3153 14.7118 40.3214C14.9596 40.3227 15.21 40.3876 15.4632 40.5159C15.6762 40.6239 15.8528 40.7503 15.9929 40.8951C16.1299 41.0383 16.2343 41.196 16.3061 41.3682C16.3764 41.5358 16.4164 41.7172 16.4262 41.9123C16.4344 42.1028 16.4179 42.3001 16.3765 42.5042C16.5497 42.2621 16.7389 42.0573 16.9442 41.8896C17.1464 41.7205 17.3576 41.5947 17.5779 41.5123C17.7998 41.4268 18.0276 41.3909 18.2613 41.4046C18.4935 41.4136 18.7254 41.4768 18.9569 41.5942C19.6085 41.9245 19.9891 42.3872 20.0988 42.9823C20.2054 43.5759 20.042 44.3003 19.6084 45.1556C19.5614 45.2482 19.502 45.3539 19.4301 45.4728C19.3614 45.5931 19.2895 45.7158 19.2145 45.8408C19.141 45.9627 19.0684 46.0831 18.9965 46.2019C18.9277 46.3223 18.8698 46.4288 18.8229 46.5214L18.6679 46.8271L18.6494 46.8177C18.5939 46.7663 18.5223 46.7086 18.4344 46.6447C18.348 46.5776 18.237 46.5019 18.1012 46.4176C17.9654 46.3332 17.8018 46.2386 17.6104 46.1338C17.416 46.0275 17.1875 45.9078 16.925 45.7747L13.9099 44.2463ZM16.3139 43.3283C16.2074 43.5383 16.1259 43.7182 16.0694 43.8681C16.0128 44.0179 15.9727 44.1354 15.949 44.2204L17.3524 44.9318C17.7136 45.1149 18.0147 45.2598 18.2556 45.3664C18.4966 45.473 18.6966 45.5531 18.8558 45.6066C18.9307 45.4971 19.0041 45.3868 19.0759 45.2757C19.1478 45.1647 19.2017 45.0736 19.2377 45.0026C19.5304 44.4252 19.6159 43.9388 19.4942 43.5433C19.371 43.1432 19.0423 42.8077 18.5082 42.5369C18.2982 42.4305 18.0903 42.3659 17.8845 42.343C17.6772 42.3156 17.4782 42.3331 17.2874 42.3955C17.0982 42.4548 16.9211 42.563 16.7561 42.72C16.5896 42.8723 16.4422 43.0751 16.3139 43.3283ZM15.5321 44.0091C15.5852 43.9273 15.6305 43.8532 15.668 43.7869C15.7025 43.7189 15.7393 43.6464 15.7784 43.5692C15.8848 43.3592 15.9526 43.1529 15.9815 42.9503C16.0074 42.746 15.9907 42.5532 15.9313 42.3717C15.8735 42.1872 15.7723 42.0155 15.6276 41.8568C15.4799 41.6965 15.2856 41.5554 15.0448 41.4333C14.8441 41.3315 14.6494 41.2639 14.4607 41.2303C14.272 41.1968 14.0954 41.2004 13.9311 41.2413C13.7653 41.2776 13.6154 41.351 13.4817 41.4618C13.3479 41.5725 13.2349 41.719 13.1425 41.9011C13.083 42.0185 13.0352 42.1243 12.9991 42.2185C12.9645 42.3097 12.9378 42.3892 12.9188 42.4573C12.8952 42.5345 12.8801 42.6026 12.8736 42.6614L15.5321 44.0091Z" fill="white"></path><path d="M24.9069 36.2258C24.6695 36.5279 24.3994 36.7735 24.0967 36.9627C23.7939 37.1519 23.4743 37.2728 23.138 37.3254C22.7989 37.376 22.4497 37.3525 22.0904 37.255C21.7305 37.1527 21.3763 36.9647 21.0279 36.6909C20.7203 36.4492 20.4765 36.1739 20.2965 35.8651C20.1138 35.5542 19.9974 35.2316 19.9475 34.8974C19.8976 34.5632 19.9134 34.2321 19.9949 33.9043C20.0785 33.5738 20.2315 33.267 20.454 32.9839C20.6743 32.7036 20.9276 32.4821 21.2138 32.3196C21.4973 32.1549 21.8001 32.0582 22.1221 32.0295C22.4435 31.9959 22.7798 32.0357 23.1312 32.1489C23.4819 32.2572 23.8333 32.4431 24.1854 32.7066C23.9383 33.0099 23.6925 33.3143 23.4481 33.6197C23.2036 33.9251 22.9509 34.2439 22.69 34.576C22.5039 34.8128 22.3234 35.0452 22.1486 35.2733C21.9759 35.4986 21.8217 35.7032 21.686 35.8871C21.9819 36.0933 22.272 36.2508 22.5562 36.3597C22.8426 36.4659 23.1167 36.5206 23.3784 36.5237C23.6395 36.522 23.8842 36.4655 24.1125 36.3543C24.3429 36.2404 24.5479 36.0691 24.7276 35.8405C24.8517 35.6826 24.9506 35.5204 25.0243 35.3537C25.0974 35.1823 25.1462 35.0137 25.1707 34.848C25.1953 34.6824 25.1993 34.5204 25.1827 34.3621C25.1635 34.2017 25.1268 34.0496 25.0725 33.9057L25.1355 33.8759L25.6248 34.7492C25.5856 34.9561 25.5129 35.183 25.4069 35.4299C25.2982 35.6747 25.1315 35.94 24.9069 36.2258ZM21.9897 34.8116C22.2036 34.5394 22.4175 34.2672 22.6314 33.995C22.8447 33.7179 23.035 33.4646 23.2022 33.235C22.9462 33.0734 22.6975 32.9528 22.4562 32.8733C22.2149 32.7937 21.9872 32.7557 21.7732 32.7592C21.5591 32.7627 21.36 32.8087 21.1759 32.8974C20.9917 32.986 20.8312 33.1174 20.6943 33.2916C20.5702 33.4495 20.4912 33.6229 20.4571 33.8119C20.4225 33.996 20.432 34.1884 20.4857 34.3891C20.5393 34.5898 20.6379 34.7949 20.7813 35.0045C20.9221 35.212 21.1093 35.4164 21.343 35.6176C21.4447 35.4994 21.549 35.3723 21.656 35.2362C21.7629 35.1001 21.8742 34.9585 21.9897 34.8116Z" fill="white"></path><path d="M27.9628 29.9395C27.7826 29.7337 27.6681 29.5188 27.6191 29.2948C27.5728 29.0685 27.5732 28.8404 27.6203 28.6104C27.6674 28.3805 27.7523 28.1543 27.875 27.9318C27.9954 27.7067 28.136 27.4916 28.2968 27.2863C28.4553 27.0785 28.6226 26.8859 28.7987 26.7087C28.9726 26.5289 29.1365 26.3692 29.2904 26.2298L29.116 26.0305C28.9654 25.8587 28.8133 25.7296 28.6595 25.6434C28.5058 25.5571 28.3532 25.509 28.2018 25.499C28.048 25.4863 27.8968 25.5107 27.748 25.5719C27.5995 25.6283 27.4576 25.7158 27.3221 25.8344C27.2284 25.9165 27.1428 26.0053 27.0653 26.1008C26.9878 26.1962 26.9156 26.3055 26.8485 26.4286C26.7841 26.5495 26.7246 26.6891 26.6699 26.8474C26.6179 27.0034 26.5716 27.1843 26.5309 27.3901L26.4714 27.4009L26.2546 26.6175C26.3064 26.5031 26.3636 26.3978 26.4264 26.3013C26.487 26.2023 26.5534 26.1073 26.6256 26.0165C26.6979 25.9256 26.776 25.8387 26.86 25.756C26.9443 25.6684 27.0359 25.5812 27.1349 25.4945C27.4084 25.2551 27.6711 25.0848 27.9231 24.9837C28.1755 24.8778 28.4141 24.8298 28.6392 24.8398C28.8645 24.8449 29.0743 24.9005 29.2684 25.0066C29.4603 25.1101 29.6338 25.2504 29.7888 25.4275L30.9041 26.701C31.098 26.9223 31.2705 27.1141 31.4217 27.2762C31.5732 27.4334 31.7053 27.5685 31.818 27.6815C31.9333 27.7922 32.0329 27.8822 32.1166 27.9515C32.2029 28.0185 32.2778 28.0726 32.3414 28.1136L32.3551 28.1292L31.4917 28.8853L31.478 28.8696C31.4546 28.8166 31.4226 28.7617 31.3822 28.7051C31.3444 28.6461 31.2962 28.5779 31.2375 28.5004C31.2239 28.5952 31.201 28.7004 31.1688 28.816C31.1392 28.9294 31.0945 29.0491 31.0346 29.1751C30.9751 29.2963 30.897 29.4199 30.8003 29.546C30.7085 29.6724 30.5936 29.796 30.4556 29.9169C30.0024 30.3138 29.5598 30.515 29.1276 30.5208C28.6932 30.5239 28.3049 30.3301 27.9628 29.9395ZM29.5573 26.5345C29.3226 26.7446 29.1072 26.9585 28.9113 27.1761C28.713 27.3912 28.5635 27.6119 28.4626 27.8382C28.3644 28.0623 28.3283 28.2918 28.3545 28.5266C28.3809 28.7565 28.4991 28.9912 28.7089 29.2308C28.9781 29.5381 29.2601 29.7052 29.5552 29.7322C29.8503 29.7591 30.1332 29.6539 30.4041 29.4167C30.5291 29.3072 30.6275 29.1911 30.6995 29.0683C30.7717 28.9406 30.8241 28.8165 30.8566 28.696C30.8894 28.5706 30.9058 28.4527 30.9058 28.3423C30.9035 28.2293 30.8904 28.1303 30.8666 28.0453C30.7851 27.9418 30.6919 27.8301 30.587 27.7103C30.4798 27.5879 30.359 27.4499 30.2244 27.2963L29.5573 26.5345Z" fill="white"></path><path d="M35.9531 23.0352C36.1854 23.4287 36.4337 23.672 36.6978 23.7653C36.9649 23.8568 37.2311 23.8243 37.4964 23.6676C37.5918 23.6113 37.6877 23.5285 37.7841 23.4194C37.8786 23.3072 37.9692 23.1814 38.0557 23.0419C38.1433 22.8976 38.2234 22.7438 38.2958 22.5805C38.3711 22.4154 38.4326 22.2504 38.48 22.0857C38.4349 21.9958 38.3842 21.9031 38.3279 21.8077C38.2698 21.7093 38.2082 21.605 38.1431 21.4947L37.5041 20.4126C37.3545 20.1593 37.2197 19.9413 37.0999 19.7588C36.9813 19.5715 36.8755 19.4129 36.7826 19.2828C36.6927 19.1509 36.6115 19.0441 36.5391 18.9623C36.4696 18.8787 36.4074 18.8108 36.3526 18.7588L36.342 18.7409L37.3749 18.131L37.3855 18.1489C37.4046 18.222 37.4339 18.3092 37.4736 18.4104C37.5133 18.5116 37.5676 18.6343 37.6367 18.7785C37.7057 18.9226 37.7936 19.0919 37.9003 19.2862C38.0052 19.4775 38.1325 19.6998 38.2821 19.9532L38.9211 21.0353C39.0707 21.2886 39.2048 21.509 39.3234 21.6962C39.4403 21.8805 39.5452 22.0377 39.6381 22.1677C39.731 22.2978 39.8122 22.4047 39.8816 22.4883C39.9511 22.5719 40.0133 22.6397 40.0681 22.6917L40.0787 22.7096L39.0458 23.3196L39.0352 23.3017C39.0091 23.2166 38.9707 23.1106 38.9199 22.9838C38.8721 22.8552 38.7973 22.6944 38.6953 22.5013C38.6347 22.6778 38.5628 22.859 38.4795 23.0449C38.3993 23.2289 38.3054 23.407 38.1979 23.579C38.0934 23.7493 37.9763 23.9049 37.8465 24.0459C37.7214 24.1881 37.5828 24.3041 37.4308 24.3939C37.1983 24.5312 36.9763 24.608 36.7648 24.6243C36.5563 24.6389 36.3612 24.6114 36.1794 24.5418C36.0006 24.4705 35.8381 24.3655 35.6918 24.2267C35.5485 24.0862 35.4249 23.928 35.3211 23.7521L34.4233 22.2319C34.2737 21.9785 34.1405 21.7597 34.0236 21.5754C33.905 21.3881 33.7993 21.2295 33.7064 21.0994C33.6135 20.9693 33.5323 20.8625 33.4628 20.7789C33.3933 20.6952 33.3312 20.6274 33.2763 20.5754L33.2658 20.5575L34.2986 19.9476L34.3092 19.9655C34.3283 20.0386 34.3576 20.1258 34.3973 20.227C34.437 20.3282 34.4913 20.4509 34.5604 20.5951C34.6294 20.7392 34.7173 20.9085 34.824 21.1028C34.9289 21.2941 35.0562 21.5164 35.2058 21.7698L35.9531 23.0352Z" fill="white"></path><path d="M45.8404 19.6105C45.9372 19.5729 46.0255 19.5182 46.1053 19.4464C46.1884 19.3733 46.2615 19.2892 46.3248 19.194C46.3914 19.0976 46.45 18.995 46.5005 18.8862C46.5531 18.773 46.598 18.659 46.6351 18.5443L46.6929 18.5497L46.681 19.4512C46.6498 19.4856 46.6108 19.5286 46.564 19.5802C46.5191 19.6273 46.4608 19.6779 46.3889 19.7318C46.3214 19.7877 46.2376 19.8444 46.1374 19.9019C46.0384 19.9626 45.9163 20.0211 45.7711 20.0775C45.3387 20.2455 44.9564 20.2603 44.6241 20.1219C44.2938 19.9791 44.0322 19.6592 43.8392 19.1622L42.5852 15.9336L41.7833 16.2785L41.6179 15.8525C41.7204 15.8202 41.8417 15.7786 41.9817 15.728C42.1217 15.6773 42.274 15.62 42.4386 15.5561C42.3464 15.3282 42.2616 15.129 42.1842 14.9585C42.1089 14.7836 42.0396 14.634 41.9766 14.51C41.9155 14.3814 41.8594 14.2751 41.8082 14.191C41.7569 14.1069 41.7114 14.0374 41.6714 13.9823L41.6639 13.963L42.782 13.5287L42.7896 13.548C42.794 13.6169 42.8057 13.6996 42.8247 13.7962C42.8436 13.8929 42.8717 14.0082 42.9089 14.1423C42.9494 14.2751 42.9992 14.4322 43.0585 14.6134C43.1197 14.7902 43.1938 14.9954 43.2808 15.229C43.4829 15.1468 43.6801 15.0665 43.8725 14.9881C44.0668 14.9052 44.2418 14.8298 44.3974 14.7619C44.555 14.6896 44.6874 14.6289 44.7946 14.5798C44.9038 14.5262 44.9749 14.4893 45.0079 14.4691L45.1125 14.9967C44.9467 15.0574 44.7721 15.1196 44.5889 15.1833C44.4315 15.237 44.2521 15.3011 44.0508 15.3756C43.8495 15.4501 43.6417 15.527 43.4275 15.6065L44.7209 18.9368C44.7986 19.1369 44.8828 19.2917 44.9737 19.4012C45.0665 19.5063 45.1605 19.5812 45.2559 19.6259C45.3545 19.6693 45.4523 19.687 45.5495 19.679C45.6499 19.6697 45.7468 19.6469 45.8404 19.6105Z" fill="white"></path><path d="M52.0302 17.8195L49.4089 14.2901C49.3128 14.1548 49.213 14.0274 49.1097 13.9079C49.0056 13.7849 48.9082 13.6765 48.8173 13.5826C48.7299 13.488 48.6532 13.4105 48.5873 13.3502C48.5206 13.2866 48.4767 13.2464 48.4554 13.2297L48.4511 13.2094L49.7817 12.9257L49.786 12.946C49.7828 12.9644 49.7832 12.9909 49.787 13.0255C49.7908 13.06 49.7956 13.0909 49.8014 13.118C49.8238 13.2229 49.8639 13.3365 49.9218 13.4586C49.9824 13.5767 50.0769 13.7211 50.2053 13.892L52.2567 16.6403L52.8955 13.3609C52.923 13.2241 52.9479 13.0754 52.9703 12.9149C52.9961 12.7537 52.9928 12.5969 52.9603 12.4445C52.9509 12.4005 52.94 12.3657 52.9274 12.34C52.9142 12.311 52.903 12.2921 52.8941 12.2834L52.8898 12.2631L53.8039 12.0682L53.8083 12.0885C53.761 12.1659 53.7077 12.2976 53.6483 12.4837C53.5915 12.6657 53.537 12.8915 53.4847 13.161L52.2922 19.4467C52.2647 19.5836 52.2381 19.7326 52.2123 19.8938C52.1899 20.0544 52.1949 20.2108 52.2274 20.3632C52.2368 20.4072 52.2477 20.442 52.2603 20.4676C52.2735 20.4967 52.2846 20.5155 52.2936 20.5243L52.2979 20.5446L51.3482 20.747L51.3439 20.7267C51.3945 20.6487 51.4482 20.5187 51.5049 20.3367C51.5658 20.1573 51.6228 19.9346 51.6757 19.6684L52.0302 17.8195Z" fill="white"></path><path d="M74.7859 70.476C68.8767 59.5948 55.5845 60.3355 52.4813 56.7608C50.6408 54.6419 50.3035 52.0835 50.546 49.8009C50.7483 47.9059 51.3534 46.1982 51.8319 45.0827C52.5192 44.5724 53.2339 44.0986 53.9781 43.6658C54.0814 44.0426 54.2015 44.413 54.347 44.7748C54.5325 45.2464 54.8023 45.7029 55.1439 46.1573C56.295 47.6884 58.2703 49.1786 60.6274 50.9573C62.9927 52.7446 65.727 54.8098 68.1704 57.3982C71.3095 60.7167 73.9743 64.903 74.7859 70.476Z" fill="#66A589"></path><path d="M87.9721 71.6886C86.353 77.0657 82.8934 81.7644 78.1396 84.8266C78.2744 79.6842 77.5429 75.274 75.9681 71.7014C74.9688 60.4756 67.0336 54.4847 61.2361 50.1068C58.428 47.9857 56.0057 46.1553 55.2994 44.3787C55.2088 44.1483 55.1265 43.9114 55.0549 43.6702C55.0527 43.6681 55.0527 43.6659 55.0527 43.6659C55.6347 43.3537 56.2313 43.0716 56.8406 42.8153C56.8406 42.8153 56.8406 42.8153 56.8426 42.8175C58.0569 44.1634 61.7568 47.5076 69.7068 49.2584C71.1783 49.5835 72.6456 50.0939 74.0665 50.7658C77.7559 52.5058 81.1479 55.3246 83.5787 58.74C83.838 59.0974 84.0825 59.4635 84.3144 59.8339C86.5385 63.3634 87.7655 67.3796 87.9721 71.6886Z" fill="#41705B"></path><path d="M88.9999 64.737C88.9999 66.0376 88.8945 67.3255 88.69 68.5917C88.1482 65.2431 86.9761 62.1055 85.1862 59.2651C81.674 53.6812 75.9693 49.5553 69.923 48.2244C62.8689 46.6761 59.2767 43.7884 57.9021 42.4037C57.8999 42.4016 57.8979 42.4016 57.8979 42.4016C58.9393 42.0204 60.0081 41.7125 61.0918 41.4864C62.6244 41.1655 64.1908 41.0018 65.7635 41.0018C65.8668 41.0018 65.968 41.0018 66.0713 41.004C73.9643 41.1095 80.9213 45.2549 85.045 51.5063C87.5432 55.2899 88.9999 59.8423 88.9999 64.737Z" fill="#66A589"></path><path d="M50.0357 75.1234C52.6457 79.3204 55.1544 83.3603 55.0448 86.8854C46.768 83.0954 41 74.6023 41 64.7352C41 57.5922 44.0189 51.175 48.8256 46.7368C46.6099 50.346 43.3759 57.0604 44.6725 63.9191C45.3682 67.6123 47.742 71.4281 50.0357 75.1234Z" fill="#66A589"></path><path d="M72.8929 71.6886C72.2499 72.6016 71.4889 73.4285 70.6856 74.2081C69.8782 74.9854 69.0118 75.6917 68.1284 76.3808C67.6984 76.7168 67.2598 77.0376 66.815 77.3499C68.0272 78.7173 70.6688 83.6229 69.5431 88.5069C69.2668 88.5629 68.9907 88.6189 68.7103 88.6641C67.4222 88.8838 66.1003 89 64.7511 89C61.6879 89 58.7597 88.4078 56.0696 87.3268C56.3774 83.358 53.6115 78.9047 50.9109 74.5591C48.6678 70.95 46.3487 67.2159 45.6889 63.723C44.3418 56.6209 48.2925 49.45 50.3417 46.3232C49.452 48.8815 48.6931 52.8847 50.953 56.1041C51.0015 56.4186 51.0605 56.748 51.1238 57.0904C51.2482 57.7279 51.3283 58.3093 51.3726 58.8454C51.322 58.8777 51.2671 58.91 51.2102 58.9381C51.0837 59.0048 50.9425 59.0543 50.8012 59.0953C50.5124 59.1771 50.2025 59.2094 49.8926 59.203C49.5785 59.203 49.2644 59.1448 48.9502 59.0781C48.7942 59.0371 48.6403 58.9897 48.4843 58.9445L48.0248 58.7766L48.4548 59.0199C48.6024 59.0889 48.75 59.1642 48.9018 59.2309C49.2096 59.3537 49.5258 59.4678 49.861 59.526C50.192 59.5884 50.5377 59.6164 50.8898 59.5776C51.0626 59.5561 51.2376 59.526 51.4105 59.4699C51.5222 62.6441 50.2615 64.0331 48.9671 65.7386V65.7408C47.66 67.4614 49.7767 68.2129 50.8033 68.8332C51.0184 68.9624 51.1849 69.085 51.265 69.2121C51.4021 69.4296 51.4569 69.6256 51.4759 69.8107C51.5201 70.2393 51.3599 70.5817 51.5581 70.881C51.7794 71.2169 52.4329 71.4043 52.7386 71.5184C52.8251 71.5507 52.882 71.5766 52.8947 71.5981C52.903 71.6132 52.8904 71.6368 52.8588 71.6714C52.7029 71.8501 52.0851 72.2808 52.2496 72.8535C52.4435 73.5341 53.4513 73.5793 53.6979 73.5749C53.9382 73.5685 54.4379 74.2597 54.5981 76.1677C54.7519 77.9874 55.473 79.5163 58.182 79.2407C58.3127 79.2299 58.4518 79.2126 58.591 79.1911C59.7863 79.0059 61.1144 78.5903 62.3372 78.1704C63.1383 77.8452 63.9437 77.4813 64.7342 77.1088C65.7125 76.6392 66.6885 76.1483 67.633 75.6056C68.5796 75.0608 69.5135 74.4924 70.399 73.8484C71.2823 73.2024 72.1319 72.5047 72.8929 71.6886Z" fill="#41705B"></path><path opacity="0.2" d="M74.7859 70.4764C68.8767 59.5951 55.5845 60.3358 52.4813 56.7611C50.6408 54.6422 50.3035 52.0839 50.546 49.8013C50.8495 52.1916 52.1819 56.2981 57.6548 57.3448C65.5036 58.85 69.9202 62.0242 72.4817 65.754C72.4817 65.754 72.0326 63.004 68.1704 57.3964C71.3095 60.717 73.9743 64.9033 74.7859 70.4764Z" fill="#66A589"></path><path opacity="0.2" d="M87.9719 71.6884C86.3528 77.0656 82.8933 81.7643 78.1394 84.8265C78.2742 79.6841 77.5428 75.2739 75.9679 71.7013C74.9686 60.4754 67.0334 54.4845 61.2359 50.1067C58.4278 47.9855 56.0054 46.1551 55.2992 44.3785C55.2086 44.1481 55.1264 43.9112 55.0547 43.67C55.1453 43.8122 58.0546 48.3861 66.266 52.1675C74.606 56.0114 80.0578 71.7681 79.457 78.7301C79.457 78.7301 82.3473 74.6494 79.0226 64.9697C79.1491 65.142 83.6923 71.4623 82.5096 77.3368C82.5096 77.3368 86.3212 75.1124 86.2158 69.2076C86.1462 65.1721 84.5693 60.9879 83.5763 58.7376C83.8356 59.0951 84.0802 59.4612 84.3121 59.8316C86.5383 63.3633 87.7653 67.3794 87.9719 71.6884Z" fill="#66A589"></path><path opacity="0.2" d="M88.999 64.7373C88.999 66.038 88.8936 67.3258 88.6892 68.592C88.1474 65.2434 86.9752 62.1058 85.1854 59.2655C81.6732 53.6816 75.9684 49.5556 69.9221 48.2248C62.8681 46.6765 59.2757 43.7887 57.9012 42.4041C58.053 42.5117 62.9503 45.9098 70.5018 46.7411C78.1693 47.5852 84.7321 54.4956 86.8551 59.1319C86.8551 59.1319 86.4903 55.2794 85.0441 51.5066C87.5423 55.2902 88.999 59.8426 88.999 64.7373Z" fill="#66A589"></path><path opacity="0.2" d="M68.7081 88.6614C67.4201 88.8811 66.0982 88.9973 64.749 88.9973C61.6858 88.9973 58.7575 88.4051 56.0675 87.3241C56.3752 83.3553 53.6093 78.902 50.9087 74.5564C48.6656 70.9472 46.3466 67.2132 45.6867 63.7203C44.3396 56.6183 48.2903 49.4473 50.3395 46.3206C50.2214 46.5682 45.1133 57.5486 48.965 65.736V65.7381C47.6579 67.4587 49.7745 68.2102 50.8012 68.8304C51.0268 69.1685 51.2524 69.4936 51.4737 69.8081C51.518 70.2365 51.3578 70.579 51.5559 70.8784C51.7773 71.2143 52.4309 71.4016 52.7365 71.5157C52.7765 71.5675 52.8146 71.6213 52.8567 71.6708C52.7007 71.8495 52.083 72.2802 52.2474 72.853C52.4414 73.5335 53.4491 73.5787 53.6958 73.5744C53.936 73.5679 54.4357 74.2593 54.596 76.1672C54.7499 77.9868 55.4709 79.5158 58.1798 79.2401C59.0125 81.0555 59.5797 83.1938 59.78 86.0794C59.78 86.0794 62.47 84.15 61.2346 80.9564C61.2346 80.9564 63.269 83.926 64.0701 86.0794C64.7784 87.9916 66.5515 88.9242 68.7081 88.6614Z" fill="#66A589"></path><path opacity="0.2" d="M66.9761 58.9053C63.8412 54.8052 58.8701 55.2682 55.3811 51.8894C51.892 48.5107 53.9771 43.6676 53.9771 43.6676C54.0804 44.0445 54.2005 44.4148 54.346 44.7766C54.5315 45.2482 54.8013 45.7048 55.1429 46.1591C55.554 49.1373 57.7823 51.7774 61.8891 53.6358C66.9761 55.9358 66.9761 58.9053 66.9761 58.9053Z" fill="black"></path><path opacity="0.2" d="M83.2775 70.4758C82.6766 60.3848 72.0451 51.4438 65.2335 49.271C58.5253 47.1348 56.8936 42.9485 56.8451 42.8171C58.0594 44.163 61.7593 47.5073 69.7092 49.2581C71.1807 49.5832 72.6481 50.0936 74.0689 50.7655C83.7244 58.5803 83.2775 70.4758 83.2775 70.4758Z" fill="black"></path><path opacity="0.2" d="M80.166 48.6598C76.5673 44.4003 71.9904 44.902 66.9772 43.9545C63.8044 43.3537 61.9934 42.2318 61.0932 41.4845C62.6258 41.1637 64.1922 41 65.765 41C65.8682 41 65.9694 41 66.0727 41.0022C67.3883 42.3416 70.658 43.2525 74.3916 44.2323C78.5764 45.3284 80.1196 48.5586 80.166 48.6598Z" fill="black"></path><defs><linearGradient id="paint0_linear_1_702" x1="64.6944" y1="0" x2="64.6944" y2="129.389" gradientUnits="userSpaceOnUse"><stop stop-color="#43735E"></stop><stop offset="0.5" stop-color="#43735E"></stop><stop offset="1" stop-color="white"></stop></linearGradient></defs></svg>