<svg xmlns="http://www.w3.org/2000/svg" width="169" height="44" viewBox="0 0 169 44" fill="none"><path d="M32.0052 26.5546C26.5674 16.7518 14.3357 17.4191 11.48 14.1987C9.78635 12.2898 9.47595 9.98506 9.69905 7.92867C9.88529 6.22147 10.4421 4.68305 10.8825 3.67813C11.5149 3.21835 12.1726 2.79155 12.8574 2.40161C12.9525 2.74111 13.063 3.07479 13.1969 3.40071C13.3676 3.82557 13.6159 4.23685 13.9302 4.64619C14.9895 6.02553 16.8072 7.36801 18.9762 8.97044C21.1528 10.5806 23.669 12.4411 25.9175 14.773C28.8061 17.7625 31.2583 21.5339 32.0052 26.5546Z" fill="#66A589"></path><path d="M44.1394 27.647C42.6495 32.4912 39.4659 36.7242 35.0913 39.4829C35.2154 34.8502 34.5422 30.8771 33.0931 27.6586C32.1735 17.5454 24.8713 12.1483 19.5364 8.20433C16.9523 6.29343 14.7232 4.64444 14.0733 3.04394C13.9899 2.83636 13.9142 2.62296 13.8483 2.40568C13.8463 2.40374 13.8463 2.4018 13.8463 2.4018C14.3818 2.1205 14.9308 1.86636 15.4915 1.6355C15.4915 1.6355 15.4915 1.6355 15.4934 1.63744C16.6108 2.84994 20.0155 5.86275 27.3313 7.43997C28.6854 7.73291 30.0356 8.19269 31.3432 8.79797C34.7382 10.3655 37.8596 12.9049 40.0965 15.9818C40.3351 16.3038 40.5601 16.6336 40.7735 16.9673C42.8202 20.147 43.9493 23.7651 44.1394 27.647Z" fill="#41705B"></path><path d="M45.0853 21.3844C45.0853 22.5561 44.9883 23.7163 44.8001 24.857C44.3015 21.8403 43.2229 19.0137 41.5758 16.4548C38.3438 11.4244 33.0942 7.70738 27.5303 6.50846C21.039 5.1136 17.7333 2.51207 16.4684 1.26465C16.4664 1.26271 16.4645 1.26271 16.4645 1.26271C17.4229 0.919328 18.4064 0.641908 19.4036 0.438208C20.814 0.149149 22.2554 0.00170898 23.7026 0.00170898C23.7977 0.00170898 23.8908 0.0017094 23.9859 0.0036494C31.2492 0.0987092 37.6512 3.83321 41.4459 9.46502C43.7448 12.8736 45.0853 16.9748 45.0853 21.3844Z" fill="#66A589"></path><path d="M9.2295 30.7413C11.6313 34.5223 13.9399 38.1618 13.839 41.3375C6.22251 37.9231 0.914673 30.2718 0.914673 21.3827C0.914673 14.9477 3.69275 9.16655 8.11595 5.16821C6.07701 8.41965 3.10105 14.4686 4.29415 20.6475C4.93435 23.9746 7.11878 27.4122 9.2295 30.7413Z" fill="#66A589"></path><path d="M30.2631 27.6469C29.6714 28.4694 28.9711 29.2144 28.2319 29.9167C27.4889 30.617 26.6916 31.2533 25.8787 31.8741C25.483 32.1768 25.0794 32.4658 24.6701 32.7471C25.7856 33.979 28.2164 38.3984 27.1805 42.7983C26.9263 42.8487 26.6722 42.8992 26.4142 42.9399C25.2288 43.1378 24.0124 43.2425 22.7708 43.2425C19.952 43.2425 17.2574 42.709 14.7819 41.7352C15.0652 38.1597 12.5199 34.1478 10.0347 30.2329C7.97057 26.9815 5.83657 23.6175 5.22935 20.4708C3.98969 14.0727 7.62525 7.61253 9.51093 4.79565C8.69225 7.10037 7.99385 10.7068 10.0735 13.6071C10.1181 13.8904 10.1725 14.1872 10.2307 14.4956C10.3451 15.0699 10.4188 15.5937 10.4596 16.0767C10.413 16.1058 10.3626 16.1349 10.3102 16.1602C10.1938 16.2203 10.0638 16.2649 9.93384 16.3018C9.66806 16.3755 9.38288 16.4046 9.0977 16.3988C8.80864 16.3988 8.51958 16.3464 8.23052 16.2863C8.08696 16.2494 7.94534 16.2067 7.80178 16.166L7.37887 16.0147L7.77462 16.2339C7.91042 16.296 8.04623 16.3639 8.18591 16.424C8.46915 16.5346 8.76014 16.6374 9.0686 16.6898C9.37318 16.746 9.69134 16.7713 10.0153 16.7363C10.1744 16.7169 10.3354 16.6898 10.4945 16.6393C10.5973 19.4989 9.4372 20.7502 8.24605 22.2867V22.2886C7.04325 23.8387 8.991 24.5157 9.93578 25.0745C10.1337 25.1909 10.2869 25.3014 10.3606 25.4159C10.4867 25.6118 10.5372 25.7884 10.5546 25.9552C10.5954 26.3413 10.4479 26.6497 10.6303 26.9194C10.834 27.222 11.4354 27.3908 11.7167 27.4936C11.7963 27.5227 11.8486 27.546 11.8603 27.5654C11.868 27.579 11.8564 27.6003 11.8273 27.6314C11.6838 27.7924 11.1153 28.1804 11.2667 28.6964C11.4451 29.3095 12.3725 29.3502 12.5994 29.3463C12.8206 29.3405 13.2804 29.9632 13.4278 31.6821C13.5694 33.3214 14.2329 34.6988 16.7258 34.4505C16.8461 34.4408 16.9741 34.4252 17.1022 34.4058C18.2021 34.239 19.4243 33.8646 20.5495 33.4863C21.2867 33.1933 22.0278 32.8655 22.7553 32.5299C23.6555 32.1069 24.5537 31.6646 25.4228 31.1757C26.2939 30.6849 27.1533 30.1728 27.9681 29.5927C28.781 29.0107 29.5628 28.3821 30.2631 27.6469Z" fill="#41705B"></path><path opacity="0.2" d="M32.0052 26.5549C26.5674 16.7521 14.3357 17.4194 11.48 14.199C9.78635 12.2901 9.47595 9.98535 9.69905 7.92896C9.97841 10.0824 11.2045 13.7819 16.2408 14.7248C23.4634 16.0808 27.5277 18.9404 29.8848 22.3005C29.8848 22.3005 29.4715 19.8231 25.9175 14.7713C28.8061 17.7628 31.2583 21.5342 32.0052 26.5549Z" fill="#66A589"></path><path opacity="0.2" d="M44.1394 27.6466C42.6495 32.4908 39.466 36.7238 35.0913 39.4825C35.2154 34.8498 34.5423 30.8767 33.0931 27.6582C32.1735 17.545 24.8714 12.1479 19.5364 8.20393C16.9523 6.29303 14.7232 4.64403 14.0733 3.04353C13.9899 2.83595 13.9143 2.62255 13.8483 2.40527C13.9317 2.53331 16.6089 6.65387 24.1652 10.0605C31.8398 13.5234 36.8567 27.7184 36.3038 33.9904C36.3038 33.9904 38.9635 30.3141 35.9041 21.5938C36.0205 21.749 40.2012 27.4429 39.1129 32.7352C39.1129 32.7352 42.6204 30.7312 42.5234 25.4117C42.4594 21.7762 41.0083 18.0067 40.0945 15.9794C40.3331 16.3015 40.5582 16.6313 40.7716 16.965C42.8202 20.1466 43.9493 23.7647 44.1394 27.6466Z" fill="#66A589"></path><path opacity="0.2" d="M45.0843 21.3846C45.0843 22.5564 44.9873 23.7165 44.7992 24.8572C44.3006 21.8405 43.2219 19.0139 41.5749 16.4551C38.3429 11.4247 33.0932 7.70762 27.5293 6.50871C21.0381 5.11385 17.7323 2.51231 16.4674 1.26489C16.6071 1.36189 21.1137 4.42321 28.0628 5.17205C35.1186 5.93253 41.1578 12.158 43.1114 16.3348C43.1114 16.3348 42.7757 12.8641 41.4449 9.46526C43.7438 12.8738 45.0843 16.975 45.0843 21.3846Z" fill="#66A589"></path><path opacity="0.2" d="M26.4122 42.9375C25.2269 43.1354 24.0105 43.2401 22.7689 43.2401C19.9501 43.2401 17.2554 42.7066 14.78 41.7327C15.0632 38.1573 12.5179 34.1454 10.0328 30.2305C7.96861 26.979 5.83461 23.6151 5.22739 20.4684C3.98774 14.0703 7.62329 7.61009 9.50897 4.79321C9.40033 5.01631 4.69971 14.9084 8.24409 22.2843V22.2862C7.04129 23.8363 8.98905 24.5133 9.93383 25.072C10.1414 25.3766 10.349 25.6695 10.5527 25.9528C10.5934 26.3388 10.446 26.6473 10.6284 26.917C10.8321 27.2196 11.4335 27.3884 11.7148 27.4912C11.7516 27.5378 11.7866 27.5863 11.8254 27.6309C11.6818 27.7919 11.1134 28.1799 11.2647 28.6959C11.4432 29.309 12.3705 29.3497 12.5975 29.3458C12.8186 29.34 13.2784 29.9628 13.4259 31.6816C13.5675 33.3209 14.231 34.6983 16.7238 34.45C17.4901 36.0854 18.012 38.0118 18.1963 40.6114C18.1963 40.6114 20.6717 38.8732 19.5349 35.9962C19.5349 35.9962 21.407 38.6714 22.1442 40.6114C22.796 42.3341 24.4276 43.1742 26.4122 42.9375Z" fill="#66A589"></path><path opacity="0.2" d="M24.8185 16.1307C21.9337 12.437 17.3592 12.8541 14.1485 9.81023C10.9378 6.76637 12.8565 2.40332 12.8565 2.40332C12.9516 2.74282 13.0621 3.0765 13.196 3.40242C13.3667 3.82728 13.615 4.23856 13.9293 4.6479C14.3076 7.33091 16.3582 9.70935 20.1373 11.3835C24.8185 13.4555 24.8185 16.1307 24.8185 16.1307Z" fill="black"></path><path opacity="0.2" d="M39.8193 26.5545C39.2664 17.4637 29.483 9.40884 23.2149 7.45138C17.0418 5.5269 15.5403 1.75555 15.4957 1.63721C16.6131 2.84971 20.0178 5.86252 27.3335 7.43974C28.6876 7.73268 30.0379 8.19246 31.3454 8.79774C40.2306 15.838 39.8193 26.5545 39.8193 26.5545Z" fill="black"></path><path opacity="0.2" d="M36.9561 6.90057C33.6445 3.06326 29.4328 3.51528 24.8195 2.66168C21.8998 2.12042 20.2333 1.10968 19.4049 0.4365C20.8153 0.14744 22.2567 0 23.704 0C23.799 0 23.8921 4.14439e-07 23.9872 0.00194041C25.1978 1.20862 28.2067 2.02924 31.6424 2.91194C35.4933 3.8994 36.9134 6.80939 36.9561 6.90057Z" fill="black"></path><path d="M77.0965 31.2502C77.0965 31.3756 77.0794 31.5066 77.0452 31.6433C77.0225 31.78 76.9598 31.894 76.8573 31.9851C76.3446 32.3725 75.7863 32.7314 75.1824 33.0618C74.59 33.3808 73.9463 33.6599 73.2513 33.8992C72.5563 34.1384 71.8044 34.3207 70.9954 34.446C70.1979 34.5828 69.3377 34.6511 68.4149 34.6511C66.3413 34.6511 64.45 34.3492 62.741 33.7454C61.0321 33.1301 59.5623 32.2642 58.3319 31.1477C57.1128 30.0312 56.1671 28.6925 55.4949 27.1316C54.8227 25.5593 54.4866 23.8162 54.4866 21.9021C54.4866 20.8197 54.6234 19.7545 54.8968 18.7063C55.1816 17.6581 55.5918 16.6612 56.1273 15.7156C56.6628 14.7699 57.3236 13.9041 58.1097 13.1179C58.8958 12.3204 59.7902 11.6311 60.7928 11.05C61.8068 10.469 62.9176 10.019 64.1253 9.69995C65.3444 9.36955 66.6603 9.20435 68.0731 9.20435C68.6199 9.20435 69.1782 9.23283 69.7479 9.2898C70.3175 9.33537 70.8815 9.40942 71.4398 9.51196C71.998 9.60311 72.5335 9.71704 73.0462 9.85376C73.5703 9.99048 74.0659 10.1443 74.533 10.3152L75.6951 13.4768L75.5584 13.5452C75.1141 13.1464 74.6014 12.7761 74.0203 12.4343C73.4393 12.0925 72.8184 11.7963 72.1575 11.5457C71.4967 11.295 70.8018 11.1013 70.0726 10.9646C69.3548 10.8165 68.6256 10.7424 67.8851 10.7424C66.4495 10.7424 65.1336 10.9703 63.9373 11.426C62.741 11.8704 61.71 12.5198 60.8441 13.3743C59.9896 14.2288 59.3231 15.2769 58.8446 16.5188C58.366 17.7607 58.1268 19.1734 58.1268 20.7571C58.1268 22.5002 58.3546 24.1181 58.8104 25.6106C59.2661 27.1031 59.944 28.3962 60.8441 29.49C61.7441 30.5837 62.8664 31.4439 64.2108 32.0706C65.5666 32.6858 67.1445 32.9934 68.9447 32.9934C69.7422 32.9934 70.4543 32.9307 71.0809 32.8054C71.7075 32.6801 72.2373 32.5263 72.6702 32.344C73.1032 32.1503 73.4279 31.9452 73.6444 31.7288C73.8722 31.5009 73.9862 31.2958 73.9862 31.1135V30.447C73.9862 29.6495 73.9748 28.9602 73.952 28.3792C73.9292 27.7981 73.895 27.2968 73.8494 26.8752C73.8039 26.4423 73.7526 26.072 73.6956 25.7644C73.6387 25.4568 73.5703 25.172 73.4906 24.9099V24.8416H77.5921V24.9099C77.5238 25.1492 77.4554 25.434 77.387 25.7644C77.3301 26.0834 77.2788 26.4651 77.2332 26.9094C77.1877 27.3538 77.1535 27.8779 77.1307 28.4817C77.1079 29.0741 77.0965 29.7634 77.0965 30.5496V31.2502ZM81.0962 15.2542C81.0962 14.2857 81.0791 13.4426 81.0449 12.7249C81.0222 11.9957 80.988 11.3691 80.9424 10.845C80.9082 10.3209 80.857 9.88224 80.7886 9.52905C80.7316 9.17586 80.669 8.87964 80.6006 8.64038V8.57202H84.5484V8.64038C84.48 8.87964 84.4173 9.17586 84.3604 9.52905C84.3034 9.88224 84.2521 10.3209 84.2066 10.845C84.161 11.3691 84.1268 11.9957 84.104 12.7249C84.0812 13.4426 84.0699 14.2857 84.0699 15.2542V27.4392C84.0699 28.4076 84.0812 29.2564 84.104 29.9856C84.1268 30.7034 84.161 31.3243 84.2066 31.8484C84.2521 32.3725 84.3034 32.8111 84.3604 33.1643C84.4173 33.5175 84.48 33.8137 84.5484 34.053V34.1213H80.6006V34.053C80.669 33.8137 80.7316 33.5175 80.7886 33.1643C80.857 32.8111 80.9082 32.3725 80.9424 31.8484C80.988 31.3243 81.0222 30.7034 81.0449 29.9856C81.0791 29.2564 81.0962 28.4076 81.0962 27.4392V15.2542ZM88.8386 23.3035C88.8386 22.335 88.8215 21.4919 88.7873 20.7742C88.7645 20.045 88.7304 19.4184 88.6848 18.8943C88.6506 18.3702 88.5993 17.9316 88.531 17.5784C88.474 17.2252 88.4114 16.929 88.343 16.6897V16.6213H92.2907V16.6897C92.2224 16.929 92.1597 17.2252 92.1028 17.5784C92.0458 17.9316 91.9945 18.3702 91.949 18.8943C91.9034 19.4184 91.8692 20.045 91.8464 20.7742C91.8236 21.4919 91.8122 22.335 91.8122 23.3035V27.4392C91.8122 28.4076 91.8236 29.2564 91.8464 29.9856C91.8692 30.7034 91.9034 31.3243 91.949 31.8484C91.9945 32.3725 92.0458 32.8111 92.1028 33.1643C92.1597 33.5175 92.2224 33.8137 92.2907 34.053V34.1213H88.343V34.053C88.4114 33.8137 88.474 33.5175 88.531 33.1643C88.5993 32.8111 88.6506 32.3725 88.6848 31.8484C88.7304 31.3243 88.7645 30.7034 88.7873 29.9856C88.8215 29.2564 88.8386 28.4076 88.8386 27.4392V23.3035ZM88.4797 11.4431C88.4797 11.1925 88.5253 10.9589 88.6164 10.7424C88.719 10.5146 88.85 10.3209 89.0095 10.1614C89.169 9.99048 89.357 9.85946 89.5735 9.76831C89.8013 9.66577 90.0463 9.6145 90.3083 9.6145C90.5704 9.6145 90.8096 9.66577 91.0261 9.76831C91.254 9.85946 91.4477 9.99048 91.6072 10.1614C91.7781 10.3209 91.9091 10.5146 92.0002 10.7424C92.1028 10.9589 92.154 11.1925 92.154 11.4431C92.154 11.9672 91.9774 12.4058 91.6242 12.759C91.2711 13.1122 90.8324 13.2888 90.3083 13.2888C90.0463 13.2888 89.8013 13.2432 89.5735 13.1521C89.357 13.0496 89.169 12.9185 89.0095 12.759C88.85 12.5881 88.719 12.3945 88.6164 12.178C88.5253 11.9501 88.4797 11.7052 88.4797 11.4431ZM107.877 22.6028C107.877 21.8508 107.798 21.2014 107.638 20.6545C107.49 20.1077 107.268 19.6576 106.972 19.3044C106.687 18.9399 106.339 18.6721 105.929 18.5012C105.519 18.3189 105.063 18.2278 104.562 18.2278C104.22 18.2278 103.838 18.2961 103.417 18.4329C102.995 18.5696 102.557 18.7576 102.101 18.9968C101.657 19.2247 101.207 19.4924 100.751 19.8001C100.307 20.1077 99.885 20.4381 99.4863 20.7913C99.4635 21.1558 99.4521 21.5489 99.4521 21.9705C99.4521 22.3806 99.4521 22.825 99.4521 23.3035V27.4392C99.4521 28.4076 99.4635 29.2564 99.4863 29.9856C99.509 30.7034 99.5432 31.3243 99.5888 31.8484C99.6344 32.3725 99.6856 32.8111 99.7426 33.1643C99.7996 33.5175 99.8622 33.8137 99.9306 34.053V34.1213H95.9828V34.053C96.0512 33.8137 96.1139 33.5175 96.1708 33.1643C96.2392 32.8111 96.2905 32.3725 96.3246 31.8484C96.3702 31.3243 96.4044 30.7034 96.4272 29.9856C96.4614 29.2564 96.4784 28.4076 96.4784 27.4392V23.3035C96.4784 22.335 96.4614 21.4919 96.4272 20.7742C96.4044 20.045 96.3702 19.4184 96.3246 18.8943C96.2905 18.3702 96.2392 17.9316 96.1708 17.5784C96.1139 17.2252 96.0512 16.929 95.9828 16.6897V16.6213H99.9306V16.6897C99.8395 16.9517 99.7654 17.2878 99.7084 17.698C99.6629 18.0968 99.6116 18.6038 99.5546 19.219C100.01 18.8544 100.5 18.4955 101.024 18.1423C101.548 17.7891 102.084 17.4758 102.631 17.2024C103.189 16.929 103.747 16.7068 104.306 16.5359C104.864 16.365 105.416 16.2795 105.963 16.2795C106.613 16.2795 107.188 16.365 107.689 16.5359C108.191 16.7068 108.629 16.9403 109.005 17.2366C109.381 17.5328 109.695 17.8803 109.945 18.2791C110.207 18.6778 110.407 19.1051 110.543 19.5608C111.011 19.162 111.518 18.769 112.064 18.3816C112.623 17.9828 113.192 17.6296 113.773 17.322C114.366 17.0144 114.964 16.7638 115.568 16.5701C116.183 16.3764 116.781 16.2795 117.362 16.2795C118.251 16.2795 119.003 16.4334 119.618 16.741C120.245 17.0486 120.752 17.453 121.139 17.9543C121.538 18.4556 121.823 19.031 121.994 19.6804C122.176 20.3184 122.267 20.9679 122.267 21.6287V27.4392C122.267 28.4076 122.278 29.2564 122.301 29.9856C122.324 30.7034 122.358 31.3243 122.404 31.8484C122.449 32.3725 122.501 32.8111 122.558 33.1643C122.626 33.5175 122.694 33.8137 122.763 34.053V34.1213H118.798V34.053C118.866 33.8137 118.929 33.5175 118.986 33.1643C119.054 32.8111 119.111 32.3725 119.157 31.8484C119.202 31.3243 119.236 30.7034 119.259 29.9856C119.282 29.2564 119.293 28.4076 119.293 27.4392V22.6028C119.293 21.0989 118.991 19.9937 118.388 19.2874C117.784 18.581 116.975 18.2278 115.961 18.2278C115.608 18.2278 115.215 18.2961 114.782 18.4329C114.36 18.5696 113.921 18.7576 113.466 18.9968C113.01 19.2361 112.554 19.5152 112.099 19.8342C111.643 20.1418 111.216 20.4723 110.817 20.8254C110.84 20.9622 110.851 21.0989 110.851 21.2356C110.851 21.3723 110.851 21.5033 110.851 21.6287V27.4392C110.851 28.4076 110.862 29.2564 110.885 29.9856C110.919 30.7034 110.954 31.3243 110.988 31.8484C111.033 32.3725 111.085 32.8111 111.142 33.1643C111.21 33.5175 111.278 33.8137 111.347 34.053V34.1213H107.399V34.053C107.467 33.8137 107.53 33.5175 107.587 33.1643C107.644 32.8111 107.695 32.3725 107.741 31.8484C107.786 31.3243 107.82 30.7034 107.843 29.9856C107.866 29.2564 107.877 28.4076 107.877 27.4392V22.6028ZM138.11 22.6028C138.11 21.8508 138.03 21.2014 137.871 20.6545C137.723 20.1077 137.5 19.6576 137.204 19.3044C136.919 18.9399 136.572 18.6721 136.162 18.5012C135.752 18.3189 135.296 18.2278 134.795 18.2278C134.453 18.2278 134.071 18.2961 133.65 18.4329C133.228 18.5696 132.789 18.7576 132.334 18.9968C131.889 19.2247 131.439 19.4924 130.984 19.8001C130.539 20.1077 130.118 20.4381 129.719 20.7913C129.696 21.1558 129.685 21.5489 129.685 21.9705C129.685 22.3806 129.685 22.825 129.685 23.3035V27.4392C129.685 28.4076 129.696 29.2564 129.719 29.9856C129.742 30.7034 129.776 31.3243 129.821 31.8484C129.867 32.3725 129.918 32.8111 129.975 33.1643C130.032 33.5175 130.095 33.8137 130.163 34.053V34.1213H126.215V34.053C126.284 33.8137 126.346 33.5175 126.403 33.1643C126.472 32.8111 126.523 32.3725 126.557 31.8484C126.603 31.3243 126.637 30.7034 126.66 29.9856C126.694 29.2564 126.711 28.4076 126.711 27.4392V23.3035C126.711 22.335 126.694 21.4919 126.66 20.7742C126.637 20.045 126.603 19.4184 126.557 18.8943C126.523 18.3702 126.472 17.9316 126.403 17.5784C126.346 17.2252 126.284 16.929 126.215 16.6897V16.6213H130.163V16.6897C130.072 16.9517 129.998 17.2878 129.941 17.698C129.895 18.0968 129.844 18.6038 129.787 19.219C130.243 18.8544 130.733 18.4955 131.257 18.1423C131.781 17.7891 132.317 17.4758 132.863 17.2024C133.422 16.929 133.98 16.7068 134.538 16.5359C135.096 16.365 135.649 16.2795 136.196 16.2795C136.845 16.2795 137.421 16.365 137.922 16.5359C138.423 16.7068 138.862 16.9403 139.238 17.2366C139.614 17.5328 139.927 17.8803 140.178 18.2791C140.44 18.6778 140.639 19.1051 140.776 19.5608C141.243 19.162 141.75 18.769 142.297 18.3816C142.855 17.9828 143.425 17.6296 144.006 17.322C144.598 17.0144 145.197 16.7638 145.8 16.5701C146.416 16.3764 147.014 16.2795 147.595 16.2795C148.484 16.2795 149.235 16.4334 149.851 16.741C150.477 17.0486 150.984 17.453 151.372 17.9543C151.77 18.4556 152.055 19.031 152.226 19.6804C152.408 20.3184 152.5 20.9679 152.5 21.6287V27.4392C152.5 28.4076 152.511 29.2564 152.534 29.9856C152.557 30.7034 152.591 31.3243 152.636 31.8484C152.682 32.3725 152.733 32.8111 152.79 33.1643C152.859 33.5175 152.927 33.8137 152.995 34.053V34.1213H149.03V34.053C149.099 33.8137 149.161 33.5175 149.218 33.1643C149.287 32.8111 149.344 32.3725 149.389 31.8484C149.435 31.3243 149.469 30.7034 149.492 29.9856C149.515 29.2564 149.526 28.4076 149.526 27.4392V22.6028C149.526 21.0989 149.224 19.9937 148.62 19.2874C148.016 18.581 147.207 18.2278 146.193 18.2278C145.84 18.2278 145.447 18.2961 145.014 18.4329C144.593 18.5696 144.154 18.7576 143.698 18.9968C143.243 19.2361 142.787 19.5152 142.331 19.8342C141.875 20.1418 141.448 20.4723 141.049 20.8254C141.072 20.9622 141.084 21.0989 141.084 21.2356C141.084 21.3723 141.084 21.5033 141.084 21.6287V27.4392C141.084 28.4076 141.095 29.2564 141.118 29.9856C141.152 30.7034 141.186 31.3243 141.22 31.8484C141.266 32.3725 141.317 32.8111 141.374 33.1643C141.443 33.5175 141.511 33.8137 141.579 34.053V34.1213H137.631V34.053C137.7 33.8137 137.762 33.5175 137.819 33.1643C137.876 32.8111 137.928 32.3725 137.973 31.8484C138.019 31.3243 138.053 30.7034 138.076 29.9856C138.099 29.2564 138.11 28.4076 138.11 27.4392V22.6028ZM156.944 23.3035C156.944 22.335 156.927 21.4919 156.892 20.7742C156.87 20.045 156.835 19.4184 156.79 18.8943C156.756 18.3702 156.704 17.9316 156.636 17.5784C156.579 17.2252 156.516 16.929 156.448 16.6897V16.6213H160.396V16.6897C160.305 16.9517 160.225 17.2708 160.157 17.6467C160.1 18.0227 160.054 18.5069 160.02 19.0994C160.441 18.7462 160.88 18.3987 161.336 18.0569C161.792 17.7151 162.259 17.4132 162.737 17.1511C163.216 16.8891 163.7 16.6783 164.19 16.5188C164.691 16.3593 165.192 16.2795 165.694 16.2795C166.001 16.2795 166.269 16.2966 166.497 16.3308C166.725 16.3536 166.93 16.3935 167.112 16.4504C167.294 16.496 167.46 16.553 167.608 16.6213C167.756 16.6783 167.898 16.7353 168.035 16.7922L167.198 20.0564L166.907 19.988C166.77 19.4867 166.514 19.088 166.138 18.7917C165.762 18.4841 165.249 18.3303 164.6 18.3303C164.247 18.3303 163.876 18.393 163.489 18.5183C163.102 18.6436 162.709 18.8202 162.31 19.0481C161.911 19.2646 161.512 19.5209 161.114 19.8171C160.715 20.102 160.327 20.4039 159.952 20.7229C159.929 21.0533 159.917 21.4122 159.917 21.7996C159.917 22.1869 159.917 22.5971 159.917 23.03V27.4392C159.917 28.4076 159.929 29.2564 159.952 29.9856C159.974 30.7034 160.008 31.3243 160.054 31.8484C160.1 32.3725 160.151 32.8111 160.208 33.1643C160.265 33.5175 160.327 33.8137 160.396 34.053V34.1213H156.448V34.053C156.516 33.8137 156.579 33.5175 156.636 33.1643C156.704 32.8111 156.756 32.3725 156.79 31.8484C156.835 31.3243 156.87 30.7034 156.892 29.9856C156.927 29.2564 156.944 28.4076 156.944 27.4392V23.3035Z" fill="#111111"></path></svg>